<?xml version="1.0" standalone="no"?>
<!DOCTYPE svg PUBLIC "-//W3C//DTD SVG 1.1//EN" "http://www.w3.org/Graphics/SVG/1.1/DTD/svg11.dtd" >
<svg>
<metadata>
Created by FontForge 20090914 at Sat Jun 10 17:21:59 2017
 By www-data
Copyright (c) 2015 by www.fontiran.com (Moslem Ebrahimi). All rights reserved.
</metadata>
<defs>
<font id="IRANSans-Light" horiz-adv-x="0" >
  <font-face 
    font-family="IRANSans"
    font-weight="300"
    font-stretch="normal"
    units-per-em="2048"
    panose-1="2 4 5 3 5 2 1 2 2 3"
    ascent="1638"
    descent="-410"
    x-height="1082"
    cap-height="1456"
    bbox="-236.999 -1141 4424 2438"
    underline-thickness="102"
    underline-position="-205"
    unicode-range="U+0020-U+FEFC"
  />
<missing-glyph horiz-adv-x="1229" 
d="M102 -362v1806h1024v-1806h-1024zM217 -248h795v1577h-795v-1577z" />
    <glyph glyph-name="uniFDF2" unicode="&#xfedf;&#xfee0;&#xfe7c;&#xfeea;" horiz-adv-x="2048" arabic-form="isolated" 
d="M1467 322c0 -41.333 11.0039 -76.8281 33.0039 -106.495s52.333 -45.834 91 -48.501h20c56 0 100 8.16699 132 24.5s51.667 44.5 59 84.5c3.33301 17.333 5 38.666 5 63.999c0 5.33301 -6 81.333 -18 228l-55 658c4 0.666992 55.333 12.334 154 35.001
c22.667 -298 39.667 -530.667 51 -698c10.667 -163.333 16 -257 16 -281v-7c-2 -52.667 -23.667 -109.334 -65 -170.001c-38.667 -56 -116 -84 -232 -84h-18c-6.66699 -1.33301 -11.334 -2 -14.001 -2h-13c-11.333 0 -22.666 1 -33.999 3s-23.666 4.66699 -36.999 8
s-23.333 5.66602 -30 6.99902c-46 20 -84.333 44.333 -115 73c-24 -17.333 -41.667 -30.666 -53 -39.999c-54.667 -35.333 -128.334 -53 -221.001 -53h-44c-12 -1.33301 -22 -2 -30 -2c-6.66699 0 -17.334 0.666992 -32.001 2h-10c-46 8 -78.333 18.667 -97 32
c-52 25.333 -95.667 67 -131 125c-86.667 -13.333 -163.334 -20 -230.001 -20c-166 0 -280.333 39.333 -343 118c-33.333 38.667 -50 86 -50 142c0 35.333 6.66699 67.666 20 96.999v1c81.333 162.667 238 287 470 373l-14 152c-1.33301 4 -2 6.66699 -2 8v7
c19.333 2 45.5 4.5 78.5 7.5s59.167 5.5 78.5 7.5c17.333 -205.333 35 -374.333 53 -507c16.667 -124.667 33 -208.667 49 -252c16.667 -44 37 -77.333 61 -100c16 -16 31.667 -26.333 47 -31s37 -7 65 -7h60c79.333 0 132.666 31.667 159.999 95c4.66699 8.66699 7 32 7 70
s-0.833008 79 -2.5 123s-3.33398 81.5 -5.00098 112.5s-4.33398 73.667 -8.00098 128s-6.16699 95.166 -7.5 122.499c-5.33301 91.333 -11.333 186.666 -18 285.999l158 17c3.33301 -52.667 9.33301 -126 18 -220s14.334 -166 17.001 -216
c8.66699 -121.333 15 -212.333 19 -273c1.33301 -18 2.5 -34.667 3.5 -50s1.83301 -26.333 2.5 -33zM673.004 721.005c-181.333 -71.333 -299 -162.667 -353 -274c-2.66699 -8 -4 -19.333 -4 -34c0 -18 4.16699 -31.833 12.5 -41.5s21.5 -19.5 39.5 -29.5
c35.333 -20 98 -30 188 -30c41.333 0 97.333 4 168 12c-6 28 -11.667 60.333 -17 97s-9.5 68.334 -12.5 95.001s-6.66699 62.167 -11 106.5s-7.83301 77.166 -10.5 98.499zM1580 1437c0 -50.667 -9.50195 -91.0029 -28.502 -121.003s-49.167 -45 -90.5 -45
c-32 0 -57.333 10.167 -76 30.5s-35 47.833 -49 82.5c-16.667 -35.333 -35.167 -63.5 -55.5 -84.5s-47.166 -31.5 -80.499 -31.5c-30.667 0 -57 12 -79 36v-1c-22 32 -33 74.333 -33 127v21c2 28.667 4.66699 54 8 76c7.33301 -1.33301 17.333 -3.66602 30 -6.99902
s22.334 -5.66602 29.001 -6.99902c-3.33301 -24.667 -5 -46.334 -5 -65.001v-1v-21c0 -64 16.667 -96 50 -96c54.667 0 91 64.333 109 193c7.33301 -0.666992 18.333 -1 33 -1h31c0 -36.667 5.66699 -71.667 17 -105s26.666 -58.333 45.999 -75
c7.33301 -6 15.666 -9 24.999 -9c22.667 0 37.834 9 45.501 27s11.5 43.667 11.5 77c0 52.667 -16.667 106 -50 160l53 30l27.5 -57.5c5.66699 -12.333 12.334 -31.666 20.001 -57.999s11.5 -51.166 11.5 -74.499zM1338 1952c10 -41.333 15 -88 15 -140
c0 -58 -5.66699 -113.333 -17 -166l-58 16c10.667 42.667 16 88 16 136c0 45.333 -5.33301 91 -16 137z" />
    <glyph glyph-name="uniFDFC" unicode="&#x631;&#xfbfe;&#xfe8e;&#x644;" horiz-adv-x="2845" arabic-form="isolated" 
d="M308 247c-58 -89.333 -86.998 -204.665 -86.998 -345.998c0 -92 18.333 -166.167 55 -222.5s90 -100.833 160 -133.5c63.333 -30 129 -45 197 -45c98 0 184.167 22.167 258.5 66.5s129.166 102.166 164.499 173.499c32.667 65.333 49 154 49 266
c0 230 -10.667 553 -32 969l-19 447h8c6.66699 0 28.667 2 66 6c6.66699 0.666992 19.167 1.5 37.5 2.5s33.5 2.16699 45.5 3.5l14 -352c0 -8.66699 0.333008 -20.667 1 -36s1.16699 -29.333 1.5 -42s0.5 -24.667 0.5 -36c0 -38 1 -76 3 -114l3 -69
c6.66699 -153.333 14.667 -418 24 -794c0 -132.667 -22.833 -242.667 -68.5 -330s-112.834 -158.333 -201.501 -213c-107.333 -66.667 -225.333 -100 -354 -100c-169.333 0 -310 60 -422 180c-95.333 102.667 -143 216 -143 340c0 201.333 41.333 360 124 476l30 -26l27 -24
c0.666992 -0.666992 20 -16.334 58 -47.001zM1831 161.001c40.667 0 75.5 1.16992 104.5 3.50293s59.167 7.33301 90.5 15s56.833 18.167 76.5 31.5s36.334 31.833 50 55.5c13.667 23.667 21.5 52.167 23.5 85.5c0 2.66699 0.166992 7 0.5 13s0.5 10.667 0.5 14
c0 92.667 -25.667 197 -77 313l-47 104c1.33301 4 10.333 9.33301 27 16c10.667 4.66699 27.667 11.5 51 20.5s43 17.167 59 24.5c75.333 -146 120.666 -287 136 -423c1.33301 -12 2 -29.667 2 -53c0 -52.667 -9.33301 -102.167 -28 -148.5s-43.334 -85.5 -74 -117.5
c-81.333 -70.667 -205.333 -106 -372 -106c-4.66699 0 -11.167 -0.166992 -19.5 -0.5s-14.5 -0.5 -18.5 -0.5c-102.667 0 -187.834 22.667 -255.501 68s-106.5 110.666 -116.5 195.999c-2.66699 33.333 -4 58.333 -4 75v16c1.33301 41.333 2 74.666 2 99.999
c4 138 6 208 6 210v119c0 4.66699 -0.166992 10.5 -0.5 17.5s-0.5 11.5 -0.5 13.5v23c0 47.333 -6.66699 161.666 -20 342.999c-2 36.667 -5.83301 81.834 -11.5 135.501s-11.167 80.5 -16.5 80.5l160 30c3.33301 -42.667 9.33301 -113.334 18 -212.001
s15.334 -184.834 20.001 -258.501s7 -147.167 7 -220.5c0 -132.667 -5 -255.667 -15 -369c0 -55.333 8.66699 -99.666 26 -132.999s46 -56 86 -68c11.333 -6.66699 30.333 -10 57 -10h38c13.333 0 25 -1 35 -3zM2621 641.004c6.66699 -26 21.834 -75 45.5 -147
c23.667 -72 41.167 -135.667 52.5 -191s17 -113.333 17 -174c0 -125.333 -39 -245 -117 -359c-104 -152.667 -270 -287.334 -498 -404.001l-66 138c181.333 90 323.333 203 426 339c65.333 94 98 190.667 98 290c0 20 -0.833008 39.667 -2.5 59s-4.66699 40 -9 62
s-7.83301 38.833 -10.5 50.5s-7.33398 30.834 -14 57.501c-6.66699 26.667 -11 43.667 -13 51c-8 32 -26.667 93 -56 183zM1772 -274.996l-141 -141l-143 142l141 142zM2115 -276.996l-140 -141l-143 143l141 141z" />
    <glyph glyph-name="uniFEF5" unicode="&#xfedf;&#xfe82;" horiz-adv-x="1350" arabic-form="isolated" 
d="M1107 1505c42 -273.333 75.334 -578.333 100.001 -915v-1c0.666992 -3.33301 1 -8.33301 1 -15v-14c0 -117.333 -32.667 -232 -98 -344c-72 -122.667 -208.667 -207 -410 -253l1 1c-74.667 -15.333 -146.334 -23 -215.001 -23c-43.333 0 -86 3 -128 9
c3.33301 20.667 8.16602 47.5 14.499 80.5s10.833 57.5 13.5 73.5c20 -4 52.667 -6 98 -6c62 0 129 8 201 24c-25.333 134.667 -78 290 -158 466c-55.333 121.333 -129.666 259.333 -222.999 414c-62 102.667 -112.333 181.667 -151 237l130 91
c192.667 -279.333 338.667 -543.333 438 -792c51.333 -129.333 89.333 -250.333 114 -363c47.333 30.667 89.333 72.667 126 126s62.667 110.333 78 171c8 30.667 12 59 12 85c0 10 -0.333008 17.333 -1 22l-50.5 455l-50.5 455l79 8zM175.001 1643
c36.667 0 80.833 -10.502 132.5 -31.502s95.167 -31.5 130.5 -31.5c49.333 0 95.666 30.667 138.999 92c13.333 -8 30 -18.833 50 -32.5s36 -24.167 48 -31.5c-12.667 -25.333 -33.334 -49.666 -62.001 -72.999s-59 -42.333 -91 -57c-26.667 -12 -56 -18 -88 -18h-7
c-25.333 0.666992 -50.166 4.33398 -74.499 11.001s-49.833 15.167 -76.5 25.5s-47.667 17.5 -63 21.5c-13.333 3.33301 -26.333 5 -39 5c-25.333 0 -44.333 -6 -57 -18c-29.333 -26 -51 -62 -65 -108l-112 35c12 38.667 25.333 69.667 40 93h-1
c40.667 66 92.334 104.333 155.001 115l21 3h20z" />
    <glyph glyph-name="uniFEF6" unicode="&#xfee0;&#xfe82;" horiz-adv-x="1470" arabic-form="final" 
d="M412 109c20 -4 52.666 -6.00586 97.999 -6.00586c62 0 129 8 201 24c-25.333 138.667 -79 295.334 -161 470.001c-104 222.667 -227.333 438 -370 646l129 92c84 -121.333 165.333 -252.166 244 -392.499s143.334 -273.166 194.001 -398.499
c50.667 -126.667 88.667 -247.334 114 -362.001c94 52.667 156 119.334 186 200.001c10 26.667 15 54.667 15 84v16c0 2.66699 -0.666992 7.33398 -2 14.001c-16.667 252.667 -41.334 544.667 -74.001 876c-4 40 -7 72 -9 96l-3 24l158 17c0 -1.33301 2 -19 6 -53
c25.333 -213.333 54 -563.333 86 -1050c4.66699 -50 13.667 -89.667 27 -119s35.333 -53.333 66 -72v-1c32 -18.667 67.667 -30.667 107 -36h4h2l1 -1l30 -1h9c21.333 0 39.833 -7.66699 55.5 -23s23.5 -33.666 23.5 -54.999c0 -22 -7.66699 -40.5 -23 -55.5
s-34 -22.5 -56 -22.5h-49c-68.667 0 -137 26 -205 78c-29.333 22.667 -58 56.334 -86 101.001c-53.333 -59.333 -112.166 -107.5 -176.499 -144.5s-140.166 -65.833 -227.499 -86.5l1 1c-74.667 -15.333 -146.334 -23 -215.001 -23c-43.333 0 -86 3 -128 9l15 83z
M216.999 1648.99c36.667 0 80.833 -10.502 132.5 -31.502s95.167 -31.5 130.5 -31.5c49.333 0 95.666 30.667 138.999 92c13.333 -8 30 -18.833 50 -32.5s36 -24.167 48 -31.5c-12.667 -25.333 -33.334 -49.666 -62.001 -72.999s-59 -42.333 -91 -57
c-26.667 -12 -56 -18 -88 -18h-7c-25.333 0.666992 -50.166 4.33398 -74.499 11.001s-49.833 15.167 -76.5 25.5s-47.667 17.5 -63 21.5c-13.333 3.33301 -26.333 5 -39 5c-25.333 0 -44.333 -6 -57 -18c-29.333 -26 -51 -62 -65 -108l-112 35
c12 38.667 25.333 69.667 40 93h-1c40.667 66 92.334 104.333 155.001 115l21 3h20z" />
    <glyph glyph-name="uniFEF7" unicode="&#xfedf;&#xfe84;" horiz-adv-x="1247" arabic-form="isolated" 
d="M1005 1505c42 -273.333 75.334 -578.333 100.001 -915v-1c0.666992 -3.33301 1 -8.33301 1 -15v-14c0 -117.333 -32.667 -232 -98 -344c-72 -122.667 -208.667 -207 -410 -253l1 1c-74.667 -15.333 -146.334 -23 -215.001 -23c-43.333 0 -86 3 -128 9
c3.33301 20.667 8.16602 47.5 14.499 80.5s10.833 57.5 13.5 73.5c20 -4 52.667 -6 98 -6c62 0 129 8 201 24c-25.333 134.667 -78 290 -158 466c-55.333 121.333 -129.666 259.333 -222.999 414c-62 102.667 -112.333 181.667 -151 237l130 91
c192.667 -279.333 338.667 -543.333 438 -792c51.333 -129.333 89.333 -250.333 114 -363c47.333 30.667 89.333 72.667 126 126s62.667 110.333 78 171c8 30.667 12 59 12 85c0 10 -0.333008 17.333 -1 22l-50.5 455l-50.5 455l79 8zM-29.999 1359l-19 34.999
c-7.33301 14 -13.666 25.333 -18.999 34l188 105c-29.333 12.667 -56.333 29.834 -81 51.501s-42.667 45.5 -54 71.5c-8.66699 20 -13 43.333 -13 70c0 44 12 81.833 36 113.5s54.333 55.167 91 70.5c30 12 61.333 18 94 18c40 0 76 -5.33301 108 -16l-23 -72
c-6 0.666992 -14.5 2 -25.5 4s-21.333 3.5 -31 4.5s-19.167 1.5 -28.5 1.5c-40 0 -73.833 -11.333 -101.5 -34s-41.5 -52.667 -41.5 -90c0 -30 9.83301 -55 29.5 -75s43.5 -35 71.5 -45c13.333 -4.66699 28 -7 44 -7c13.333 0 28.666 2.66699 45.999 8l-1 -1
c25.333 8 70 31.667 134 71l47 -62c-36 -24 -113.667 -69 -233 -135z" />
    <glyph glyph-name="uniFEF8" unicode="&#xfee0;&#xfe84;" horiz-adv-x="1470" arabic-form="final" 
d="M412 109c20 -4 52.666 -6.00586 97.999 -6.00586c62 0 129 8 201 24c-25.333 138.667 -79 295.334 -161 470.001c-104 222.667 -227.333 438 -370 646l129 92c84 -121.333 165.333 -252.166 244 -392.499s143.334 -273.166 194.001 -398.499
c50.667 -126.667 88.667 -247.334 114 -362.001c94 52.667 156 119.334 186 200.001c10 26.667 15 54.667 15 84v16c0 2.66699 -0.666992 7.33398 -2 14.001c-16.667 252.667 -41.334 544.667 -74.001 876c-4 40 -7 72 -9 96l-3 24l158 17c0 -1.33301 2 -19 6 -53
c25.333 -213.333 54 -563.333 86 -1050c4.66699 -50 13.667 -89.667 27 -119s35.333 -53.333 66 -72v-1c32 -18.667 67.667 -30.667 107 -36h4h2l1 -1l30 -1h9c21.333 0 39.833 -7.66699 55.5 -23s23.5 -33.666 23.5 -54.999c0 -22 -7.66699 -40.5 -23 -55.5
s-34 -22.5 -56 -22.5h-49c-68.667 0 -137 26 -205 78c-29.333 22.667 -58 56.334 -86 101.001c-53.333 -59.333 -112.166 -107.5 -176.499 -144.5s-140.166 -65.833 -227.499 -86.5l1 1c-74.667 -15.333 -146.334 -23 -215.001 -23c-43.333 0 -86 3 -128 9l15 83z
M67.999 1389.99l-18.999 34.499l-19 34.5l188 105c-29.333 12.667 -56.333 29.834 -81 51.501s-42.667 45.5 -54 71.5c-8.66699 20 -13 43.333 -13 70c0 44 12 81.833 36 113.5s54.333 55.167 91 70.5c30 12 61.333 18 94 18c40 0 76 -5.33301 108 -16l-23 -72
c-6 0.666992 -14.5 2 -25.5 4s-21.333 3.5 -31 4.5s-19.167 1.5 -28.5 1.5c-40 0 -73.833 -11.333 -101.5 -34s-41.5 -52.667 -41.5 -90c0 -30 9.83301 -55 29.5 -75s43.5 -35 71.5 -45c13.333 -4.66699 28 -7 44 -7c13.333 0 28.666 2.66699 45.999 8l-1 -1
c25.333 8 70 31.667 134 71l47 -62c-36 -24 -113.667 -69 -233 -135z" />
    <glyph glyph-name="uniFEF9" unicode="&#xfedf;&#xfe88;" horiz-adv-x="1247" arabic-form="isolated" 
d="M1005 1505c42 -273.333 75.334 -578.333 100.001 -915v-1c0.666992 -3.33301 1 -8.33301 1 -15v-14c0 -117.333 -32.667 -232 -98 -344c-72 -122.667 -208.667 -207 -410 -253l1 1c-74.667 -15.333 -146.334 -23 -215.001 -23c-43.333 0 -86 3 -128 9
c3.33301 20.667 8.16602 47.5 14.499 80.5s10.833 57.5 13.5 73.5c20 -4 52.667 -6 98 -6c62 0 129 8 201 24c-25.333 134.667 -78 290 -158 466c-55.333 121.333 -129.666 259.333 -222.999 414c-62 102.667 -112.333 181.667 -151 237l130 91
c192.667 -279.333 338.667 -543.333 438 -792c51.333 -129.333 89.333 -250.333 114 -363c47.333 30.667 89.333 72.667 126 126s62.667 110.333 78 171c8 30.667 12 59 12 85c0 10 -0.333008 17.333 -1 22l-50.5 455l-50.5 455l79 8zM471.001 -752l-18.999 34.499l-19 34.5
l188 105c-29.333 12.667 -56.333 29.834 -81 51.501s-42.667 45.5 -54 71.5c-8.66699 20 -13 43.333 -13 70c0 44 12 81.833 36 113.5s54.333 55.167 91 70.5c30 12 61.333 18 94 18c40 0 76 -5.33301 108 -16l-23 -72c-6 0.666992 -14.5 2 -25.5 4s-21.333 3.5 -31 4.5
s-19.167 1.5 -28.5 1.5c-40 0 -73.833 -11.333 -101.5 -34s-41.5 -52.667 -41.5 -90c0 -30 9.83301 -55 29.5 -75s43.5 -35 71.5 -45c13.333 -4.66699 28 -7 44 -7c13.333 0 28.666 2.66699 45.999 8l-1 -1c25.333 8 70 31.667 134 71l47 -62
c-36 -24 -113.667 -69 -233 -135z" />
    <glyph glyph-name="uniFEFA" unicode="&#xfee0;&#xfe88;" horiz-adv-x="1470" arabic-form="final" 
d="M412 109c20 -4 52.666 -6.00586 97.999 -6.00586c62 0 129 8 201 24c-25.333 138.667 -79 295.334 -161 470.001c-104 222.667 -227.333 438 -370 646l129 92c84 -121.333 165.333 -252.166 244 -392.499s143.334 -273.166 194.001 -398.499
c50.667 -126.667 88.667 -247.334 114 -362.001c94 52.667 156 119.334 186 200.001c10 26.667 15 54.667 15 84v16c0 2.66699 -0.666992 7.33398 -2 14.001c-16.667 252.667 -41.334 544.667 -74.001 876c-4 40 -7 72 -9 96l-3 24l158 17c0 -1.33301 2 -19 6 -53
c25.333 -213.333 54 -563.333 86 -1050c4.66699 -50 13.667 -89.667 27 -119s35.333 -53.333 66 -72v-1c32 -18.667 67.667 -30.667 107 -36h4h2l1 -1l30 -1h9c21.333 0 39.833 -7.66699 55.5 -23s23.5 -33.666 23.5 -54.999c0 -22 -7.66699 -40.5 -23 -55.5
s-34 -22.5 -56 -22.5h-49c-68.667 0 -137 26 -205 78c-29.333 22.667 -58 56.334 -86 101.001c-53.333 -59.333 -112.166 -107.5 -176.499 -144.5s-140.166 -65.833 -227.499 -86.5l1 1c-74.667 -15.333 -146.334 -23 -215.001 -23c-43.333 0 -86 3 -128 9l15 83z
M622.999 -710.006c-5.33301 8.66699 -11.8311 19.999 -19.498 33.999s-13.834 25.667 -18.501 35l188 105c-29.333 12.667 -56.333 29.834 -81 51.501s-42.667 45.5 -54 71.5c-8.66699 20 -13 43.333 -13 70c0 44 12 81.833 36 113.5s54.333 55.167 91 70.5
c30 12 61.333 18 94 18c40 0 76 -5.33301 108 -16l-23 -72c-6 0.666992 -14.5 2 -25.5 4s-21.333 3.5 -31 4.5s-19.167 1.5 -28.5 1.5c-40 0 -73.833 -11.333 -101.5 -34s-41.5 -52.667 -41.5 -90c0 -30 9.83301 -55 29.5 -75s43.5 -35 71.5 -45
c13.333 -4.66699 28 -7 44 -7c13.333 0 28.666 2.66699 45.999 8l-1 -1c25.333 8 70 31.667 134 71l47 -62c-36 -24 -113.667 -69 -233 -135z" />
    <glyph glyph-name="uniFEFB" unicode="&#xfedf;&#xfe8e;" horiz-adv-x="1187" arabic-form="isolated" 
d="M1005 1505c42 -273.333 75.334 -578.333 100.001 -915v-1c0.666992 -3.33301 1 -8.33301 1 -15v-14c0 -117.333 -32.667 -232 -98 -344c-72 -122.667 -208.667 -207 -410 -253l1 1c-74.667 -15.333 -146.334 -23 -215.001 -23c-43.333 0 -86 3 -128 9
c3.33301 20.667 8.16602 47.5 14.499 80.5s10.833 57.5 13.5 73.5c20 -4 52.667 -6 98 -6c62 0 129 8 201 24c-25.333 134.667 -78 290 -158 466c-55.333 121.333 -129.666 259.333 -222.999 414c-62 102.667 -112.333 181.667 -151 237l130 91
c192.667 -279.333 338.667 -543.333 438 -792c51.333 -129.333 89.333 -250.333 114 -363c47.333 30.667 89.333 72.667 126 126s62.667 110.333 78 171c8 30.667 12 59 12 85c0 10 -0.333008 17.333 -1 22l-50.5 455l-50.5 455l79 8z" />
    <glyph glyph-name="uniFEFC" unicode="&#xfee0;&#xfe8e;" horiz-adv-x="1461" arabic-form="final" 
d="M412 109c20 -4 52.666 -6.00586 97.999 -6.00586c62 0 129 8 201 24c-25.333 138.667 -79 295.334 -161 470.001c-104 222.667 -227.333 438 -370 646l129 92c84 -121.333 165.333 -252.166 244 -392.499s143.334 -273.166 194.001 -398.499
c50.667 -126.667 88.667 -247.334 114 -362.001c94 52.667 156 119.334 186 200.001c10 26.667 15 54.667 15 84v16c0 2.66699 -0.666992 7.33398 -2 14.001c-16.667 252.667 -41.334 544.667 -74.001 876c-4 40 -7 72 -9 96l-3 24l158 17c0 -1.33301 2 -19 6 -53
c25.333 -213.333 54 -563.333 86 -1050c4.66699 -50 13.667 -89.667 27 -119s35.333 -53.333 66 -72v-1c32 -18.667 67.667 -30.667 107 -36h4h2l1 -1l30 -1h9c21.333 0 39.833 -7.66699 55.5 -23s23.5 -33.666 23.5 -54.999c0 -22 -7.66699 -40.5 -23 -55.5
s-34 -22.5 -56 -22.5h-49c-68.667 0 -137 26 -205 78c-29.333 22.667 -58 56.334 -86 101.001c-53.333 -59.333 -112.166 -107.5 -176.499 -144.5s-140.166 -65.833 -227.499 -86.5l1 1c-74.667 -15.333 -146.334 -23 -215.001 -23c-43.333 0 -86 3 -128 9l15 83z" />
    <glyph glyph-name="uni06440671.isol" unicode="&#xfedf;&#xfb51;" horiz-adv-x="1247" 
d="M1005 1505c42 -273.333 75.334 -578.333 100.001 -915v-1c0.666992 -3.33301 1 -8.33301 1 -15v-14c0 -117.333 -32.667 -232 -98 -344c-72 -122.667 -208.667 -207 -410 -253l1 1c-74.667 -15.333 -146.334 -23 -215.001 -23c-43.333 0 -86 3 -128 9
c3.33301 20.667 8.16602 47.5 14.499 80.5s10.833 57.5 13.5 73.5c20 -4 52.667 -6 98 -6c62 0 129 8 201 24c-25.333 134.667 -78 290 -158 466c-55.333 121.333 -129.666 259.333 -222.999 414c-62 102.667 -112.333 181.667 -151 237l130 91
c192.667 -279.333 338.667 -543.333 438 -792c51.333 -129.333 89.333 -250.333 114 -363c47.333 30.667 89.333 72.667 126 126s62.667 110.333 78 171c8 30.667 12 59 12 85c0 10 -0.333008 17.333 -1 22l-50.5 455l-50.5 455l79 8zM304.001 1485
c138.667 0 211 33.666 217 100.999c0 20.667 -7.83301 36.834 -23.5 48.501s-34.5 17.5 -56.5 17.5c-44.667 0 -84 -16.5 -118 -49.5s-60.667 -71.167 -80 -114.5c18 -2 38.333 -3 61 -3zM445.001 1717c41.333 0 75.665 -13.165 102.998 -39.498s41 -59.833 41 -100.5
c0 -34 -14.833 -63.333 -44.5 -88s-65.167 -42.5 -106.5 -53.5s-84.666 -16.5 -129.999 -16.5c-49.333 0 -88.5 4.33301 -117.5 13s-52.167 25.334 -69.5 50.001c-9.33301 6.66699 -20.666 10 -33.999 10c-25.333 0 -58.666 -13.667 -99.999 -41l-18 68
c46.667 24.667 87 37 121 37c38.667 0 68.667 -15 90 -45c14.667 27.333 29.167 51.166 43.5 71.499s32.333 41.666 54 63.999s46.667 39.666 75 51.999s59.166 18.5 92.499 18.5z" />
    <glyph glyph-name="uni06440671.fina" unicode="&#xfee0;&#xfb51;" horiz-adv-x="1470" 
d="M412 109c20 -4 52.666 -6.00586 97.999 -6.00586c62 0 129 8 201 24c-25.333 138.667 -79 295.334 -161 470.001c-104 222.667 -227.333 438 -370 646l129 92c84 -121.333 165.333 -252.166 244 -392.499s143.334 -273.166 194.001 -398.499
c50.667 -126.667 88.667 -247.334 114 -362.001c94 52.667 156 119.334 186 200.001c10 26.667 15 54.667 15 84v16c0 2.66699 -0.666992 7.33398 -2 14.001c-16.667 252.667 -41.334 544.667 -74.001 876c-4 40 -7 72 -9 96l-3 24l158 17c0 -1.33301 2 -19 6 -53
c25.333 -213.333 54 -563.333 86 -1050c4.66699 -50 13.667 -89.667 27 -119s35.333 -53.333 66 -72v-1c32 -18.667 67.667 -30.667 107 -36h4h2l1 -1l30 -1h9c21.333 0 39.833 -7.66699 55.5 -23s23.5 -33.666 23.5 -54.999c0 -22 -7.66699 -40.5 -23 -55.5
s-34 -22.5 -56 -22.5h-49c-68.667 0 -137 26 -205 78c-29.333 22.667 -58 56.334 -86 101.001c-53.333 -59.333 -112.166 -107.5 -176.499 -144.5s-140.166 -65.833 -227.499 -86.5l1 1c-74.667 -15.333 -146.334 -23 -215.001 -23c-43.333 0 -86 3 -128 9l15 83z
M372.999 1502.99c138.667 0 211 33.666 217 100.999c0 20.667 -7.83301 36.834 -23.5 48.501s-34.5 17.5 -56.5 17.5c-44.667 0 -84 -16.5 -118 -49.5s-60.667 -71.167 -80 -114.5c18 -2 38.333 -3 61 -3zM513.999 1734.99c41.333 0 75.665 -13.165 102.998 -39.498
s41 -59.833 41 -100.5c0 -34 -14.833 -63.333 -44.5 -88s-65.167 -42.5 -106.5 -53.5s-84.666 -16.5 -129.999 -16.5c-49.333 0 -88.5 4.33301 -117.5 13s-52.167 25.334 -69.5 50.001c-9.33301 6.66699 -20.666 10 -33.999 10c-25.333 0 -58.666 -13.667 -99.999 -41
l-18 68c46.667 24.667 87 37 121 37c38.667 0 68.667 -15 90 -45c14.667 27.333 29.167 51.166 43.5 71.499s32.333 41.666 54 63.999s46.667 39.666 75 51.999s59.166 18.5 92.499 18.5z" />
    <glyph glyph-name="tooman" unicode="&#xfe97;&#xfeee;&#xfee3;&#xfe8e;&#x646;" horiz-adv-x="4519" 
d="M4383 1219l-145 -146l-148 148l146 146zM4028 1221l-146 -146l-148 147l146 147zM3509 670c-47.333 0 -93 -35.332 -137 -105.999c-43.333 -68 -65 -135.333 -65 -202c0 -40 11.667 -75.333 35 -106v1c13.333 -18 31.333 -32.667 54 -44s50.667 -19.333 84 -24
s62.833 -7.66699 88.5 -9s58.834 -2 99.5 -2c37.333 0 75 1.66699 113 5c-6 131.333 -37 245.666 -93 342.999c-31.333 55.333 -66.666 95.333 -106 120c-24.667 16 -49 24 -73 24zM2774 186.001c40.667 0 69.834 17.8311 87.5 53.498
c17.667 35.667 26.5 79.834 26.5 132.501c0 102 -32.667 180.667 -98 236c-30 26 -63 39 -99 39c-16 0 -30 -3.66699 -42 -11c-25.333 -15.333 -52 -49.333 -80 -102c-19.333 -35.333 -35 -65.666 -47 -90.999l-62 -124c85.333 -62 169.333 -103.333 252 -124
c24 -6 44.667 -9 62 -9zM260 149.999c0 -146.667 42.333 -257.336 127 -332.003s203.667 -114.334 357 -119.001c3.33301 0 8.5 -0.166992 15.5 -0.5s12.167 -0.5 15.5 -0.5c126 0 231.5 26.333 316.5 79s145.833 126 182.5 220c25.333 64.667 38 136.334 38 215.001
c0 176.667 -51 348.334 -153 515.001l139 89c79.333 -118.667 133.333 -270.667 162 -456c7.33301 -48 11 -95.667 11 -143c0 -163.333 -39.167 -298.666 -117.5 -405.999s-184.5 -184.333 -318.5 -231c-80 -27.333 -165.667 -41 -257 -41c-4 0 -10 0.166992 -18 0.5
s-14.333 0.5 -19 0.5c-150.667 2.66699 -277 34.667 -379 96s-174.333 148 -217 260c-29.333 76.667 -44 163.334 -44 260.001c0 200.667 54.333 391.667 163 573l128 -94c-54 -86 -93.333 -197.667 -118 -335c-9.33301 -52 -14 -102 -14 -150zM933 784.997l-147 -147
l-148 148l147 147zM4004 175.997c63.333 3.33301 115.166 14.998 155.5 34.998s70.834 51.333 91.5 94c10.666 21.333 16 50.666 16 87.999c0 36 -6.33398 82.833 -19 140.5s-27.666 107.167 -45 148.5c-4.66602 10.667 -11 26 -19 46l-22 54l-19 44l142 71
c64 -144 106 -268 126 -372c8.66602 -45.333 13 -88.666 13 -129.999c0 -115.333 -41 -208.333 -123 -279c-56.666 -50 -136.666 -80.333 -240 -91c-10 -3.33301 -19.333 -5 -28 -5h-73h-34c-36 -185.333 -132 -342.666 -288 -471.999
c-142.667 -118 -312.334 -193.667 -509 -227l-37 154c194 42.667 354.667 117.667 482 225c116.667 98.667 183.667 205.334 201 320.001h-77c-64 0 -116.333 1.66699 -157 5c-138 8.66699 -240 53.667 -306 135v-1c-40.667 52 -61 118.667 -61 200
c0 124.667 39 240.667 117 348c65.333 80 138 120 218 120c88.667 0 170.667 -40.667 246 -122v1c55.333 -64 99.333 -141.333 132 -232s50 -190 52 -298h65zM2001 175.995c77.333 3.33301 140.333 23.5 189 60.5s90.667 87.5 126 151.5l64.5 122.5l53.5 103.5
c18.667 34.667 37.667 63.667 57 87c56.667 68.667 124.334 103 203 103c66.667 0 125.667 -19.167 177 -57.5s90.166 -88.833 116.5 -151.5c26.333 -62.667 39.5 -131.667 39.5 -207c0 -124.667 -34.333 -221.334 -103 -290.001c-45.333 -45.333 -104.666 -68 -177.999 -68
c-50 0 -105 12 -165 36c-63.333 25.333 -134 66.333 -212 123c-2.66699 -2.66699 -6 -5.83398 -10 -9.50098s-7 -6.5 -9 -8.5c-86 -86.667 -187.667 -136 -305 -148c-8 -2 -15.667 -3 -23 -3h-22h-17c-4 0 -9.33301 0.666992 -16 2
c-109.333 6.66699 -193.333 39.334 -252 98.001c-54 54 -81 140.667 -81 260c2.66699 54 4 149 4 285v129c0 186.667 -7 375.334 -21 566.001c-2.66699 38 -6.66699 72 -12 102l156 28c22 -136 33 -358.667 33 -668v-40c0 -16.667 0.166992 -40.334 0.5 -71.001
s0.5 -52.667 0.5 -66c0 -18 -0.166992 -42.667 -0.5 -74s-0.5 -53.666 -0.5 -66.999c0 -56 -0.333008 -98 -1 -126v-17c0 -34.667 2.16699 -61.5 6.5 -80.5s14.166 -35.5 29.499 -49.5c32 -32 89.333 -50.333 172 -55z" />
    <glyph glyph-name="uni0621" unicode="&#x621;" horiz-adv-x="1019" arabic-form="isolated" 
d="M448 147c-45.333 27.333 -83.1689 62.665 -113.502 105.998s-45.5 93 -45.5 149c0 70 21.5 129 64.5 177s96.833 80.333 161.5 97c24 6.66699 49.667 10 77 10c50.667 0 115 -15.667 193 -47c4.66699 -2 8.33398 -3.33301 11.001 -4l-51 -105
c-56.667 25.333 -111.667 38 -165 38c-58 0 -104 -21.333 -138 -64c-23.333 -29.333 -35 -62.333 -35 -99c0 -35.333 10.167 -66.666 30.5 -93.999s45.166 -49 74.499 -65c27.333 -14.667 54 -22 80 -22c1.33301 0 3.83301 -0.166992 7.5 -0.5s6.5 -0.5 8.5 -0.5
c28.667 0 59.334 4.66699 92.001 14s56.334 17.333 71.001 24s39 18.334 73 35.001l17 -33l19.5 -36.5l17.5 -32.5c-32 -17.333 -89.333 -41.333 -172 -72l-251.5 -94l-262.5 -98l-40 112z" />
    <glyph glyph-name="uni0622" unicode="&#x622;" horiz-adv-x="623" arabic-form="isolated" 
d="M470 607c0 -201.333 -6.33301 -399.003 -19 -593.003l-157 9c12.667 192 19 388.667 19 590c0 188.667 -9.66699 412.334 -29 671.001c-6 78.667 -12.667 145.334 -20 200.001c14.667 2.66699 66 8.33398 154 17.001c34.667 -262.667 52 -560.667 52 -894zM223 1870
c36.667 0 80.832 -10.502 132.499 -31.502s95.167 -31.5 130.5 -31.5c49.333 0 95.666 30.667 138.999 92c13.333 -8 30 -18.833 50 -32.5s36 -24.167 48 -31.5c-12.667 -25.333 -33.334 -49.666 -62.001 -72.999s-59 -42.333 -91 -57c-27.333 -12 -56.666 -18 -87.999 -18
h-7c-25.333 0.666992 -50.166 4.33398 -74.499 11.001s-49.833 15.167 -76.5 25.5s-47.667 17.5 -63 21.5c-13.333 3.33301 -26.333 5 -39 5c-25.333 0 -44.333 -6 -57 -18c-29.333 -26 -51 -62 -65 -108l-112 35c12 38.667 25.333 69.667 40 93h-1
c40.667 66 92.334 104.333 155.001 115l21 3h20z" />
    <glyph glyph-name="uni0623" unicode="&#x623;" horiz-adv-x="546" arabic-form="isolated" 
d="M397 607c0 -201.333 -6.33301 -399.003 -19 -593.003l-157 9c12.667 192 19 388.667 19 590c0 188.667 -9.66699 412.334 -29 671.001c-6 78.667 -12.667 145.334 -20 200.001c14.667 2.66699 66 8.33398 154 17.001c34.667 -262.667 52 -560.667 52 -894zM73 1536
l-19 34.999c-7.33301 14 -13.666 25.333 -18.999 34l188 105c-29.333 12.667 -56.333 29.834 -81 51.501s-42.667 45.5 -54 71.5c-8.66699 20 -13 43.333 -13 70c0 44 12 81.833 36 113.5s54.333 55.167 91 70.5c30 12 61.333 18 94 18c40 0 76 -5.33301 108 -16l-23 -72
c-6 0.666992 -14.5 2 -25.5 4s-21.333 3.5 -31 4.5s-19.167 1.5 -28.5 1.5c-40 0 -73.833 -11.333 -101.5 -34s-41.5 -52.667 -41.5 -90c0 -30 9.83301 -55 29.5 -75s43.5 -35 71.5 -45c13.333 -4.66699 28 -7 44 -7c13.333 0 28.666 2.66699 45.999 8l-1 -1
c25.333 8 70 31.667 134 71l47 -62c-36 -24 -113.667 -69 -233 -135z" />
    <glyph glyph-name="uni0624" unicode="&#x624;" horiz-adv-x="1043" arabic-form="isolated" 
d="M661 178c32.667 0 75.668 1.66309 129.001 4.99609c-4.66699 104.667 -23.834 198.334 -57.501 281.001s-81.167 143.334 -142.5 182.001c-24.667 16 -48.667 24 -72 24c-32 0 -64 -17.333 -96 -52c-70 -75.333 -105 -160.666 -105 -255.999
c0 -39.333 12 -74.666 36 -105.999v1c52.667 -52.667 129.667 -79 231 -79h77zM244.001 158.996c-40.667 52.667 -61.001 119.331 -61.001 199.998c0 52 11.667 114.333 35 187c39.333 120 101 203.333 185 250c37.333 20.667 75.666 31 114.999 31
c88.667 0 170.667 -40.667 246 -122v1c57.333 -64 102.333 -141.5 135 -232.5s49 -192.167 49 -303.5c0 -142.667 -38.667 -278 -116 -406c-53.333 -87.333 -121.666 -164 -204.999 -230s-177 -118.667 -281 -158c-66.667 -25.333 -136 -43.666 -208 -54.999l-37 154
c194 42.667 354.667 117.667 482 225c116.667 98.667 183.667 205.334 201 320.001h-77c-9.33301 -0.666992 -23.666 -1 -42.999 -1c-138.667 0 -250.667 22.333 -336 67c-36.667 19.333 -64.667 44 -84 74v-1zM314 1042.99c-38.667 16 -70.832 40.834 -96.499 74.501
s-38.5 73.5 -38.5 119.5c0 63.333 22.167 114.5 66.5 153.5s99.166 58.5 164.499 58.5c28 0 68 -6.33301 120 -19l-28 -92c-32 8.66699 -62.667 13 -92 13c-23.333 0 -44 -4 -62 -12v2c-19.333 -8 -36 -21.667 -50 -41s-21 -40.333 -21 -63c0 -10 2.66699 -22 8 -36l-1 1
c8.66699 -22.667 25 -42 49 -58s50.333 -24 79 -24c17.333 0 35.833 3.5 55.5 10.5s33.167 12.667 40.5 17l42 25.5c16 9.33301 30.333 19 43 29l59 -78l-41.5 -28.5c-13.667 -9 -30.5 -19.333 -50.5 -31l-42.5 -24.5l-56 -30.5c-29 -15.667 -46.167 -24.834 -51.5 -27.501
l-227 -126l-48 87z" />
    <glyph glyph-name="uni0625" unicode="&#x625;" horiz-adv-x="540" arabic-form="isolated" 
d="M377 607c0 -201.333 -6.33301 -399.003 -19 -593.003l-157 9c12.667 192 19 388.667 19 590c0 188.667 -9.66699 412.334 -29 671.001c-6 78.667 -12.667 145.334 -20 200.001c14.667 2.66699 66 8.33398 154 17.001c34.667 -262.667 52 -560.667 52 -894zM63 -691.003
c-4.66699 9.33301 -10.999 20.999 -18.999 34.999l-19 34l188 105c-29.333 12.667 -56.333 29.834 -81 51.501s-42.667 45.5 -54 71.5c-8.66699 20 -13 43.333 -13 70c0 44 12 81.833 36 113.5s54.333 55.167 91 70.5c30 12 61.333 18 94 18c40 0 76 -5.33301 108 -16
l-23 -72c-6 0.666992 -14.5 2 -25.5 4s-21.333 3.5 -31 4.5s-19.167 1.5 -28.5 1.5c-40 0 -73.833 -11.333 -101.5 -34s-41.5 -52.667 -41.5 -90c0 -30 9.83301 -55 29.5 -75s43.5 -35 71.5 -45c13.333 -4.66699 28 -7 44 -7c13.333 0 28.666 2.66699 45.999 8l-1 -1
c25.333 8 70 31.667 134 71l47 -62c-36 -24 -113.667 -69 -233 -135z" />
    <glyph glyph-name="uni0626" unicode="&#x626;" horiz-adv-x="1723" arabic-form="isolated" 
d="M1626 634c-44.667 16.667 -92.3359 24.999 -143.003 24.999c-28.667 0 -52.667 -2.33301 -72 -7c-80.667 -9.33301 -161 -56.666 -241 -141.999c-49.333 -53.333 -85 -111 -107 -173c-10.667 -30 -16 -60 -16 -90s5.83301 -56.5 17.5 -79.5s26.167 -41 43.5 -54
s39.5 -24.833 66.5 -35.5s52.167 -18.667 75.5 -24l82.5 -18.5c31.667 -7 56.834 -13.5 75.501 -19.5c58.667 -18.667 105 -44.5 139 -77.5s51 -79.833 51 -140.5c0 -18 -2 -39 -6 -63c-22.667 -129.333 -110.334 -231.333 -263.001 -306
c-145.333 -74.667 -326.666 -112 -543.999 -112c-120.667 0 -228.834 18 -324.501 54s-173.5 86.667 -233.5 152c-88 103.333 -132 229 -132 377c0 32.667 2.16699 66.334 6.5 101.001s8.33301 61.167 12 79.5s10.5 49.5 20.5 93.5c36 159.333 73.667 295 113 407
c2 -0.666992 28 -10 78 -28l75 -27c-61.333 -188 -106.666 -370.667 -135.999 -548c-3.33301 -38.667 -5 -64.667 -5 -78c0 -188.667 90.333 -314.667 271 -378c76 -26.667 161 -40 255 -40c188.667 0 343.667 29.333 465 88c56 26.667 99.333 57 130 91
c34 37.333 51 74 51 110c0 10 -2 19.5 -6 28.5s-10.5 16.833 -19.5 23.5s-17.667 12.5 -26 17.5s-19.333 9.83301 -33 14.5s-24.667 8.16699 -33 10.5s-20 5.33301 -35 9s-24.833 6.16699 -29.5 7.5c-25.333 6.66699 -44.333 12 -57 16l-54.5 17
c-23.667 7.33301 -42.167 14.166 -55.5 20.499l-49 24c-19.333 9.66699 -34.833 19.834 -46.5 30.501s-23.667 22.834 -36 36.501s-22.333 28.834 -30 45.501s-13.5 34.667 -17.5 54c-6.66699 31.333 -10 64.666 -10 99.999c0 134 46.667 258.333 140 373
c48 59.333 105.5 108.666 172.5 147.999s141.5 63.666 223.5 72.999c16.667 2 33.334 3 50.001 3c62.667 0 135.334 -14 218.001 -42l-37.5 -77zM503.998 829.999c-38.667 16 -70.832 40.834 -96.499 74.501s-38.5 73.5 -38.5 119.5c0 63.333 22.167 114.5 66.5 153.5
s99.166 58.5 164.499 58.5c28 0 68 -6.33301 120 -19l-28 -92c-32 8.66699 -62.667 13 -92 13c-23.333 0 -44 -4 -62 -12v2c-19.333 -8 -36 -21.667 -50 -41s-21 -40.333 -21 -63c0 -10 2.66699 -22 8 -36l-1 1c8.66699 -22.667 25 -42 49 -58s50.333 -24 79 -24
c17.333 0 35.833 3.5 55.5 10.5s33.167 12.667 40.5 17l42 25.5c16 9.33301 30.333 19 43 29l59 -78l-41.5 -28.5c-13.667 -9 -30.5 -19.333 -50.5 -31l-42.5 -24.5l-56 -30.5c-29 -15.667 -46.167 -24.834 -51.5 -27.501l-227 -126l-48 87z" />
    <glyph glyph-name="uni0627" unicode="&#x627;" horiz-adv-x="492" arabic-form="isolated" 
d="M368 604c0 -201.333 -6.33398 -398.998 -19.001 -592.998l-157 9c12.667 223.333 19 418.666 19 585.999c0 372 -17.333 680.333 -52 925l157 24c0 -12.667 1.83301 -31.334 5.5 -56.001l6.5 -44c18.667 -142 31.334 -371.333 38.001 -688c1.33301 -68 2 -122.333 2 -163
z" />
    <glyph glyph-name="uni0628" unicode="&#x628;" horiz-adv-x="1975" arabic-form="isolated" 
d="M1765 339c-1.33301 17.333 -3.83691 34.8311 -7.50391 52.498s-7.16699 33.667 -10.5 48s-8.5 30.833 -15.5 49.5s-12.5 33.834 -16.5 45.501s-10.833 27.167 -20.5 46.5l-21 42c-4.33301 8.66699 -12.166 23.167 -23.499 43.5s-18.666 33.166 -21.999 38.499
s-11.166 18.666 -23.499 39.999s-19.5 33.333 -21.5 36l133 86c101.333 -157.333 164.333 -309.666 189 -456.999c2.66699 -16 4 -33.333 4 -52c0 -35.333 -9 -64.666 -27 -87.999s-44 -46.333 -78 -69c-144.667 -82 -344.667 -138.333 -600 -169
c-68 -8 -130.333 -12 -187 -12h-19c-348 3.33301 -592.667 62 -734 176c-95.333 76.667 -143 174.667 -143 294c0 88 26.333 180.667 79 278c16 29.333 27.333 49 34 59l126 -94c-6.66699 -10 -12.834 -20.833 -18.501 -32.5l-19 -41l-18.5 -40.5
c-18.667 -47.333 -28 -90 -28 -128c0 -45.333 9.33301 -82.166 28 -110.499s46.334 -53.833 83.001 -76.5c132.667 -84 336.334 -126 611.001 -126c319.333 0 575 53.667 767 161zM1158 -361.002l-147 -147l-148 148l147 147z" />
    <glyph glyph-name="uni0629" unicode="&#x629;" horiz-adv-x="1020" arabic-form="isolated" 
d="M426 842l-74.999 68.002l107 114c80 -71.333 151.333 -141 214 -209c77.333 -88.667 136.333 -173.334 177 -254.001c40.667 -81.333 61 -154 61 -218c0 -172 -97 -278.333 -291 -319c-26.667 -5.33301 -59 -8 -97 -8c-74 0 -141.333 14.667 -202 44
s-106.334 67.666 -137.001 114.999c-31.333 47.333 -47 103.333 -47 168c0 58 13.333 117 40 177c40 90 101.667 176.667 185 260zM278.001 344.002c0 -51.333 24.666 -92.332 73.999 -122.999s106 -46 170 -46c2 0 6 0.166992 12 0.5s11 0.5 15 0.5
c40.667 0 77.834 7.33301 111.501 22s60.5 34 80.5 58c17.333 20.667 26 48 26 82c0 46 -20.667 102 -62 168c-43.333 69.333 -97 138.666 -161 207.999l-18 20l-16 -15c-92 -78 -161 -167 -207 -267c-16.667 -36 -25 -72 -25 -108zM428 1360l-146 -146l-148 147l146 147z
M783 1358l-145 -146l-148 148l146 146z" />
    <glyph glyph-name="uni062A" unicode="&#x62a;" horiz-adv-x="1948" arabic-form="isolated" 
d="M1745 339c-1.33301 17.333 -3.83691 34.8311 -7.50391 52.498s-7.16699 33.667 -10.5 48s-8.5 30.833 -15.5 49.5s-12.5 33.834 -16.5 45.501s-10.833 27.167 -20.5 46.5l-21 42c-4.33301 8.66699 -12.166 23.167 -23.499 43.5s-18.666 33.166 -21.999 38.499
s-11.166 18.666 -23.499 39.999s-19.5 33.333 -21.5 36l133 86c101.333 -157.333 164.333 -309.666 189 -456.999c2.66699 -16 4 -33.333 4 -52c0 -35.333 -9 -64.666 -27 -87.999s-44 -46.333 -78 -69c-144.667 -82 -344.667 -138.333 -600 -169
c-68 -8 -130.333 -12 -187 -12h-19c-348 3.33301 -592.667 62 -734 176c-95.333 76.667 -143 174.667 -143 294c0 88 26.333 180.667 79 278c16 29.333 27.333 49 34 59l126 -94c-6.66699 -10 -12.834 -20.833 -18.501 -32.5l-19 -41l-18.5 -40.5
c-18.667 -47.333 -28 -90 -28 -128c0 -45.333 9.33301 -82.166 28 -110.499s46.334 -53.833 83.001 -76.5c132.667 -84 336.334 -126 611.001 -126c319.333 0 575 53.667 767 161zM971.996 988.998l-146 -146l-148 147l146 147zM1327 986.998l-145 -146l-148 148l146 146z
" />
    <glyph glyph-name="uni062B" unicode="&#x62b;" horiz-adv-x="1964" arabic-form="isolated" 
d="M1752 339c-1.33301 17.333 -3.83691 34.8311 -7.50391 52.498s-7.16699 33.667 -10.5 48s-8.5 30.833 -15.5 49.5s-12.5 33.834 -16.5 45.501s-10.833 27.167 -20.5 46.5l-21 42c-4.33301 8.66699 -12.166 23.167 -23.499 43.5s-18.666 33.166 -21.999 38.499
s-11.166 18.666 -23.499 39.999s-19.5 33.333 -21.5 36l133 86c101.333 -157.333 164.333 -309.666 189 -456.999c2.66699 -16 4 -33.333 4 -52c0 -35.333 -9 -64.666 -27 -87.999s-44 -46.333 -78 -69c-144.667 -82 -344.667 -138.333 -600 -169
c-68 -8 -130.333 -12 -187 -12h-19c-348 3.33301 -592.667 62 -734 176c-95.333 76.667 -143 174.667 -143 294c0 88 26.333 180.667 79 278c16 29.333 27.333 49 34 59l126 -94c-6.66699 -10 -12.834 -20.833 -18.501 -32.5l-19 -41l-18.5 -40.5
c-18.667 -47.333 -28 -90 -28 -128c0 -45.333 9.33301 -82.166 28 -110.499s46.334 -53.833 83.001 -76.5c132.667 -84 336.334 -126 611.001 -126c319.333 0 575 53.667 767 161zM1058 967.998l146 146l148 -148l-146 -146zM651.996 968.998l146 147l148 -148l-146 -147z
M874.996 1259l132 132l133 -133l-132 -132z" />
    <glyph glyph-name="uni062C" unicode="&#x62c;" horiz-adv-x="1570" arabic-form="isolated" 
d="M316 676l-64.9961 42.4951l-64 41.5c88 136.667 188.333 228.667 301 276c43.333 18 89 27 137 27c101.333 0 201.666 -26.333 300.999 -79c32.667 -17.333 67.5 -38.333 104.5 -63s67.333 -46 91 -64l98.5 -76.5l89 -69.5c43.333 -32.667 86.666 -61.667 129.999 -87
l-63 -182c-56 6 -111 9 -165 9c-221.333 0 -420.333 -46.667 -597 -140c-138 -72.667 -237.333 -165 -298 -277c-30.667 -56 -48.334 -113.667 -53.001 -173v-9c0 -194 104.333 -330.667 313 -410c87.333 -33.333 186.333 -50 297 -50c103.333 0 196 14 278 42
s161 68.667 237 122l90 -129c-198.667 -132.667 -413 -199 -643 -199c-159.333 0 -296.5 30.833 -411.5 92.5s-200.5 147.5 -256.5 257.5c-38 74.667 -57 160.334 -57 257.001v21c0 140.667 52.333 271.334 157 392.001c96.667 110.667 223 195.834 379 255.501
s335 89.5 537 89.5h35c-34 18.667 -72.167 43.334 -114.5 74.001l-111 83.5c-31.667 25 -69.5 50.667 -113.5 77s-87.333 46.5 -130 60.5c-34 11.333 -70 17 -108 17c-38.667 0 -76 -8.66699 -112 -26s-64.333 -35.666 -85 -54.999s-43.334 -43.333 -68.001 -72
s-44.667 -54 -60 -76zM1034 -93.0049l-147 -147l-148 148l147 147z" />
    <glyph glyph-name="uni062D" unicode="&#x62d;" horiz-adv-x="1592" arabic-form="isolated" 
d="M310 676l-64.9961 42.4951l-64 41.5c88 136.667 188.333 228.667 301 276c43.333 18 89 27 137 27c101.333 0 201.666 -26.333 300.999 -79c32.667 -17.333 67.5 -38.333 104.5 -63s67.333 -46 91 -64l98.5 -76.5l89 -69.5c43.333 -32.667 86.666 -61.667 129.999 -87
l-63 -182c-56 6 -111 9 -165 9c-221.333 0 -420.333 -46.667 -597 -140c-138 -72.667 -237.333 -165 -298 -277c-30.667 -56 -48.334 -113.667 -53.001 -173v-9c0 -194 104.333 -330.667 313 -410c87.333 -33.333 186.333 -50 297 -50c103.333 0 196 14 278 42
s161 68.667 237 122l90 -129c-198.667 -132.667 -413 -199 -643 -199c-159.333 0 -296.5 30.833 -411.5 92.5s-200.5 147.5 -256.5 257.5c-38 74.667 -57 160.334 -57 257.001v21c0 140.667 52.333 271.334 157 392.001c96.667 110.667 223 195.834 379 255.501
s335 89.5 537 89.5h35c-34 18.667 -72.167 43.334 -114.5 74.001l-111 83.5c-31.667 25 -69.5 50.667 -113.5 77s-87.333 46.5 -130 60.5c-34 11.333 -70 17 -108 17c-38.667 0 -76 -8.66699 -112 -26s-64.333 -35.666 -85 -54.999s-43.334 -43.333 -68.001 -72
s-44.667 -54 -60 -76z" />
    <glyph glyph-name="uni062E" unicode="&#x62e;" horiz-adv-x="1570" arabic-form="isolated" 
d="M310 676l-64.9961 42.4951l-64 41.5c88 136.667 188.333 228.667 301 276c43.333 18 89 27 137 27c101.333 0 201.666 -26.333 300.999 -79c32.667 -17.333 67.5 -38.333 104.5 -63s67.333 -46 91 -64l98.5 -76.5l89 -69.5c43.333 -32.667 86.666 -61.667 129.999 -87
l-63 -182c-56 6 -111 9 -165 9c-221.333 0 -420.333 -46.667 -597 -140c-138 -72.667 -237.333 -165 -298 -277c-30.667 -56 -48.334 -113.667 -53.001 -173v-9c0 -194 104.333 -330.667 313 -410c87.333 -33.333 186.333 -50 297 -50c103.333 0 196 14 278 42
s161 68.667 237 122l90 -129c-198.667 -132.667 -413 -199 -643 -199c-159.333 0 -296.5 30.833 -411.5 92.5s-200.5 147.5 -256.5 257.5c-38 74.667 -57 160.334 -57 257.001v21c0 140.667 52.333 271.334 157 392.001c96.667 110.667 223 195.834 379 255.501
s335 89.5 537 89.5h35c-34 18.667 -72.167 43.334 -114.5 74.001l-111 83.5c-31.667 25 -69.5 50.667 -113.5 77s-87.333 46.5 -130 60.5c-34 11.333 -70 17 -108 17c-38.667 0 -76 -8.66699 -112 -26s-64.333 -35.666 -85 -54.999s-43.334 -43.333 -68.001 -72
s-44.667 -54 -60 -76zM754.004 1442l-147 -147l-148 148l147 147z" />
    <glyph glyph-name="uni062F" unicode="&#x62f;" horiz-adv-x="1127" arabic-form="isolated" 
d="M409 958l65.001 146c108 -58 216.333 -152.667 325 -284c64.667 -78 117.667 -161 159 -249c36 -74 54 -148.333 54 -223c0 -68.667 -18.667 -125 -56 -169c-87.333 -105.333 -224.333 -158 -411 -158c-106 0 -219.667 24.667 -341 74c-34.667 14 -60.334 28 -77.001 42
l67 153c120.667 -70.667 250.667 -106 390 -106c114.667 0 198 31.333 250 94c19.333 25.333 29 54 29 86c0 41.333 -13.667 90 -41 146c-41.333 84 -107.333 174 -198 270c-79.333 84.667 -151 144 -215 178z" />
    <glyph glyph-name="uni0630" unicode="&#x630;" horiz-adv-x="1111" arabic-form="isolated" 
d="M409 958l65.001 146c108 -58 216.333 -152.667 325 -284c64.667 -78 117.667 -161 159 -249c36 -74 54 -148.333 54 -223c0 -68.667 -18.667 -125 -56 -169c-87.333 -105.333 -224.333 -158 -411 -158c-106 0 -219.667 24.667 -341 74c-34.667 14 -60.334 28 -77.001 42
l67 153c120.667 -70.667 250.667 -106 390 -106c114.667 0 198 31.333 250 94c19.333 25.333 29 54 29 86c0 41.333 -13.667 90 -41 146c-41.333 84 -107.333 174 -198 270c-79.333 84.667 -151 144 -215 178zM609.001 1464l-147 -147l-148 148l147 147z" />
    <glyph glyph-name="uni0631" unicode="&#x631;" horiz-adv-x="757" arabic-form="isolated" 
d="M596 144c0 -6 0.501953 -14.6689 1.50195 -26.002s1.5 -20.666 1.5 -27.999c0 -158 -65 -308.667 -195 -452c-120.667 -132.667 -266.334 -241.667 -437.001 -327l-69 140c152 78 277.667 169.667 377 275c49.333 52 90 109.667 122 173
c30.667 60.667 46 124.334 46 191.001c0 14 -0.666992 28.167 -2 42.5s-3.5 29.666 -6.5 45.999s-5.5 29.5 -7.5 39.5s-5.33301 24.5 -10 43.5s-7.66699 31.833 -9 38.5c-20.667 89.333 -47 182 -79 278l152 47c59.333 -205.333 97.666 -365.666 114.999 -480.999z" />
    <glyph glyph-name="uni0632" unicode="&#x632;" horiz-adv-x="772" arabic-form="isolated" 
d="M596 144c0 -6 0.501953 -14.6689 1.50195 -26.002s1.5 -20.666 1.5 -27.999c0 -158 -65 -308.667 -195 -452c-120.667 -132.667 -266.334 -241.667 -437.001 -327l-69 140c152 78 277.667 169.667 377 275c49.333 52 90 109.667 122 173
c30.667 60.667 46 124.334 46 191.001c0 14 -0.666992 28.167 -2 42.5s-3.5 29.666 -6.5 45.999s-5.5 29.5 -7.5 39.5s-5.33301 24.5 -10 43.5s-7.66699 31.833 -9 38.5c-20.667 89.333 -47 182 -79 278l152 47c59.333 -205.333 97.666 -365.666 114.999 -480.999z
M545.002 1056l-147 -147l-148 148l147 147z" />
    <glyph glyph-name="uni0633" unicode="&#x633;" horiz-adv-x="2654" arabic-form="isolated" 
d="M2407 430c-5.33301 68.667 -18.4961 132.83 -39.4961 192.497s-48.833 123.834 -83.5 192.501l136 82c43.333 -74 81.666 -169.667 115 -287c18.667 -67.333 28 -132.333 28 -195c-3.33301 -183.333 -61.666 -303.666 -175 -360.999
c-41.333 -20.667 -89.666 -31 -144.999 -31c-59.333 0 -119 27.333 -179 82c-20 18 -38 39 -54 63c-38.667 -45.333 -81.334 -80 -128.001 -104s-103 -38 -169 -42h-11c-72 0 -141.667 28.333 -209 85c1.33301 -26.667 2 -46.334 2 -59.001
c0 -222 -72.333 -394.667 -217 -518c-133.333 -114 -295.666 -171 -486.999 -171c-10.667 0 -27.334 0.666992 -50.001 2c-130.667 0 -241.334 26.5 -332.001 79.5s-160.667 126.833 -210 221.5c-48 91.333 -72 200.333 -72 327c0 72.667 9 146 27 220
c29.333 116.667 76.333 227.667 141 333l65 -46l58 -40c-88 -142.667 -132 -305 -132 -487c0 -113.333 26 -206.333 78 -279s125 -123 219 -151c42.667 -12.667 94.334 -19 155.001 -19c75.333 3.33301 142.666 11.333 201.999 24s114.333 31.667 165 57
s92.667 57.166 126 95.499s59.333 85.833 78 142.5s28 121.667 28 195c0 99.333 -13.833 190.666 -41.5 273.999s-65.167 167 -112.5 251l138 78l24.5 -59l27 -63l27 -59c12.333 -26.667 22.666 -47 30.999 -61l33 -53c13.667 -21.333 26.667 -38.666 39 -51.999
s26.666 -27.166 42.999 -41.499s33.166 -26.5 50.499 -36.5c33.333 -19.333 70 -29.333 110 -30c40 2 73.167 11.833 99.5 29.5s46 42.5 59 74.5s22 65.333 27 100s7.5 76 7.5 124v122c22 2 51 5 87 9s62 6.66699 78 8c0.666992 -4 1 -10.667 1 -20v-21
c0 -150.667 21.667 -268 65 -352c28 -55.333 68 -83 120 -83c35.333 0 65.333 12.833 90 38.5s42 56.334 52 92.001s15 73.834 15 114.501v12z" />
    <glyph glyph-name="uni0634" unicode="&#x634;" horiz-adv-x="2681" arabic-form="isolated" 
d="M2407 430c-5.33301 68.667 -18.4961 132.83 -39.4961 192.497s-48.833 123.834 -83.5 192.501l136 82c43.333 -74 81.666 -169.667 115 -287c18.667 -67.333 28 -132.333 28 -195c-3.33301 -183.333 -61.666 -303.666 -175 -360.999
c-41.333 -20.667 -89.666 -31 -144.999 -31c-59.333 0 -119 27.333 -179 82c-20 18 -38 39 -54 63c-38.667 -45.333 -81.334 -80 -128.001 -104s-103 -38 -169 -42h-11c-72 0 -141.667 28.333 -209 85c1.33301 -26.667 2 -46.334 2 -59.001
c0 -222 -72.333 -394.667 -217 -518c-133.333 -114 -295.666 -171 -486.999 -171c-10.667 0 -27.334 0.666992 -50.001 2c-130.667 0 -241.334 26.5 -332.001 79.5s-160.667 126.833 -210 221.5c-48 91.333 -72 200.333 -72 327c0 72.667 9 146 27 220
c29.333 116.667 76.333 227.667 141 333l65 -46l58 -40c-88 -142.667 -132 -305 -132 -487c0 -113.333 26 -206.333 78 -279s125 -123 219 -151c42.667 -12.667 94.334 -19 155.001 -19c75.333 3.33301 142.666 11.333 201.999 24s114.333 31.667 165 57
s92.667 57.166 126 95.499s59.333 85.833 78 142.5s28 121.667 28 195c0 99.333 -13.833 190.666 -41.5 273.999s-65.167 167 -112.5 251l138 78l24.5 -59l27 -63l27 -59c12.333 -26.667 22.666 -47 30.999 -61l33 -53c13.667 -21.333 26.667 -38.666 39 -51.999
s26.666 -27.166 42.999 -41.499s33.166 -26.5 50.499 -36.5c33.333 -19.333 70 -29.333 110 -30c40 2 73.167 11.833 99.5 29.5s46 42.5 59 74.5s22 65.333 27 100s7.5 76 7.5 124v122c22 2 51 5 87 9s62 6.66699 78 8c0.666992 -4 1 -10.667 1 -20v-21
c0 -150.667 21.667 -268 65 -352c28 -55.333 68 -83 120 -83c35.333 0 65.333 12.833 90 38.5s42 56.334 52 92.001s15 73.834 15 114.501v12zM1952 1142l146 146l148 -148l-146 -146zM1546 1143l146 147l148 -148l-146 -147zM1769 1433l132 132l133 -133l-132 -132z" />
    <glyph glyph-name="uni0635" unicode="&#x635;" horiz-adv-x="2867" arabic-form="isolated" 
d="M1238 585c15.333 5.33301 39.833 14.668 73.5 28.001s57.834 22.666 72.501 27.999l37 -86.5c9.33301 -21 22.5 -48 39.5 -81s33 -60 48 -81s33.167 -42.667 54.5 -65s43.666 -40.5 66.999 -54.5c66.667 121.333 152.667 232.333 258 333v-1
c131.333 124.667 262 199 392 223c32 6 64.667 9 98 9h14c121.333 -2.66699 220 -45 296 -127c68.667 -68.667 103 -151.334 103 -248.001v-14c-10.667 -117.333 -55.167 -211.833 -133.5 -283.5s-178.166 -121.5 -299.5 -149.5c-84 -19.333 -163.333 -29 -238 -29h-23
c-122.667 0 -229.167 15 -319.5 45s-178.5 74.333 -264.5 133c0 -1.33301 0.166992 -4.66602 0.5 -9.99902s0.5 -10 0.5 -14v-32c0 -4 0.333008 -9.5 1 -16.5s1 -12.167 1 -15.5v-25c0 -166.667 -37.167 -304 -111.5 -412s-178.166 -184.333 -311.499 -229
c-78 -26 -163.667 -39 -257 -39c-115.333 0 -217.833 15.333 -307.5 46s-161.167 75.667 -214.5 135c-86.667 95.333 -130 218 -130 368v13c0 141.333 33.333 291 100 449c21.333 50.667 40 90 56 118l132 -85c-52.667 -98.667 -91.334 -211.667 -116.001 -339
c-10 -51.333 -15 -101.666 -15 -150.999c0 -264 165 -396 495 -396c149.333 0 269 38 359 114c109.333 101.333 164 234.666 164 399.999c0 49.333 -3.16699 98 -9.5 146s-17 98.167 -32 150.5s-27 92.333 -36 120s-23.5 69.5 -43.5 125.5zM1767 201.002
c103.333 -38 215.668 -56.999 337.001 -56.999c154 0 285.667 31.333 395 94c80.667 52.667 126 126 136 220v11c0 52 -19 96.167 -57 132.5s-82 59.833 -132 70.5c-24.667 5.33301 -47.667 8 -69 8c-40 0 -78.5 -5.33301 -115.5 -16s-71.667 -26 -104 -46
s-60.333 -39.333 -84 -58s-49.167 -41.334 -76.5 -68.001c-102.667 -98 -179.334 -195 -230.001 -291z" />
    <glyph glyph-name="uni0636" unicode="&#x636;" horiz-adv-x="2894" arabic-form="isolated" 
d="M1238 585c15.333 5.33301 39.833 14.668 73.5 28.001s57.834 22.666 72.501 27.999l37 -86.5c9.33301 -21 22.5 -48 39.5 -81s33 -60 48 -81s33.167 -42.667 54.5 -65s43.666 -40.5 66.999 -54.5c66.667 121.333 152.667 232.333 258 333v-1
c131.333 124.667 262 199 392 223c32 6 64.667 9 98 9h14c121.333 -2.66699 220 -45 296 -127c68.667 -68.667 103 -151.334 103 -248.001v-14c-10.667 -117.333 -55.167 -211.833 -133.5 -283.5s-178.166 -121.5 -299.5 -149.5c-84 -19.333 -163.333 -29 -238 -29h-23
c-122.667 0 -229.167 15 -319.5 45s-178.5 74.333 -264.5 133c0 -1.33301 0.166992 -4.66602 0.5 -9.99902s0.5 -10 0.5 -14v-32c0 -4 0.333008 -9.5 1 -16.5s1 -12.167 1 -15.5v-25c0 -166.667 -37.167 -304 -111.5 -412s-178.166 -184.333 -311.499 -229
c-78 -26 -163.667 -39 -257 -39c-115.333 0 -217.833 15.333 -307.5 46s-161.167 75.667 -214.5 135c-86.667 95.333 -130 218 -130 368v13c0 141.333 33.333 291 100 449c21.333 50.667 40 90 56 118l132 -85c-52.667 -98.667 -91.334 -211.667 -116.001 -339
c-10 -51.333 -15 -101.666 -15 -150.999c0 -264 165 -396 495 -396c149.333 0 269 38 359 114c109.333 101.333 164 234.666 164 399.999c0 49.333 -3.16699 98 -9.5 146s-17 98.167 -32 150.5s-27 92.333 -36 120s-23.5 69.5 -43.5 125.5zM1767 201.002
c103.333 -38 215.668 -56.999 337.001 -56.999c154 0 285.667 31.333 395 94c80.667 52.667 126 126 136 220v11c0 52 -19 96.167 -57 132.5s-82 59.833 -132 70.5c-24.667 5.33301 -47.667 8 -69 8c-40 0 -78.5 -5.33301 -115.5 -16s-71.667 -26 -104 -46
s-60.333 -39.333 -84 -58s-49.167 -41.334 -76.5 -68.001c-102.667 -98 -179.334 -195 -230.001 -291zM2421 1250l-147 -147l-148 148l147 147z" />
    <glyph glyph-name="uni0637" unicode="&#x637;" horiz-adv-x="1776" arabic-form="isolated" 
d="M754 868c0 -14 0.333984 -35.4961 1.00098 -64.4961s1 -52.167 1 -69.5c0 -12 0.5 -31.333 1.5 -58s1.5 -45 1.5 -55c178 170 339 265.667 483 287c22.667 4 45.667 6 69 6c71.333 0 135.333 -14.833 192 -44.5s101.667 -68.834 135 -117.501
c28.667 -41.333 44.334 -88.333 47.001 -141c0 -2 0.166992 -5.33301 0.5 -10s0.5 -8.33398 0.5 -11.001c0 -90.667 -28.667 -178 -86 -262c-52.667 -76.667 -127.667 -140.334 -225 -191.001c-148.667 -78 -321.667 -117 -519 -117c-29.333 0 -71.333 1.33301 -126 4h-4
c-196.667 10.667 -399.334 54.667 -608.001 132c8 19.333 17.833 44.666 29.5 75.999l26.5 71c84 -32 169.333 -58.333 256 -79c37.333 55.333 84.666 119.333 141.999 192c17.333 110.667 26 216.667 26 318c0 152.667 -15.333 362 -46 628c-10 91.333 -17 148.333 -21 171
l157 21c26.667 -200.667 48 -414 64 -640c1.33301 -18.667 2 -34 2 -46zM603.001 192.004c71.333 -6.66699 108.664 -9.99902 111.997 -9.99902h10c0.666992 0 2.33398 -0.166992 5.00098 -0.5s4.33398 -0.5 5.00098 -0.5l62 -2c14 -0.666992 35 -1 63 -1
c135.333 0 249.833 15.333 343.5 46s174.5 80 242.5 148c24.667 24.667 44.834 55.5 60.501 92.5s23.5 76.833 23.5 119.5c0 58 -20.667 100.833 -62 128.5s-95 41.5 -161 41.5c-18 0 -31.667 -0.666992 -41 -2c-68.667 -10.667 -145 -43.334 -229 -98.001
s-171 -132 -261 -232z" />
    <glyph glyph-name="uni0638" unicode="&#x638;" horiz-adv-x="1787" arabic-form="isolated" 
d="M754 868c0 -14 0.333984 -35.4961 1.00098 -64.4961s1 -52.167 1 -69.5c0 -12 0.5 -31.333 1.5 -58s1.5 -45 1.5 -55c178 170 339 265.667 483 287c22.667 4 45.667 6 69 6c71.333 0 135.333 -14.833 192 -44.5s101.667 -68.834 135 -117.501
c28.667 -41.333 44.334 -88.333 47.001 -141c0 -2 0.166992 -5.33301 0.5 -10s0.5 -8.33398 0.5 -11.001c0 -90.667 -28.667 -178 -86 -262c-52.667 -76.667 -127.667 -140.334 -225 -191.001c-148.667 -78 -321.667 -117 -519 -117c-29.333 0 -71.333 1.33301 -126 4h-4
c-196.667 10.667 -399.334 54.667 -608.001 132c8 19.333 17.833 44.666 29.5 75.999l26.5 71c84 -32 169.333 -58.333 256 -79c37.333 55.333 84.666 119.333 141.999 192c17.333 110.667 26 216.667 26 318c0 152.667 -15.333 362 -46 628c-10 91.333 -17 148.333 -21 171
l157 21c26.667 -200.667 48 -414 64 -640c1.33301 -18.667 2 -34 2 -46zM603.001 192.004c71.333 -6.66699 108.664 -9.99902 111.997 -9.99902h10c0.666992 0 2.33398 -0.166992 5.00098 -0.5s4.33398 -0.5 5.00098 -0.5l62 -2c14 -0.666992 35 -1 63 -1
c135.333 0 249.833 15.333 343.5 46s174.5 80 242.5 148c24.667 24.667 44.834 55.5 60.501 92.5s23.5 76.833 23.5 119.5c0 58 -20.667 100.833 -62 128.5s-95 41.5 -161 41.5c-18 0 -31.667 -0.666992 -41 -2c-68.667 -10.667 -145 -43.334 -229 -98.001
s-171 -132 -261 -232zM1446 1338l-147 -147l-148 148l147 147z" />
    <glyph glyph-name="uni0639" unicode="&#x639;" horiz-adv-x="1543" arabic-form="isolated" 
d="M1408 -581c-80 -64 -165.836 -112.333 -257.503 -145s-199.167 -49 -322.5 -49c-235.333 0 -422.666 75.333 -561.999 226c-94 100.667 -141 229.667 -141 387c0 262 133 467.333 399 616c28.667 16.667 62 33 100 49l56 19l-47 24
c-97.333 69.333 -146 168.666 -146 297.999c0 107.333 41 202 123 284c35.333 35.333 77.666 64.5 126.999 87.5s102 35.5 158 37.5c2.66699 0 6.33398 0.166992 11.001 0.5s8 0.5 10 0.5c60.667 0 124 -14.667 190 -44c66.667 -28.667 127.667 -68.667 183 -120l-99 -122
c-62 48 -125.333 84.667 -190 110c-32 12 -62 18 -90 18h-7c-49.333 -8 -92.5 -21.333 -129.5 -40s-67.667 -46.667 -92 -84s-36.5 -81.666 -36.5 -132.999c0 -54 15.167 -98.333 45.5 -133s68.5 -58.667 114.5 -72s100.333 -20 163 -20c79.333 0 186.333 17 321 51
c4.66699 -20 9.33398 -48.333 14.001 -85s8.33398 -62.667 11.001 -78l-120.5 -20c-60.333 -10 -105.5 -17.833 -135.5 -23.5l-116.5 -23c-47.667 -9.66699 -90 -20 -127 -31s-71.5 -23.167 -103.5 -36.5c-213.333 -88.667 -348 -213 -404 -373
c-16.667 -48 -25 -99.333 -25 -154c0 -132.667 51.667 -240.667 155 -324c48.667 -38.667 107 -69 175 -91s141.333 -33 220 -33c184.667 0 345.667 53 483 159z" />
    <glyph glyph-name="uni063A" unicode="&#x63a;" horiz-adv-x="1548" arabic-form="isolated" 
d="M1408 -581c-80 -64 -165.836 -112.333 -257.503 -145s-199.167 -49 -322.5 -49c-235.333 0 -422.666 75.333 -561.999 226c-94 100.667 -141 229.667 -141 387c0 262 133 467.333 399 616c28.667 16.667 62 33 100 49l56 19l-47 24
c-97.333 69.333 -146 168.666 -146 297.999c0 107.333 41 202 123 284c35.333 35.333 77.666 64.5 126.999 87.5s102 35.5 158 37.5c2.66699 0 6.33398 0.166992 11.001 0.5s8 0.5 10 0.5c60.667 0 124 -14.667 190 -44c66.667 -28.667 127.667 -68.667 183 -120l-99 -122
c-62 48 -125.333 84.667 -190 110c-32 12 -62 18 -90 18h-7c-49.333 -8 -92.5 -21.333 -129.5 -40s-67.667 -46.667 -92 -84s-36.5 -81.666 -36.5 -132.999c0 -54 15.167 -98.333 45.5 -133s68.5 -58.667 114.5 -72s100.333 -20 163 -20c79.333 0 186.333 17 321 51
c4.66699 -20 9.33398 -48.333 14.001 -85s8.33398 -62.667 11.001 -78l-120.5 -20c-60.333 -10 -105.5 -17.833 -135.5 -23.5l-116.5 -23c-47.667 -9.66699 -90 -20 -127 -31s-71.5 -23.167 -103.5 -36.5c-213.333 -88.667 -348 -213 -404 -373
c-16.667 -48 -25 -99.333 -25 -154c0 -132.667 51.667 -240.667 155 -324c48.667 -38.667 107 -69 175 -91s141.333 -33 220 -33c184.667 0 345.667 53 483 159zM1006 1725l-147 -147l-148 148l147 147z" />
    <glyph glyph-name="uni0641" unicode="&#x641;" horiz-adv-x="1953" arabic-form="isolated" 
d="M326 769c-29.333 -72.667 -44 -142.671 -44 -210.004c0 -62.667 14.333 -117.667 43 -165c48 -77.333 128.833 -134 242.5 -170s247.167 -54 400.5 -54h41c264.667 0 463.667 42.333 597 127c44 28 76.333 60.333 97 97c-49.333 -10.667 -98.666 -16 -147.999 -16
c-144.667 0 -255.667 41.333 -333 124c-38.667 44.667 -58 104.334 -58 179.001c0 72.667 13.333 140.667 40 204s61.334 115 104.001 155c50.667 48 106 72 166 72c82 0 157 -37.333 225 -112v-1c74 -81.333 125 -192.666 153 -333.999c8.66699 -44 13 -91 13 -141
c0 -51.333 -5.5 -98.166 -16.5 -140.499s-25.667 -79.5 -44 -111.5s-42.333 -60.667 -72 -86s-60.334 -46.666 -92.001 -63.999s-69.667 -32.333 -114 -45s-86.666 -22.5 -126.999 -29.5s-87.5 -12.5 -141.5 -16.5s-103.333 -6.66699 -148 -8s-96.334 -2 -155.001 -2
c-396.667 0 -652.334 98 -767.001 294c-42.667 73.333 -64 154.333 -64 243c0 106 21 201.667 63 287l69.5 -38zM1709 571.996c-16 78.667 -33.165 144.498 -51.498 197.498s-44.5 97.167 -78.5 132.5c-27.333 28.667 -61 46.334 -101 53.001
c-14 2.66699 -31.333 -3.66602 -52 -18.999c-32.667 -24 -61 -57.833 -85 -101.5s-36 -89.167 -36 -136.5c0 -30.667 6.5 -57.5 19.5 -80.5s31.167 -40.833 54.5 -53.5s49.166 -22 77.499 -28s59.166 -9 92.499 -9l70 4c37.333 4 68.333 9.33301 93 16zM1630 1464.99
l-147 -147l-148 148l147 147z" />
    <glyph glyph-name="uni0642" unicode="&#x642;" horiz-adv-x="1592" arabic-form="isolated" 
d="M265 -2c0 -150 46.668 -264.167 140.001 -342.5s218.666 -117.5 375.999 -117.5h18c123.333 0 231.666 48.667 324.999 146c83.333 87.333 139 198.666 167 333.999l-228 3c-144.667 10.667 -247 55.667 -307 135c-43.333 55.333 -65 120.333 -65 195
c0 68.667 11.167 133.334 33.5 194.001s51.5 113.334 87.5 158.001c63.333 80.667 135.666 121 216.999 121c51.333 0 96.333 -10.833 135 -32.5s75.667 -51.834 111 -90.501v1c56 -62.667 100.333 -140.167 133 -232.5s49 -193.5 49 -303.5c0 -20.667 -0.333008 -36 -1 -46
l-3 -45c0.666992 -0.666992 0.333984 -11.334 -0.999023 -32.001c-5.33301 -96 -36.333 -199 -93 -309c-121.333 -235.333 -319.333 -353 -594 -353c-192 0 -349.667 55 -473 165c-57.333 51.333 -102.666 115.166 -135.999 191.499s-50 162.833 -50 259.5
c0 19.333 1 39.666 3 60.999c10.667 145.333 58 299.333 142 462l68 -37.5c29.333 -16.333 53.333 -29.166 72 -38.499c-40 -77.333 -71 -151.166 -93 -221.499s-33 -145.166 -33 -224.499zM1184 175c40.667 0 79.668 1.33301 117.001 4c-4 104 -23 197.5 -57 280.5
s-81.333 143.833 -142 182.5c-24 15.333 -48.333 23 -73 23c-52.667 -5.33301 -98.334 -46.333 -137.001 -123c-34 -68 -51 -130.333 -51 -187c0 -42.667 9.66699 -75.667 29 -99v1c24 -33.333 62.667 -55.333 116 -66s119.333 -16 198 -16zM971.002 1166l-146 -146
l-148 147l146 147zM1326 1164l-145 -146l-148 148l146 146z" />
    <glyph glyph-name="uni0643" unicode="&#x643;" horiz-adv-x="2003" arabic-form="isolated" 
d="M1806 1490c24.667 -274 40.667 -569.334 48 -886.001c1.33301 -56 2 -88 2 -96c-3.33301 -106.667 -33.166 -192.5 -89.499 -257.5s-132.833 -116.833 -229.5 -155.5c-154.667 -57.333 -343.334 -86 -566.001 -86c-348 3.33301 -592.667 62 -734 176
c-95.333 76.667 -143 175 -143 295c0 88 26.333 180.667 79 278c16 30 27.333 49.667 34 59l126 -94c-1.33301 -2 -3 -4.33301 -5 -7l-2 -3c-2.66699 -6 -10 -21.167 -22 -45.5s-21 -43.833 -27 -58.5c-16.667 -44 -25 -86.667 -25 -128c0 -44.667 9.33301 -81 28 -109
s46 -54 82 -78c129.333 -84 332.333 -126 609 -126c81.333 0 155.666 3.16699 222.999 9.5s133.5 17.333 198.5 33s121.333 38.834 169 69.501s83.834 68 108.501 112c18 33.333 28 75 30 125c-14.667 424.667 -29 717.667 -43 879c-4.66699 49.333 -7 75.333 -7 78z
M829 399.999c-5.33301 8.66699 -11.832 20.166 -19.499 34.499l-18.5 34.5l188 105c-29.333 12.667 -56.333 29.834 -81 51.501s-42.667 45.5 -54 71.5c-8.66699 20 -13 43.333 -13 70c0 44 12 81.833 36 113.5s54.333 55.167 91 70.5c30 12 61.333 18 94 18
c40 0 76 -5.33301 108 -16l-23 -72c-6 0.666992 -14.5 2 -25.5 4s-21.333 3.5 -31 4.5s-19.167 1.5 -28.5 1.5c-40 0 -73.833 -11.333 -101.5 -34s-41.5 -52.667 -41.5 -90c0 -30 9.83301 -55 29.5 -75s43.5 -35 71.5 -45c13.333 -4.66699 28 -7 44 -7
c13.333 0 28.666 2.66699 45.999 8l-1 -1c25.333 8 70 31.667 134 71l47 -62c-36 -24 -113.667 -69 -233 -135z" />
    <glyph glyph-name="uni0644" unicode="&#x644;" horiz-adv-x="1472" arabic-form="isolated" 
d="M1086 1501c20.667 0.666992 47.1689 2 79.502 4s57.833 3.33301 76.5 4c9.33301 -203.333 24 -572.333 44 -1107c5.33301 -146 8 -284.667 8 -416c0 -142 -31 -260 -93 -354s-147.333 -164 -256 -210c-90.667 -38.667 -183.334 -58 -278.001 -58h-17
c-141.333 0 -268 45.667 -380 137c-122.667 99.333 -184 234.666 -184 405.999v11c3.33301 207.333 39.666 366 108.999 476l143 -64c-64 -129.333 -96 -266.666 -96 -411.999c0 -162.667 74.333 -280 223 -352c62.667 -30.667 122.667 -46 180 -46h16
c88 0 166 17.833 234 53.5s123 83.167 165 142.5c52 74 78 164 78 270c0 352.667 -17.333 857.667 -52 1515z" />
    <glyph glyph-name="uni0645" unicode="&#x645;" horiz-adv-x="1178" arabic-form="isolated" 
d="M293 406c20.667 0 50.999 -5.33203 90.999 -15.999c21.333 64.667 49.5 128.334 84.5 191.001s70.5 112.667 106.5 150c60.667 60 125.667 90 195 90h10c99.333 -4 176.333 -38.833 231 -104.5s86.667 -151.834 96 -258.501c0.666992 -4.66699 1 -12 1 -22v-21
c0 -66 -9.5 -126.333 -28.5 -181s-45.5 -98 -79.5 -130c-20 -18.667 -38.5 -32.167 -55.5 -40.5s-37.5 -12.5 -61.5 -12.5c-12.667 0 -25.667 0.833008 -39 2.5s-24.666 3.5 -33.999 5.5s-21.333 5.33301 -36 10s-25 8.16699 -31 10.5l-34.5 13.5
c-17 6.66699 -27.833 11 -32.5 13c-23.333 8.66699 -65 25.334 -125 50.001v-1c-112 48 -194 79 -246 93c-20.667 5.33301 -31 0.666016 -31 -14.001v-31l35 -914h-156l-36 908c0 101.333 38.333 167.666 115 198.999c16 6.66699 36.333 10 61 10zM610.999 302.001
l49.502 -21.5l56 -23.5l49.5 -19c21.333 -8 41.166 -14.333 59.499 -19s36.5 -8.66699 54.5 -12c24 10 42 36.667 54 80s18 87 18 131c0 48.667 -9 92.667 -27 132s-41.667 69 -71 89c-24 16.667 -50.667 25 -80 25h-2c-26.667 0 -55.334 -16 -86.001 -48
c-48.667 -50 -100.667 -144 -156 -282z" />
    <glyph glyph-name="uni0646" unicode="&#x646;" horiz-adv-x="1592" arabic-form="isolated" 
d="M286 -58c0 -146.667 42.333 -257.336 127 -332.003s203.667 -114.334 357 -119.001c3.33301 0 8.5 -0.166992 15.5 -0.5s12.167 -0.5 15.5 -0.5c126 0 231.5 26.333 316.5 79s145.833 126 182.5 220c25.333 64.667 38 136.334 38 215.001
c0 176.667 -51 348.334 -153 515.001l139 89c79.333 -118.667 133.333 -270.667 162 -456c7.33301 -48 11 -95.667 11 -143c0 -163.333 -39.167 -298.666 -117.5 -405.999s-184.5 -184.333 -318.5 -231c-80 -27.333 -165.667 -41 -257 -41c-4 0 -10 0.166992 -18 0.5
s-14.333 0.5 -19 0.5c-150.667 2.66699 -277 34.667 -379 96s-174.333 148 -217 260c-29.333 76.667 -44 163.334 -44 260.001c0 200.667 54.333 391.667 163 573l128 -94c-54 -86 -93.333 -197.667 -118 -335c-9.33301 -52 -14 -102 -14 -150zM966 640.998l-147 -147
l-148 148l147 147z" />
    <glyph glyph-name="uni0647" unicode="&#x647;" horiz-adv-x="974" arabic-form="isolated" 
d="M389 842l-74.999 68.002l107 114c80 -71.333 151.333 -141 214 -209c77.333 -88.667 136.333 -173.334 177 -254.001c40.667 -81.333 61 -154 61 -218c0 -172 -97 -278.333 -291 -319c-26.667 -5.33301 -59 -8 -97 -8c-74 0 -141.333 14.667 -202 44
s-106.334 67.666 -137.001 114.999c-31.333 47.333 -47 103.333 -47 168c0 58 13.333 117 40 177c40 90 101.667 176.667 185 260zM241.001 344.002c0 -51.333 24.666 -92.332 73.999 -122.999s106 -46 170 -46c2 0 6 0.166992 12 0.5s11 0.5 15 0.5
c40.667 0 77.834 7.33301 111.501 22s60.5 34 80.5 58c17.333 20.667 26 48 26 82c0 46 -20.667 102 -62 168c-43.333 69.333 -97 138.666 -161 207.999l-18 20l-16 -15c-92 -78 -161 -167 -207 -267c-16.667 -36 -25 -72 -25 -108z" />
    <glyph glyph-name="uni0648" unicode="&#x648;" horiz-adv-x="1083" arabic-form="isolated" 
d="M661 178c32.667 0 75.668 1.66309 129.001 4.99609c-4.66699 104.667 -23.834 198.334 -57.501 281.001s-81.167 143.334 -142.5 182.001c-24.667 16 -48.667 24 -72 24c-32 0 -64 -17.333 -96 -52c-70 -75.333 -105 -160.666 -105 -255.999
c0 -39.333 12 -74.666 36 -105.999v1c52.667 -52.667 129.667 -79 231 -79h77zM244.001 158.996c-40.667 52.667 -61.001 119.331 -61.001 199.998c0 52 11.667 114.333 35 187c39.333 120 101 203.333 185 250c37.333 20.667 75.666 31 114.999 31
c88.667 0 170.667 -40.667 246 -122v1c57.333 -64 102.333 -141.5 135 -232.5s49 -192.167 49 -303.5c0 -142.667 -38.667 -278 -116 -406c-53.333 -87.333 -121.666 -164 -204.999 -230s-177 -118.667 -281 -158c-66.667 -25.333 -136 -43.666 -208 -54.999l-37 154
c194 42.667 354.667 117.667 482 225c116.667 98.667 183.667 205.334 201 320.001h-77c-9.33301 -0.666992 -23.666 -1 -42.999 -1c-138.667 0 -250.667 22.333 -336 67c-36.667 19.333 -64.667 44 -84 74v-1z" />
    <glyph glyph-name="uni0649" unicode="&#x649;" horiz-adv-x="1733" arabic-form="isolated" 
d="M1626 634c-44.667 16.667 -92.3359 24.999 -143.003 24.999c-28.667 0 -52.667 -2.33301 -72 -7c-80.667 -9.33301 -161 -56.666 -241 -141.999c-49.333 -53.333 -85 -111 -107 -173c-10.667 -30 -16 -60 -16 -90s5.83301 -56.5 17.5 -79.5s26.167 -41 43.5 -54
s39.5 -24.833 66.5 -35.5s52.167 -18.667 75.5 -24l82.5 -18.5c31.667 -7 56.834 -13.5 75.501 -19.5c58.667 -18.667 105 -44.5 139 -77.5s51 -79.833 51 -140.5c0 -18 -2 -39 -6 -63c-22.667 -129.333 -110.334 -231.333 -263.001 -306
c-145.333 -74.667 -326.666 -112 -543.999 -112c-120.667 0 -228.834 18 -324.501 54s-173.5 86.667 -233.5 152c-88 103.333 -132 229 -132 377c0 32.667 2.16699 66.334 6.5 101.001s8.33301 61.167 12 79.5s10.5 49.5 20.5 93.5c36 159.333 73.667 295 113 407
c2 -0.666992 28 -10 78 -28l75 -27c-61.333 -188 -106.666 -370.667 -135.999 -548c-3.33301 -38.667 -5 -64.667 -5 -78c0 -188.667 90.333 -314.667 271 -378c76 -26.667 161 -40 255 -40c188.667 0 343.667 29.333 465 88c56 26.667 99.333 57 130 91
c34 37.333 51 74 51 110c0 10 -2 19.5 -6 28.5s-10.5 16.833 -19.5 23.5s-17.667 12.5 -26 17.5s-19.333 9.83301 -33 14.5s-24.667 8.16699 -33 10.5s-20 5.33301 -35 9s-24.833 6.16699 -29.5 7.5c-25.333 6.66699 -44.333 12 -57 16l-54.5 17
c-23.667 7.33301 -42.167 14.166 -55.5 20.499l-49 24c-19.333 9.66699 -34.833 19.834 -46.5 30.501s-23.667 22.834 -36 36.501s-22.333 28.834 -30 45.501s-13.5 34.667 -17.5 54c-6.66699 31.333 -10 64.666 -10 99.999c0 134 46.667 258.333 140 373
c48 59.333 105.5 108.666 172.5 147.999s141.5 63.666 223.5 72.999c16.667 2 33.334 3 50.001 3c62.667 0 135.334 -14 218.001 -42l-37.5 -77z" />
    <glyph glyph-name="uni064A" unicode="&#x64a;" horiz-adv-x="1781" arabic-form="isolated" 
d="M1626 634c-44.667 16.667 -92.3359 24.999 -143.003 24.999c-28.667 0 -52.667 -2.33301 -72 -7c-80.667 -9.33301 -161 -56.666 -241 -141.999c-49.333 -53.333 -85 -111 -107 -173c-10.667 -30 -16 -60 -16 -90s5.83301 -56.5 17.5 -79.5s26.167 -41 43.5 -54
s39.5 -24.833 66.5 -35.5s52.167 -18.667 75.5 -24l82.5 -18.5c31.667 -7 56.834 -13.5 75.501 -19.5c58.667 -18.667 105 -44.5 139 -77.5s51 -79.833 51 -140.5c0 -18 -2 -39 -6 -63c-22.667 -129.333 -110.334 -231.333 -263.001 -306
c-145.333 -74.667 -326.666 -112 -543.999 -112c-120.667 0 -228.834 18 -324.501 54s-173.5 86.667 -233.5 152c-88 103.333 -132 229 -132 377c0 32.667 2.16699 66.334 6.5 101.001s8.33301 61.167 12 79.5s10.5 49.5 20.5 93.5c36 159.333 73.667 295 113 407
c2 -0.666992 28 -10 78 -28l75 -27c-61.333 -188 -106.666 -370.667 -135.999 -548c-3.33301 -38.667 -5 -64.667 -5 -78c0 -188.667 90.333 -314.667 271 -378c76 -26.667 161 -40 255 -40c188.667 0 343.667 29.333 465 88c56 26.667 99.333 57 130 91
c34 37.333 51 74 51 110c0 10 -2 19.5 -6 28.5s-10.5 16.833 -19.5 23.5s-17.667 12.5 -26 17.5s-19.333 9.83301 -33 14.5s-24.667 8.16699 -33 10.5s-20 5.33301 -35 9s-24.833 6.16699 -29.5 7.5c-25.333 6.66699 -44.333 12 -57 16l-54.5 17
c-23.667 7.33301 -42.167 14.166 -55.5 20.499l-49 24c-19.333 9.66699 -34.833 19.834 -46.5 30.501s-23.667 22.834 -36 36.501s-22.333 28.834 -30 45.501s-13.5 34.667 -17.5 54c-6.66699 31.333 -10 64.666 -10 99.999c0 134 46.667 258.333 140 373
c48 59.333 105.5 108.666 172.5 147.999s141.5 63.666 223.5 72.999c16.667 2 33.334 3 50.001 3c62.667 0 135.334 -14 218.001 -42l-37.5 -77zM772.998 -993.001l-146 -146l-148 147l146 147zM1128 -995.001l-145 -146l-148 148l146 146z" />
    <glyph glyph-name="uni066E.init" unicode="&#x66e;" horiz-adv-x="700" 
d="M-7 20c-21.333 0 -39.666 7.5 -54.999 22.5s-23 33.5 -23 55.5s7.66699 40.5 23 55.5s33.666 22.5 54.999 22.5h125c2.66699 0 6.66699 -0.166992 12 -0.5s9 -0.5 11 -0.5c76 0 137.333 9.83301 184 29.5s81.667 53.167 105 100.5c10.667 21.333 16 50.666 16 87.999
c0 36 -6.33301 82.833 -19 140.5s-27.667 107.167 -45 148.5l-60 144l142 71c64 -144 106 -268 126 -372c8.66699 -45.333 13 -88.666 13 -129.999c0 -115.333 -41 -208.333 -123 -279c-73.333 -64 -187 -96 -341 -96h-146z" />
    <glyph glyph-name="uni066E.medi" unicode="&#x66e;" horiz-adv-x="705" 
d="M4 20c-22.667 0 -41.332 7.33008 -55.999 21.9971s-22 33.334 -22 56.001c0 21.333 7.5 39.666 22.5 54.999s33.5 23 55.5 23h17c111.333 0 196.833 19.667 256.5 59s89.5 105 89.5 197c0 64 -13 141.333 -39 232c20 4.66699 45.5 11.834 76.5 21.501
s55.167 16.834 72.5 21.501c32 -120.667 48.667 -217.667 50 -291c1.33301 -40.667 4.16602 -74 8.49902 -100s12.666 -50.5 24.999 -73.5s30.166 -39.833 53.499 -50.5s53.333 -16 90 -16c21.333 0 39.833 -7.66699 55.5 -23s23.5 -33.666 23.5 -54.999
c0 -22 -7.66699 -40.5 -23 -55.5s-33.666 -22.5 -54.999 -22.5c-113.333 0 -204 44.667 -272 134c-91.333 -89.333 -228.666 -134 -411.999 -134h-17z" />
    <glyph glyph-name="uni066E.fina" unicode="&#x66e;" horiz-adv-x="2316" 
d="M2308 20c-225.333 2.66699 -371.67 99.333 -439.003 290c-187.333 -195.333 -467.666 -293 -840.999 -293c-194.667 1.33301 -357.5 23.666 -488.5 66.999s-226.833 116 -287.5 218c-42.667 72.667 -64 153.667 -64 243c0 103.333 28 214.666 84 333.999
c78.667 -44.667 125 -70.667 139 -78l-21.5 -50.5c-12.333 -29 -20.666 -49.833 -24.999 -62.5s-9.16602 -31.834 -14.499 -57.501s-8 -50.167 -8 -73.5c0 -50 8.83301 -94.667 26.5 -134s40.334 -71.666 68.001 -96.999s62.5 -47.5 104.5 -66.5s83.167 -33.5 123.5 -43.5
s85.833 -18.667 136.5 -26c64.667 -9.33301 140.334 -14 227.001 -14c224 0 403.333 32.333 538 97s229.667 172.334 285 323.001c8.66699 24.667 18.667 54.667 30 90c21.333 -5.33301 48.666 -12.833 81.999 -22.5s56.666 -16.167 69.999 -19.5
c-20 -87.333 -30 -145.666 -30 -174.999v-10c2.66699 -93.333 30.667 -163.833 84 -211.5s129.666 -71.5 229 -71.5c22 0 40.667 -7.5 56 -22.5s23 -33.5 23 -55.5s-7.66699 -40.5 -23 -55.5s-34 -22.5 -56 -22.5h-8z" />
    <glyph glyph-name="uni066F.init" unicode="&#x66f;" horiz-adv-x="895" 
d="M536 887c-34 40 -69.999 60 -107.999 60c-27.333 0 -59.333 -18.333 -96 -55c-24 -24 -44 -54.667 -60 -92s-24 -77.333 -24 -120c0 -34 9 -61 27 -81h-1c38 -48.667 118.667 -73 242 -73h94c11.333 0 31.666 1.33301 60.999 4c-12.667 156.667 -57.667 276 -135 358v-1z
M-2.99902 20c-20.667 0 -38.832 7.66895 -54.499 23.002s-23.5 33.666 -23.5 54.999c0 22 7.83301 40.5 23.5 55.5s34.5 22.5 56.5 22.5c66 0 123.167 1.16699 171.5 3.5s99.333 7.33301 153 15s99.834 18.334 138.501 32.001s75.5 32.334 110.5 56.001
s64.167 52.167 87.5 85.5h-154c-72 0 -136.5 11.167 -193.5 33.5s-102.5 53.5 -136.5 93.5c-18.667 15.333 -32.667 40.166 -42 74.499s-14 70.833 -14 109.5c0 70 14.667 138.333 44 205c40.667 93.333 92.667 157.666 156 192.999c33.333 18.667 69.333 28 108 28
c82 0 157 -37 225 -111c78 -86.667 129.667 -202 155 -346c8 -44.667 12 -90.334 12 -137.001c0 -56.667 -7.5 -108.167 -22.5 -154.5s-35.333 -86.333 -61 -120s-57.834 -63.167 -96.501 -88.5s-79.667 -46 -123 -62s-92 -29 -146 -39s-107.333 -17 -160 -21
s-109.334 -6 -170.001 -6h-44z" />
    <glyph glyph-name="uni066F.medi" unicode="&#x66f;" horiz-adv-x="1019" 
d="M508 761c-46 0 -91.333 -22.3311 -136 -66.998c-50.667 -50.667 -76 -117 -76 -199c0 -39.333 19.333 -81 58 -125c42.667 -48.667 97.667 -88.334 165 -119.001c82.667 36.667 137.667 97.667 165 183c7.33301 22.667 11 46.667 11 72
c0 49.333 -11.667 95.166 -35 137.499s-52 74.5 -86 96.5c-22 14 -44 21 -66 21zM0 20.002c-22.667 0 -41.3359 7.33398 -56.0029 22.001s-22 33.334 -22 56.001s7.33301 41.334 22 56.001s33.334 22 56.001 22c95.333 0 198.333 7 309 21
c-77.333 69.333 -125.666 143.666 -144.999 222.999c-6.66699 28 -10 52 -10 72c0 85.333 19.833 161.166 59.5 227.499s90.5 118.5 152.5 156.5c42.667 26 90.334 40 143.001 42c78 -4 143.333 -29 196 -75s90.667 -104 114 -174c14.667 -44 22 -90.333 22 -139
c0 -118 -45 -225.667 -135 -323c98 -20.667 202 -31 312 -31c22.667 0 41.5 -7.33301 56.5 -22s22.5 -33.334 22.5 -56.001c0 -22 -7.5 -40.5 -22.5 -55.5s-33.833 -22.5 -56.5 -22.5h-9c-181.333 0 -343.333 24 -486 72c-123.333 -48 -295 -72 -515 -72h-8z" />
    <glyph glyph-name="uni066F.fina" unicode="&#x66f;" horiz-adv-x="1570" 
d="M1022 668c-29.333 0 -60.333 -20 -93 -60c-51.333 -61.333 -83 -138 -95 -230c-0.666992 -5.33301 -1 -13.666 -1 -24.999c0 -23.333 3.83301 -44.333 11.5 -63s17.167 -34.167 28.5 -46.5s26.833 -22.833 46.5 -31.5s38.334 -15.334 56.001 -20.001
s40.167 -8.16699 67.5 -10.5s50.833 -3.83301 70.5 -4.5s44.5 -1 74.5 -1h44h62c-7.33301 177.333 -55.333 318 -144 422c-40.667 46.667 -83.334 70 -128.001 70zM383 449c-40 -76.667 -70.998 -150.338 -92.998 -221.005s-33 -146 -33 -226
c0 -96.667 21.333 -179.667 64 -249s100.334 -121.666 173.001 -156.999c74 -36 161.667 -54 263 -54c201.333 0 351.666 87.667 450.999 263c28.667 53.333 53 124 73 212h-49c-164 0 -283.333 16.333 -358 49c-43.333 19.333 -78.833 43.333 -106.5 72
s-49.5 65.334 -65.5 110.001c-12 34 -18 69.333 -18 106c0 66.667 11.333 130.834 34 192.501s51.334 114.167 86.001 157.5c64 81.333 136.667 122 218 122c89.333 0 171 -40.667 245 -122c113.333 -126 174.666 -301.333 183.999 -526
c17.333 -1.33301 35.666 -2 54.999 -2h65c21.333 0 39.833 -7.66699 55.5 -23s23.5 -33.666 23.5 -54.999c0 -20.667 -7.83301 -38.834 -23.5 -54.501s-34.167 -23.5 -55.5 -23.5h-131c-40 -236.667 -139 -412 -297 -526h1c-108 -74 -237 -111 -387 -111
c-134 0 -249 25.333 -345 76s-171.667 121.334 -227 212.001c-57.333 96 -86 206.667 -86 332c0 2.66699 0.166992 7.33398 0.5 14.001s0.5 11.667 0.5 15c0 13.333 0.333008 23 1 29c15.333 152 62.666 306 141.999 462z" />
    <glyph glyph-name="uni0671" unicode="&#x671;" horiz-adv-x="573" arabic-form="isolated" 
d="M393 607c0 -201.333 -6.33301 -399.003 -19 -593.003l-157 9c12.667 192 19 388.667 19 590c0 188.667 -9.66699 412.334 -29 671.001c-6 78.667 -12.667 145.334 -20 200.001c14.667 2.66699 66 8.33398 154 17.001c34.667 -262.667 52 -560.667 52 -894zM319 1782
c138.667 0 211 33.666 217 100.999c0 20.667 -7.83301 36.834 -23.5 48.501s-34.5 17.5 -56.5 17.5c-44.667 0 -84 -16.5 -118 -49.5s-60.667 -71.167 -80 -114.5c18 -2 38.333 -3 61 -3zM460 2014c41.333 0 75.665 -13.165 102.998 -39.498s41 -59.833 41 -100.5
c0 -34 -14.833 -63.333 -44.5 -88s-65.167 -42.5 -106.5 -53.5s-84.666 -16.5 -129.999 -16.5c-49.333 0 -88.5 4.33301 -117.5 13s-52.167 25.334 -69.5 50.001c-9.33301 6.66699 -20.666 10 -33.999 10c-25.333 0 -58.666 -13.667 -99.999 -41l-18 68
c46.667 24.667 87 37 121 37c38.667 0 68.667 -15 90 -45c14.667 27.333 29.167 51.166 43.5 71.499s32.333 41.666 54 63.999s46.667 39.666 75 51.999s59.166 18.5 92.499 18.5z" />
    <glyph glyph-name="uni0679" unicode="&#x679;" horiz-adv-x="1970" arabic-form="isolated" 
d="M1759 339c-1.33301 17.333 -3.83691 34.8311 -7.50391 52.498s-7.16699 33.667 -10.5 48s-8.5 30.833 -15.5 49.5s-12.5 33.834 -16.5 45.501s-10.833 27.167 -20.5 46.5l-21 42c-4.33301 8.66699 -12.166 23.167 -23.499 43.5s-18.666 33.166 -21.999 38.499
s-11.166 18.666 -23.499 39.999s-19.5 33.333 -21.5 36l133 86c101.333 -157.333 164.333 -309.666 189 -456.999c2.66699 -16 4 -33.333 4 -52c0 -35.333 -9 -64.666 -27 -87.999s-44 -46.333 -78 -69c-144.667 -82 -344.667 -138.333 -600 -169
c-68 -8 -130.333 -12 -187 -12h-19c-348 3.33301 -592.667 62 -734 176c-95.333 76.667 -143 174.667 -143 294c0 88 26.333 180.667 79 278c16 29.333 27.333 49 34 59l126 -94c-6.66699 -10 -12.834 -20.833 -18.501 -32.5l-19 -41l-18.5 -40.5
c-18.667 -47.333 -28 -90 -28 -128c0 -45.333 9.33301 -82.166 28 -110.499s46.334 -53.833 83.001 -76.5c132.667 -84 336.334 -126 611.001 -126c319.333 0 575 53.667 767 161zM1169 1226c46 0 85.3311 -12.1699 117.998 -36.5029s49 -57.5 49 -99.5
c0 -49.333 -19.667 -95.666 -59 -138.999c-80 -70 -178.333 -105 -295 -105h-28c-92.667 0 -189 19 -289 57c13.333 30 22 50.333 26 61c24.667 -9.33301 60.667 -20.666 108 -33.999l32 44l13 18c6.66699 9.33301 12 16.333 16 21c8.66699 49.333 13 95.333 13 138
c0 96 -11.333 208.333 -34 337l69 9c0.666992 -6.66699 2.33398 -21 5.00098 -43l6 -50l6 -60c2.66699 -29.333 4.33398 -47 5.00098 -53l3 -45c2 -17.333 3 -31.333 3 -42c0 -2 0.333008 -5.66699 1 -11s1 -9.66602 1 -12.999v-81c37.333 35.333 74.333 64 111 86
c46.667 27.333 86.667 41 120 41zM870.994 917.995c28.667 -3.33301 47.666 -5 56.999 -5c6 -0.666992 15.333 -1 28 -1h28c102.667 0 185 28 247 84c26 26 39 53 39 81c0 24.667 -8.83301 45 -26.5 61s-39.5 24 -65.5 24c-21.333 0 -40.666 -3.83301 -57.999 -11.5
s-38 -19.834 -62 -36.501c-54.667 -38.667 -98.667 -80 -132 -124c-4 -5.33301 -10 -12.666 -18 -21.999z" />
    <glyph glyph-name="uni067E" unicode="&#x67e;" horiz-adv-x="1964" arabic-form="isolated" 
d="M1758 339c-1.33301 17.333 -3.83691 34.8311 -7.50391 52.498s-7.16699 33.667 -10.5 48s-8.5 30.833 -15.5 49.5s-12.5 33.834 -16.5 45.501s-10.833 27.167 -20.5 46.5l-21 42c-4.33301 8.66699 -12.166 23.167 -23.499 43.5s-18.666 33.166 -21.999 38.499
s-11.166 18.666 -23.499 39.999s-19.5 33.333 -21.5 36l133 86c101.333 -157.333 164.333 -309.666 189 -456.999c2.66699 -16 4 -33.333 4 -52c0 -35.333 -9 -64.666 -27 -87.999s-44 -46.333 -78 -69c-144.667 -82 -344.667 -138.333 -600 -169
c-68 -8 -130.333 -12 -187 -12h-19c-348 3.33301 -592.667 62 -734 176c-95.333 76.667 -143 174.667 -143 294c0 88 26.333 180.667 79 278c16 29.333 27.333 49 34 59l126 -94c-6.66699 -10 -12.834 -20.833 -18.501 -32.5l-19 -41l-18.5 -40.5
c-18.667 -47.333 -28 -90 -28 -128c0 -45.333 9.33301 -82.166 28 -110.499s46.334 -53.833 83.001 -76.5c132.667 -84 336.334 -126 611.001 -126c319.333 0 575 53.667 767 161zM1211 -162.002l146 -146l-148 -148l-146 146zM804.996 -163.002l146 -147l-148 -148
l-146 147zM1013 -468.002l132 -132l-133 -133l-132 132z" />
    <glyph glyph-name="uni0686" unicode="&#x686;" horiz-adv-x="1598" arabic-form="isolated" 
d="M334 676l-64.9961 42.4951l-64 41.5c88 136.667 188.333 228.667 301 276c43.333 18 89 27 137 27c101.333 0 201.666 -26.333 300.999 -79c32.667 -17.333 67.5 -38.333 104.5 -63s67.333 -46 91 -64l98.5 -76.5l89 -69.5c43.333 -32.667 86.666 -61.667 129.999 -87
l-63 -182c-56 6 -111 9 -165 9c-221.333 0 -420.333 -46.667 -597 -140c-138 -72.667 -237.333 -165 -298 -277c-30.667 -56 -48.334 -113.667 -53.001 -173v-9c0 -194 104.333 -330.667 313 -410c87.333 -33.333 186.333 -50 297 -50c103.333 0 196 14 278 42
s161 68.667 237 122l90 -129c-198.667 -132.667 -413 -199 -643 -199c-159.333 0 -296.5 30.833 -411.5 92.5s-200.5 147.5 -256.5 257.5c-38 74.667 -57 160.334 -57 257.001v21c0 140.667 52.333 271.334 157 392.001c96.667 110.667 223 195.834 379 255.501
s335 89.5 537 89.5h35c-34 18.667 -72.167 43.334 -114.5 74.001l-111 83.5c-31.667 25 -69.5 50.667 -113.5 77s-87.333 46.5 -130 60.5c-34 11.333 -70 17 -108 17c-38.667 0 -76 -8.66699 -112 -26s-64.333 -35.666 -85 -54.999s-43.334 -43.333 -68.001 -72
s-44.667 -54 -60 -76zM1091 153.995l140 -140l-142 -142l-141 140zM700.004 152.995l141 -141l-143 -142l-140 141zM900.004 -140.005l127 -127l-128 -128l-127 127z" />
    <glyph glyph-name="uni0688" unicode="&#x688;" horiz-adv-x="1149" arabic-form="isolated" 
d="M417 958l65.001 146c108 -58 216.333 -152.667 325 -284c64.667 -78 117.667 -161 159 -249c36 -74 54 -148.333 54 -223c0 -68.667 -18.667 -125 -56 -169c-87.333 -105.333 -224.333 -158 -411 -158c-106 0 -219.667 24.667 -341 74c-34.667 14 -60.334 28 -77.001 42
l67 153c120.667 -70.667 250.667 -106 390 -106c114.667 0 198 31.333 250 94c19.333 25.333 29 54 29 86c0 41.333 -13.667 90 -41 146c-41.333 84 -107.333 174 -198 270c-79.333 84.667 -151 144 -215 178zM673.001 1668c46 0 85.3311 -12.1699 117.998 -36.5029
s49 -57.5 49 -99.5c0 -49.333 -19.667 -95.666 -59 -138.999c-80 -70 -178.333 -105 -295 -105h-28c-92.667 0 -189 19 -289 57c13.333 30 22 50.333 26 61c24.667 -9.33301 60.667 -20.666 108 -33.999l32 44l13 18c6.66699 9.33301 12 16.333 16 21
c8.66699 49.333 13 95.333 13 138c0 96 -11.333 208.333 -34 337l69 9c0.666992 -6.66699 2.33398 -21 5.00098 -43l6 -50l6 -60c2.66699 -29.333 4.33398 -47 5.00098 -53l3 -45c2 -16.667 3 -30.667 3 -42c0 -2 0.333008 -5.66699 1 -11s1 -9.66602 1 -12.999v-81
c37.333 35.333 74.333 64 111 86c46.667 27.333 86.667 41 120 41zM374.999 1360c28 -3.33301 46.999 -5 56.999 -5c6 -0.666992 15.333 -1 28 -1h28c102.667 0 185 28 247 84c26 26 39 53 39 81c0 24.667 -8.83301 45 -26.5 61s-39.5 24 -65.5 24
c-21.333 0 -40.666 -3.83301 -57.999 -11.5s-38 -19.834 -62 -36.501c-54.667 -38.667 -98.667 -80 -132 -124c-4 -5.33301 -10 -12.666 -18 -21.999z" />
    <glyph glyph-name="uni0691" unicode="&#x691;" horiz-adv-x="864" arabic-form="isolated" 
d="M596 144c0 -6 0.501953 -14.6689 1.50195 -26.002s1.5 -20.666 1.5 -27.999c0 -158 -65 -308.667 -195 -452c-120.667 -132.667 -266.334 -241.667 -437.001 -327l-69 140c152 78 277.667 169.667 377 275c49.333 52 90 109.667 122 173
c30.667 60.667 46 124.334 46 191.001c0 14 -0.666992 28.167 -2 42.5s-3.5 29.666 -6.5 45.999s-5.5 29.5 -7.5 39.5s-5.33301 24.5 -10 43.5s-7.66699 31.833 -9 38.5c-20.667 89.333 -47 182 -79 278l152 47c59.333 -205.333 97.666 -365.666 114.999 -480.999z
M583.002 1320c46 0 85.3311 -12.1699 117.998 -36.5029s49 -57.5 49 -99.5c0 -49.333 -19.667 -95.666 -59 -138.999c-80 -70 -178.333 -105 -295 -105h-28c-92.667 0 -189 19 -289 57c13.333 30 22 50.333 26 61c24.667 -9.33301 60.667 -20.666 108 -33.999l32 44l13 18
c6.66699 9.33301 12 16.333 16 21c8.66699 49.333 13 95.333 13 138c0 96 -11.333 208.333 -34 337l69 9c0.666992 -6.66699 2.33398 -21 5.00098 -43l6 -50l6 -60c2.66699 -29.333 4.33398 -47 5.00098 -53l3 -45c2 -17.333 3 -31.333 3 -42c0 -2 0.333008 -5.66699 1 -11
s1 -9.66602 1 -12.999v-81c37.333 35.333 74.333 64 111 86c46.667 27.333 86.667 41 120 41zM285 1012c28 -3.33301 46.999 -5 56.999 -5c6 -0.666992 15.333 -1 28 -1h28c102.667 0 185 28 247 84c26 26 39 53 39 81c0 24.667 -8.83301 45 -26.5 61s-39.5 24 -65.5 24
c-21.333 0 -40.666 -3.83301 -57.999 -11.5s-38 -19.834 -62 -36.501c-54.667 -38.667 -98.667 -80 -132 -124c-4 -5.33301 -10 -12.666 -18 -21.999z" />
    <glyph glyph-name="uni0698" unicode="&#x698;" horiz-adv-x="930" arabic-form="isolated" 
d="M694 144c0 -6 0.501953 -14.6689 1.50195 -26.002s1.5 -20.666 1.5 -27.999c0 -158 -65 -308.667 -195 -452c-120.667 -132.667 -266.334 -241.667 -437.001 -327l-69 140c152 78 277.667 169.667 377 275c49.333 52 90 109.667 122 173
c30.667 60.667 46 124.334 46 191.001c0 14 -0.666992 28.167 -2 42.5s-3.5 29.666 -6.5 45.999s-5.5 29.5 -7.5 39.5s-5.33301 24.5 -10 43.5s-7.66699 31.833 -9 38.5c-20.667 89.333 -47 182 -79 278l152 47c59.333 -205.333 97.666 -365.666 114.999 -480.999z
M520.002 1082l146 146l148 -148l-146 -146zM114.002 1083l146 147l148 -148l-146 -147zM337.002 1373l132 132l133 -133l-132 -132z" />
    <glyph glyph-name="uni06A9" unicode="&#x6a9;" horiz-adv-x="2059" arabic-form="isolated" 
d="M340 735c-18.667 -34 -32.165 -59.1641 -40.498 -75.4971s-17.5 -40.833 -27.5 -73.5s-15 -64 -15 -94c0 -44.667 9.16699 -81.334 27.5 -110.001s45.166 -54.667 80.499 -78c120 -78.667 324.333 -119.667 613 -123c38.667 -2.66699 68 -4 88 -4
c120.667 0 242.334 15.333 365.001 46c117.333 29.333 198.333 68.333 243 117c32.667 35.333 49 73.666 49 114.999c0 55.333 -26.333 119 -79 191c-40.667 56.667 -101.334 121.334 -182.001 194.001c-61.333 55.333 -150.333 129.666 -267 222.999
c2 24 5.83301 58.667 11.5 104s9.5 79.666 11.5 102.999l830 346l62 -144l-796 -320c178 -147.333 300.667 -258 368 -332c52 -56.667 94.667 -115 128 -175c33.333 -59.333 50 -119.333 50 -180c0 -53.333 -12.333 -105 -37 -155s-55 -89.333 -91 -118
c-135.333 -108.667 -333.333 -165 -594 -169c-9.33301 0 -23 -0.166992 -41 -0.5s-31.333 -0.5 -40 -0.5l-81 1c-248 6.66699 -437.333 33.334 -568 80.001c-134 53.333 -223.667 126.666 -269 219.999c-26.667 50.667 -40 106.667 -40 168c0 114.667 38 227 114 337
c23.333 -18 65.666 -49 126.999 -93z" />
    <glyph glyph-name="uni06AA.init" unicode="&#x6aa;" horiz-adv-x="2138" 
d="M-6 20c-21.333 0 -39.666 7.66895 -54.999 23.002s-23 33.666 -23 54.999s7.66699 39.666 23 54.999s33.666 23 54.999 23h7c0.666992 0 1.66699 -0.166992 3 -0.5s2.33301 -0.5 3 -0.5h191c651.333 0 1153.67 15 1507 45c69.333 6 132 13 188 21l-9 27
c-40 72.667 -91.333 124.667 -154 156c-40 20 -105.667 30 -197 30c-89.333 0 -206 -10 -350 -30c-0.666992 -0.666992 -1.66699 -1 -3 -1h-1l-5 -1h-8c-26 0 -66.667 -2.16699 -122 -6.5s-96 -6.83301 -122 -7.5c-24 -0.666992 -61.667 -1 -113 -1h-54
c-119.333 2 -219.333 11.667 -300 29v-1c-55.333 12 -102 32 -140 60s-57 66 -57 114v13c0 42.667 9.33301 84.167 28 124.5s41.834 75.5 69.501 105.5s61.667 59.833 102 89.5s77.5 54 111.5 73s71.667 38.167 113 57.5l408 153l48 -138
c-190 -52 -365.333 -127.333 -526 -226c-90.667 -56 -155.667 -111.667 -195 -167c-20.667 -28.667 -31.334 -55 -32.001 -79c18 -10.667 58.333 -21.667 121 -33c77.333 -14 178.333 -21 303 -21c127.333 0 229.666 3.66699 306.999 11c22.667 2 63.834 6.5 123.501 13.5
s113 12.5 160 16.5s92.167 6 135.5 6c122.667 0 217.667 -18.667 285 -56c82 -50 147.667 -118 197 -204c22.667 -40 44.667 -83.667 66.001 -131l-1 1l2 -5l-70 -117h-7c-29.333 -2.66699 -78 -8.5 -146 -17.5s-121 -15.5 -159 -19.5c-196 -20 -380 -31 -552 -33l-1153 -6
h-3z" />
    <glyph glyph-name="uni06AA.medi" unicode="&#x6aa;" horiz-adv-x="2675" 
d="M-14 20c-21.333 0 -39.668 7.66309 -55.001 22.9961s-23 33.666 -23 54.999s7.66699 39.666 23 54.999s33.666 23 54.999 23h128c13.333 0 33.166 -0.333008 59.499 -1s45.833 -1 58.5 -1h433c22 0 56.833 0.333008 104.5 1s84.167 1 109.5 1h141
c315.333 0 551.333 6 708 18c82.667 6 176.334 14.333 281.001 25l135 13l-16 32l-1 3c-20.667 34.667 -44.334 67.667 -71.001 99c-15.333 18 -26 30.167 -32 36.5s-15.167 12.833 -27.5 19.5s-26.833 11.334 -43.5 14.001c-40 6 -86 9 -138 9
c-90.667 0 -220 -10.667 -388 -32h-7c-9.33301 0 -20 -0.5 -32 -1.5l-43.5 -3.5c-17 -1.33301 -30.5 -2.33301 -40.5 -3c-100 -5.33301 -184 -8 -252 -8h-48c-120 2 -220.333 11.667 -301 29v-1c-55.333 12 -102 32 -140 60s-57 66 -57 114v13c0 94 45.333 183 136 267
c138.667 130.667 370.334 245.667 695.001 345l41 -149c-220 -67.333 -393.333 -142 -520 -224c-81.333 -52 -138.666 -107 -171.999 -165c-16 -28 -25 -55 -27 -81c17.333 -10 39.5 -18.333 66.5 -25s50.333 -11.167 70 -13.5s49.167 -5.16602 88.5 -8.49902
c54.667 -4.66699 112.334 -7 173.001 -7c127.333 0 229.666 3.66699 306.999 11l127.5 14c72.333 8 132.833 13.833 181.5 17.5s96 5.5 142 5.5c120.667 0 206.334 -14 257.001 -42c66 -39.333 130.333 -112 193 -218l27 -51c31.333 -41.333 78.5 -70 141.5 -86
s142.5 -24.667 238.5 -26h3c20.667 0 38.834 -7.66699 54.5 -23c15.667 -15.333 23.5 -33.666 23.5 -54.999s-7.83301 -39.666 -23.5 -54.999s-33.834 -23 -54.5 -23c-146 3.33301 -278 26.333 -396 69c0 -0.666992 -0.5 -1.16699 -1.5 -1.5s-2.66699 -0.833008 -5 -1.5
s-5.16602 -1.16699 -8.5 -1.5c-3.33301 -0.333008 -7.66602 -0.833008 -12.999 -1.5s-11 -1.33398 -17 -2.00098c-44.667 -4 -90.167 -7.83301 -136.5 -11.5s-96.166 -7.16699 -149.499 -10.5l-140 -8.5c-40 -2.33301 -91.333 -4.66602 -154 -6.99902
s-110.334 -4.16602 -143.001 -5.49902s-84.5 -3.16602 -155.5 -5.49902s-118.667 -3.83301 -143 -4.5s-75.833 -2 -154.5 -4s-126.667 -3.33301 -144 -4c-76 -2 -142.333 -3 -199 -3c-24 0 -57.667 0.166992 -101 0.5s-74.666 0.5 -93.999 0.5h-178
c-28.667 0 -57.334 0.333008 -86.001 1s-57.334 1 -86.001 1h-184z" />
    <glyph glyph-name="uni06AA.fina" unicode="&#x6aa;" horiz-adv-x="2720" 
d="M1392 1224c3.33301 -12 9.33105 -35.0029 17.998 -69.0029s16.334 -60.667 23.001 -80c-212.667 -66 -387 -140.667 -523 -224c-90 -54.667 -154 -109.667 -192 -165c-18.667 -27.333 -29 -54.333 -31 -81c18 -10 59 -21 123 -33c82 -14 182.667 -21 302 -21
c127.333 0 230 3.66699 308 11c22 2 65.5 6.66699 130.5 14s123 13 174 17s99.5 6 145.5 6c120.667 0 206.334 -14 257.001 -42c65.333 -39.333 129.666 -112 193 -218l27 -51c31.333 -41.333 77.5 -70 138.5 -86s139.5 -24.667 235.5 -26
c20.667 0 38.834 -7.66699 54.5 -23c15.667 -15.333 23.5 -33.666 23.5 -54.999s-7.83301 -39.666 -23.5 -54.999s-33.834 -23 -54.5 -23c-92 1.33301 -194.667 16 -308 44c-14 5.33301 -24.333 8 -31 8c-6 0 -11.667 0.833008 -17 2.5s-11.5 4.16699 -18.5 7.5
s-12.833 6 -17.5 8h-3c-2.66699 -0.666992 -6.66699 -1.33398 -12 -2.00098s-11.333 -1.33398 -18 -2.00098c-591.333 -54 -1101.67 -81 -1531 -81c-296 0 -535 14 -717 42c3.33301 17.333 7.66602 42.333 12.999 75s9.66602 58.334 12.999 77.001
c168.667 -26 399.667 -39 693 -39c422 0 852.333 20 1291 60c54.667 5.33301 101.667 9.33301 141 12l-16 32l-1 3c-46.667 80.667 -91.667 133.334 -135 158.001c-4.66699 4.66699 -17.667 8.33398 -39 11.001c-41.333 6 -87.333 9 -138 9c-92 0 -221.333 -10.667 -388 -32
h-7c-8.66699 0 -19 -0.5 -31 -1.5l-43 -3.5c-16.667 -1.33301 -30.334 -2.33301 -41.001 -3c-101.333 -5.33301 -185.666 -8 -252.999 -8h-48c-120 2 -220.333 11.667 -301 29v-1c-55.333 12 -102 32 -140 60s-57 66 -57 114v13c0 94 45.333 183 136 267
c138.667 130.667 370.334 245.667 695.001 345z" />
    <glyph glyph-name="uni06AF" unicode="&#x6af;" horiz-adv-x="2052" arabic-form="isolated" 
d="M340 733c-18.667 -34 -32.165 -59.1641 -40.498 -75.4971s-17.5 -40.833 -27.5 -73.5s-15 -64 -15 -94c0 -44.667 9.16699 -81.334 27.5 -110.001s45.166 -54.667 80.499 -78c120 -78.667 324.333 -119.667 613 -123c38.667 -2.66699 68 -4 88 -4
c120.667 0 242.334 15.333 365.001 46c117.333 29.333 198.333 68.333 243 117c32.667 35.333 49 73.666 49 114.999c0 55.333 -26.333 119 -79 191c-40.667 56.667 -101.334 121.334 -182.001 194.001c-61.333 55.333 -150.333 129.666 -267 222.999
c2 24 5.83301 58.667 11.5 104s9.5 79.666 11.5 102.999l830 346l62 -144l-796 -320c178 -147.333 300.667 -258 368 -332c52 -56.667 94.667 -115 128 -175c33.333 -59.333 50 -119.333 50 -180c0 -53.333 -12.333 -105 -37 -155s-55 -89.333 -91 -118
c-135.333 -108.667 -333.333 -165 -594 -169c-9.33301 0 -23 -0.166992 -41 -0.5s-31.333 -0.5 -40 -0.5l-81 1c-248 6.66699 -437.333 33.334 -568 80.001c-134 53.333 -223.667 126.666 -269 219.999c-26.667 50.667 -40 106.667 -40 168c0 114.667 38 227 114 337
c23.333 -18 65.666 -49 126.999 -93zM1993 1766l-390.002 -165l-391 -165c0.666992 14 1.83398 32 3.50098 54s2.83398 39.333 3.50098 52l735 307z" />
    <glyph glyph-name="uni06BA" unicode="&#x6ba;" horiz-adv-x="1630" arabic-form="isolated" 
d="M286 -58c0 -146.667 42.333 -257.336 127 -332.003s203.667 -114.334 357 -119.001c3.33301 0 8.5 -0.166992 15.5 -0.5s12.167 -0.5 15.5 -0.5c126 0 231.5 26.333 316.5 79s145.833 126 182.5 220c25.333 64.667 38 136.334 38 215.001
c0 176.667 -51 348.334 -153 515.001l139 89c79.333 -118.667 133.333 -270.667 162 -456c7.33301 -48 11 -95.667 11 -143c0 -163.333 -39.167 -298.666 -117.5 -405.999s-184.5 -184.333 -318.5 -231c-80 -27.333 -165.667 -41 -257 -41c-4 0 -10 0.166992 -18 0.5
s-14.333 0.5 -19 0.5c-150.667 2.66699 -277 34.667 -379 96s-174.333 148 -217 260c-29.333 76.667 -44 163.334 -44 260.001c0 200.667 54.333 391.667 163 573l128 -94c-54 -86 -93.333 -197.667 -118 -335c-9.33301 -52 -14 -102 -14 -150z" />
    <glyph glyph-name="uni06BE" unicode="&#x6be;" horiz-adv-x="1604" arabic-form="isolated" 
d="M704 78c-50.667 -16.667 -117.666 -25 -200.999 -25c-140 0 -266.333 16 -379 48c-25.333 7.33301 -45.333 16.833 -60 28.5s-22 28.5 -22 50.5c0 21.333 7.33301 39.333 22 54s33 22 55 22c8 0 16 -1 24 -3c79.333 -26.667 147.666 -44.334 204.999 -53.001
c30 -4.66699 59.667 -7 89 -7c22.667 0 45 1.66699 67 5c-60 58.667 -103.333 114.334 -130 167.001c-28 54.667 -42 107.334 -42 158.001c0 66.667 13.5 127.167 40.5 181.5s62.167 99.5 105.5 135.5c36.667 30 76.667 52 120 66l-107 41l77 144l241.5 -91.5
c53.667 -21 123.167 -50.5 208.5 -88.5s159.333 -75 222 -111c104 -59.333 176 -116 216 -170c58.667 -80.667 88 -163.334 88 -248.001c0 -133.333 -66.333 -236 -199 -308l1 1c-63.333 -38.667 -165.333 -58 -306 -58c-122.667 0 -234.667 20.333 -336 61zM1076 599
v-28.001c0 -56 -17.333 -122.667 -52 -200c-34 -74 -79.667 -136.667 -137 -188c44.667 -9.33301 89.334 -14 134.001 -14h48c74 0 137.667 11.667 191 35s92 58 116 104c14 26.667 21 55.334 21 86.001c0 58 -30.333 118.667 -91 182
c-68.667 70.667 -154.334 127 -257.001 169c18 -44 27 -92.667 27 -146zM780.001 800.999c-9.33301 2 -18 2.99805 -26 2.99805c-32.667 0 -71.667 -11.333 -117 -34c-44.667 -23.333 -81.167 -54.166 -109.5 -92.499s-42.5 -84.166 -42.5 -137.499
c0 -60.667 24 -120.334 72 -179.001c34 -41.333 78.667 -78.666 134 -111.999c106.667 46.667 175.667 125.667 207 237c8.66699 30.667 13 61.667 13 93c0 90 -25.667 156 -77 198c-16 12.667 -33.667 20.667 -53 24h-1z" />
    <glyph glyph-name="uni06C0" unicode="&#x6c0;" horiz-adv-x="983" arabic-form="isolated" 
d="M389 842l-74.999 68.002l107 114c80 -71.333 151.333 -141 214 -209c77.333 -88.667 136.333 -173.334 177 -254.001c40.667 -81.333 61 -154 61 -218c0 -172 -97 -278.333 -291 -319c-26.667 -5.33301 -59 -8 -97 -8c-74 0 -141.333 14.667 -202 44
s-106.334 67.666 -137.001 114.999c-31.333 47.333 -47 103.333 -47 168c0 58 13.333 117 40 177c40 90 101.667 176.667 185 260zM241.001 344.002c0 -51.333 24.666 -92.332 73.999 -122.999s106 -46 170 -46c2 0 6 0.166992 12 0.5s11 0.5 15 0.5
c40.667 0 77.834 7.33301 111.501 22s60.5 34 80.5 58c17.333 20.667 26 48 26 82c0 46 -20.667 102 -62 168c-43.333 69.333 -97 138.666 -161 207.999l-18 20l-16 -15c-92 -78 -161 -167 -207 -267c-16.667 -36 -25 -72 -25 -108zM337 1261
c-38.667 16 -70.832 40.834 -96.499 74.501s-38.5 73.5 -38.5 119.5c0 63.333 22.167 114.5 66.5 153.5s99.166 58.5 164.499 58.5c28 0 68 -6.33301 120 -19l-28 -92c-32 8.66699 -62.667 13 -92 13c-23.333 0 -44 -4 -62 -12v2c-19.333 -8 -36 -21.667 -50 -41
s-21 -40.333 -21 -63c0 -10 2.66699 -22 8 -36l-1 1c8.66699 -22.667 25 -42 49 -58s50.333 -24 79 -24c17.333 0 35.833 3.5 55.5 10.5s33.167 12.667 40.5 17l42 25.5c16 9.33301 30.333 19 43 29l59 -78l-41.5 -28.5c-13.667 -9 -30.5 -19.333 -50.5 -31l-42.5 -24.5
l-56 -30.5c-29 -15.667 -46.167 -24.834 -51.5 -27.501l-227 -126l-48 87z" />
    <glyph glyph-name="uni06C1" unicode="&#x6c1;" horiz-adv-x="1313" arabic-form="final" 
d="M1391 98c0 -21.333 -7.83105 -39.6699 -23.498 -55.0029s-33.834 -23 -54.501 -23c-72.667 0 -134.334 14.833 -185.001 44.5s-100 70.834 -148 123.501l-77 87l-77 87c-50 53.333 -99.333 91.333 -148 114c-26 12 -54 18 -84 18c-27.333 0 -55 -4.33301 -83 -13
c-64 -22 -121 -75.667 -171 -161c-44 -73.333 -81 -166.666 -111 -279.999l-150 40c28 105.333 61.333 197.5 100 276.5s87 144.167 145 195.5c74.667 65.333 164.667 98 270 98c83.333 0 162.666 -28 237.999 -84c28.667 -21.333 56.167 -45 82.5 -71s57 -59.5 92 -100.5
l71.5 -82.5c48.667 -53.333 98.667 -92.333 150 -117c26 -12.667 54.333 -19 85 -19c20.667 0 38.834 -7.66699 54.501 -23s23.5 -33.666 23.5 -54.999z" />
    <glyph glyph-name="twodots.above_uni0647" unicode="&#x6c3;" horiz-adv-x="1020" 
d="M426 842l-74.999 68.002l107 114c80 -71.333 151.333 -141 214 -209c77.333 -88.667 136.333 -173.334 177 -254.001c40.667 -81.333 61 -154 61 -218c0 -172 -97 -278.333 -291 -319c-26.667 -5.33301 -59 -8 -97 -8c-74 0 -141.333 14.667 -202 44
s-106.334 67.666 -137.001 114.999c-31.333 47.333 -47 103.333 -47 168c0 58 13.333 117 40 177c40 90 101.667 176.667 185 260zM278.001 344.002c0 -51.333 24.666 -92.332 73.999 -122.999s106 -46 170 -46c2 0 6 0.166992 12 0.5s11 0.5 15 0.5
c40.667 0 77.834 7.33301 111.501 22s60.5 34 80.5 58c17.333 20.667 26 48 26 82c0 46 -20.667 102 -62 168c-43.333 69.333 -97 138.666 -161 207.999l-18 20l-16 -15c-92 -78 -161 -167 -207 -267c-16.667 -36 -25 -72 -25 -108zM411 1370l-146 -146l-148 147l146 147z
M766 1368l-145 -146l-148 148l146 146z" />
    <glyph glyph-name="uni06CC" unicode="&#x6cc;" horiz-adv-x="1759" arabic-form="isolated" 
d="M1626 634c-44.667 16.667 -92.3359 24.999 -143.003 24.999c-28.667 0 -52.667 -2.33301 -72 -7c-80.667 -9.33301 -161 -56.666 -241 -141.999c-49.333 -53.333 -85 -111 -107 -173c-10.667 -30 -16 -60 -16 -90s5.83301 -56.5 17.5 -79.5s26.167 -41 43.5 -54
s39.5 -24.833 66.5 -35.5s52.167 -18.667 75.5 -24l82.5 -18.5c31.667 -7 56.834 -13.5 75.501 -19.5c58.667 -18.667 105 -44.5 139 -77.5s51 -79.833 51 -140.5c0 -18 -2 -39 -6 -63c-22.667 -129.333 -110.334 -231.333 -263.001 -306
c-145.333 -74.667 -326.666 -112 -543.999 -112c-120.667 0 -228.834 18 -324.501 54s-173.5 86.667 -233.5 152c-88 103.333 -132 229 -132 377c0 32.667 2.16699 66.334 6.5 101.001s8.33301 61.167 12 79.5s10.5 49.5 20.5 93.5c36 159.333 73.667 295 113 407
c2 -0.666992 28 -10 78 -28l75 -27c-61.333 -188 -106.666 -370.667 -135.999 -548c-3.33301 -38.667 -5 -64.667 -5 -78c0 -188.667 90.333 -314.667 271 -378c76 -26.667 161 -40 255 -40c188.667 0 343.667 29.333 465 88c56 26.667 99.333 57 130 91
c34 37.333 51 74 51 110c0 10 -2 19.5 -6 28.5s-10.5 16.833 -19.5 23.5s-17.667 12.5 -26 17.5s-19.333 9.83301 -33 14.5s-24.667 8.16699 -33 10.5s-20 5.33301 -35 9s-24.833 6.16699 -29.5 7.5c-25.333 6.66699 -44.333 12 -57 16l-54.5 17
c-23.667 7.33301 -42.167 14.166 -55.5 20.499l-49 24c-19.333 9.66699 -34.833 19.834 -46.5 30.501s-23.667 22.834 -36 36.501s-22.333 28.834 -30 45.501s-13.5 34.667 -17.5 54c-6.66699 31.333 -10 64.666 -10 99.999c0 134 46.667 258.333 140 373
c48 59.333 105.5 108.666 172.5 147.999s141.5 63.666 223.5 72.999c16.667 2 33.334 3 50.001 3c62.667 0 135.334 -14 218.001 -42l-37.5 -77z" />
    <glyph glyph-name="uni06D2" unicode="&#x6d2;" horiz-adv-x="1975" arabic-form="isolated" 
d="M1012 -104c-81.333 0 -143.331 -0.333984 -185.998 -1.00098h-34c-141.333 0 -262.333 9.33301 -363 28s-180.334 54 -239.001 106c-26.667 23.333 -46.5 46 -59.5 68s-19.5 50 -19.5 84c0 8 0.5 15.333 1.5 22s3 13.5 6 20.5l7 16.5
c1.66699 4 4.83398 10.333 9.50098 19s8 14.667 10 18c17.333 32 43 60.5 77 85.5s74.5 45.5 121.5 61.5s91 28.667 132 38s88.167 18 141.5 26c47.333 7.33301 116.666 15.333 207.999 24l-36 -147c-224 -16.667 -385 -55.667 -483 -117c-20 -12 -34.333 -25.333 -43 -40
c-6.66699 -9.33301 -10 -17.333 -10 -24c0 -18.667 11.667 -36 35 -52c49.333 -34.667 114.166 -57.334 194.499 -68.001s178.833 -16 295.5 -16c10.667 0 26.167 -0.166992 46.5 -0.5s35.166 -0.5 44.499 -0.5h132c29.333 0 59.5 0.5 90.5 1.5s59 2 84 3
s55.167 2.83301 90.5 5.5s62.666 4.66699 81.999 6s48.833 4.33301 88.5 9s66.5 7.66699 80.5 9s42.833 4.83301 86.5 10.5s69.834 9 78.501 10s36.834 4.66699 84.501 11s73.5 9.83301 77.5 10.5c38 4.66699 66 8.66699 84 12l-23 -87
c-2.66699 -7.33301 -8.33398 -30.666 -17.001 -69.999c-259.333 -37.333 -493.666 -62.666 -702.999 -75.999c-63.333 -4 -121 -6 -173 -6z" />
    <glyph glyph-name="uni06D3" unicode="&#x6d3;" horiz-adv-x="2024" arabic-form="isolated" 
d="M1045 -104c-81.333 0 -143.331 -0.333984 -185.998 -1.00098h-34c-141.333 0 -262.333 9.33301 -363 28s-180.334 54 -239.001 106c-26.667 23.333 -46.5 46 -59.5 68s-19.5 50 -19.5 84c0 8 0.5 15.333 1.5 22s3 13.5 6 20.5l7 16.5
c1.66699 4 4.83398 10.333 9.50098 19s8 14.667 10 18c17.333 32 43 60.5 77 85.5s74.5 45.5 121.5 61.5s91 28.667 132 38s88.167 18 141.5 26c47.333 7.33301 116.666 15.333 207.999 24l-36 -147c-224 -16.667 -385 -55.667 -483 -117c-20 -12 -34.333 -25.333 -43 -40
c-6.66699 -9.33301 -10 -17.333 -10 -24c0 -18.667 11.667 -36 35 -52c49.333 -34.667 114.166 -57.334 194.499 -68.001s178.833 -16 295.5 -16c10.667 0 26.167 -0.166992 46.5 -0.5s35.166 -0.5 44.499 -0.5h132c29.333 0 59.5 0.5 90.5 1.5s59 2 84 3
s55.167 2.83301 90.5 5.5s62.666 4.66699 81.999 6s48.833 4.33301 88.5 9s66.5 7.66699 80.5 9s42.833 4.83301 86.5 10.5s69.834 9 78.501 10s36.834 4.66699 84.501 11s73.5 9.83301 77.5 10.5c38 4.66699 66 8.66699 84 12l-23 -87
c-2.66699 -7.33301 -8.33398 -30.666 -17.001 -69.999c-259.333 -37.333 -493.666 -62.666 -702.999 -75.999c-63.333 -4 -121 -6 -173 -6zM473.002 726.999c-38.667 16 -70.832 40.834 -96.499 74.501s-38.5 73.5 -38.5 119.5c0 63.333 22.167 114.5 66.5 153.5
s99.166 58.5 164.499 58.5c28 0 68 -6.33301 120 -19l-28 -92c-32 8.66699 -62.667 13 -92 13c-23.333 0 -44 -4 -62 -12v2c-19.333 -8 -36 -21.667 -50 -41s-21 -40.333 -21 -63c0 -10 2.66699 -22 8 -36l-1 1c8.66699 -22.667 25 -42 49 -58s50.333 -24 79 -24
c17.333 0 35.833 3.5 55.5 10.5s33.167 12.667 40.5 17l42 25.5c16 9.33301 30.333 19 43 29l59 -78l-41.5 -28.5c-13.667 -9 -30.5 -19.333 -50.5 -31l-42.5 -24.5l-56 -30.5c-29 -15.667 -46.167 -24.834 -51.5 -27.501l-227 -126l-48 87z" />
    <glyph glyph-name="uniFB51" unicode="&#x671;" horiz-adv-x="611" arabic-form="final" 
d="M691 98c0 -22 -7.66602 -40.502 -22.999 -55.502s-34 -22.5 -56 -22.5c-138 0 -240.333 33.333 -307 100c-54 54 -81 140.667 -81 260c2.66699 54 4 149 4 285v129c0 186.667 -7 375.334 -21 566.001c-2.66699 38 -6.66699 72 -12 102l156 28
c22 -136 33 -358.667 33 -668v-40c0 -16.667 0.166992 -40.334 0.5 -71.001s0.5 -52.667 0.5 -66c0 -18 -0.166992 -42.667 -0.5 -74s-0.5 -53.666 -0.5 -66.999c0 -56 -0.333008 -98 -1 -126v-17c0 -34.667 2.16699 -61.5 6.5 -80.5s14.166 -35.5 29.499 -49.5
c34.667 -34.667 96 -53 184 -55h9c21.333 0 39.833 -7.66699 55.5 -23s23.5 -33.666 23.5 -54.999zM332.001 1786c138.667 0 211 33.666 217 100.999c0 20.667 -7.83301 36.834 -23.5 48.501s-34.5 17.5 -56.5 17.5c-44.667 0 -84 -16.5 -118 -49.5
s-60.667 -71.167 -80 -114.5c18 -2 38.333 -3 61 -3zM473.001 2018c41.333 0 75.666 -13.165 102.999 -39.498s41 -59.833 41 -100.5c0 -34 -14.833 -63.333 -44.5 -88s-65.167 -42.5 -106.5 -53.5s-84.666 -16.5 -129.999 -16.5c-49.333 0 -88.5 4.33301 -117.5 13
s-52.167 25.334 -69.5 50.001c-9.33301 6.66699 -20.666 10 -33.999 10c-26 0 -59.333 -13.667 -100 -41l-18 68c46.667 24.667 87 37 121 37c38.667 0 68.667 -15 90 -45c14.667 27.333 29.167 51.166 43.5 71.499s32.333 41.666 54 63.999s46.667 39.666 75 51.999
s59.166 18.5 92.499 18.5z" />
    <glyph glyph-name="uniFB57" unicode="&#x67e;" horiz-adv-x="2247" arabic-form="final" 
d="M2228 20c-225.333 2.66699 -371.67 99.333 -439.003 290c-187.333 -195.333 -467.666 -293 -840.999 -293c-194.667 1.33301 -357.5 23.666 -488.5 66.999s-226.833 116 -287.5 218c-42.667 72.667 -64 153.667 -64 243c0 103.333 28 214.666 84 333.999
c78.667 -44.667 125 -70.667 139 -78l-21.5 -50.5c-12.333 -29 -20.666 -49.833 -24.999 -62.5s-9.16602 -31.834 -14.499 -57.501s-8 -50.167 -8 -73.5c0 -50 8.83301 -94.667 26.5 -134s40.334 -71.666 68.001 -96.999s62.5 -47.5 104.5 -66.5s83.167 -33.5 123.5 -43.5
s85.833 -18.667 136.5 -26c64.667 -9.33301 140.334 -14 227.001 -14c224 0 403.333 32.333 538 97s229.667 172.334 285 323.001c8.66699 24.667 18.667 54.667 30 90c21.333 -5.33301 48.666 -12.833 81.999 -22.5s56.666 -16.167 69.999 -19.5
c-20 -87.333 -30 -145.666 -30 -174.999v-10c2.66699 -93.333 30.667 -163.833 84 -211.5s129.666 -71.5 229 -71.5c22 0 40.667 -7.5 56 -22.5s23 -33.5 23 -55.5s-7.66699 -40.5 -23 -55.5s-34 -22.5 -56 -22.5h-8zM1221 -151.001l146 -146l-148 -148l-146 146z
M814.996 -152.001l146 -147l-148 -148l-146 147zM1023 -457.001l132 -132l-133 -133l-132 132z" />
    <glyph glyph-name="uniFB58" unicode="&#x67e;" horiz-adv-x="859" arabic-form="initial" 
d="M0 20c-21.333 0 -39.666 7.49902 -54.999 22.499s-23 33.5 -23 55.5s7.66699 40.5 23 55.5s33.666 22.5 54.999 22.5h111c42.667 0 79.167 0.5 109.5 1.5s65.166 4 104.499 9s72.166 11.833 98.499 20.5s51.333 21.334 75 38.001s40.834 36.667 51.501 60
c10.667 21.333 16 50.666 16 87.999c0 26 -3 54.5 -9 85.5s-11.333 54.333 -16 70s-13 42.167 -25 79.5c-12 40 -38.667 106 -80 198l142 71c64 -144 106 -268 126 -372c8.66699 -45.333 13 -88.666 13 -129.999c0 -115.333 -41 -208.333 -123 -279
c-41.333 -36 -92.666 -61 -153.999 -75s-136.333 -21 -225 -21h-215zM575 -202.001l146 -146l-148 -148l-146 146zM169 -203.001l146 -147l-148 -148l-146 147zM377 -508.001l132 -132l-133 -133l-132 132z" />
    <glyph glyph-name="uniFB59" unicode="&#x67e;" horiz-adv-x="859" arabic-form="medial" 
d="M-3 20c-22 0 -40.499 7.49902 -55.499 22.499s-22.5 33.5 -22.5 55.5s7.5 40.5 22.5 55.5s33.5 22.5 55.5 22.5h76c40.667 0 76.667 1 108 3s64.833 5.66699 100.5 11s66.5 13.5 92.5 24.5s50 24.667 72 41s38.667 37.666 50 63.999s17 56.5 17 90.5v12
c-4.66699 80.667 -17 156.334 -37 227.001c21.333 5.33301 47.666 12.833 78.999 22.5s54.666 16.5 69.999 20.5c12 -44 23.667 -110.167 35 -198.5s19.333 -145.5 24 -171.5c18 -97.333 75 -146 171 -146c22 0 40.833 -7.5 56.5 -22.5s23.5 -33.5 23.5 -55.5
s-7.66699 -40.5 -23 -55.5s-33.666 -22.5 -54.999 -22.5c-112.667 0 -203.667 46 -273 138c-49.333 -47.333 -119.333 -82.166 -210 -104.499s-191 -33.5 -301 -33.5h-76zM566.001 -206.001l146 -146l-148 -148l-146 146zM160.001 -207.001l146 -147l-148 -148l-146 147z
M368.001 -512.001l132 -132l-133 -133l-132 132z" />
    <glyph glyph-name="uniFB67" unicode="&#x679;" horiz-adv-x="2236" arabic-form="final" 
d="M2228 20c-225.333 2.66699 -371.67 99.333 -439.003 290c-187.333 -195.333 -467.666 -293 -840.999 -293c-194.667 1.33301 -357.5 23.666 -488.5 66.999s-226.833 116 -287.5 218c-42.667 72.667 -64 153.667 -64 243c0 103.333 28 214.666 84 333.999
c78.667 -44.667 125 -70.667 139 -78l-21.5 -50.5c-12.333 -29 -20.666 -49.833 -24.999 -62.5s-9.16602 -31.834 -14.499 -57.501s-8 -50.167 -8 -73.5c0 -50 8.83301 -94.667 26.5 -134s40.334 -71.666 68.001 -96.999s62.5 -47.5 104.5 -66.5s83.167 -33.5 123.5 -43.5
s85.833 -18.667 136.5 -26c64.667 -9.33301 140.334 -14 227.001 -14c224 0 403.333 32.333 538 97s229.667 172.334 285 323.001c8.66699 24.667 18.667 54.667 30 90c21.333 -5.33301 48.666 -12.833 81.999 -22.5s56.666 -16.167 69.999 -19.5
c-20 -87.333 -30 -145.666 -30 -174.999v-10c2.66699 -93.333 30.667 -163.833 84 -211.5s129.666 -71.5 229 -71.5c22 0 40.667 -7.5 56 -22.5s23 -33.5 23 -55.5s-7.66699 -40.5 -23 -55.5s-34 -22.5 -56 -22.5h-8zM1243 1226c46 0 85.3311 -12.1699 117.998 -36.5029
s49 -57.5 49 -99.5c0 -49.333 -19.667 -95.666 -59 -138.999c-80 -70 -178.333 -105 -295 -105h-28c-92.667 0 -189 19 -289 57c13.333 30 22 50.333 26 61c24.667 -9.33301 60.667 -20.666 108 -33.999l32 44l13 18c6.66699 9.33301 12 16.333 16 21
c8.66699 49.333 13 95.333 13 138c0 96 -11.333 208.333 -34 337l69 9c0.666992 -6.66699 2.33398 -21 5.00098 -43l6 -50l6 -60c2.66699 -29.333 4.33398 -47 5.00098 -53l3 -45c2 -17.333 3 -31.333 3 -42c0 -2 0.333008 -5.66699 1 -11s1 -9.66602 1 -12.999v-81
c37.333 35.333 74.333 64 111 86c46.667 27.333 86.667 41 120 41zM944.994 917.996c28.667 -3.33301 47.666 -5 56.999 -5c6 -0.666992 15.333 -1 28 -1h28c102.667 0 185 28 247 84c26 26 39 53 39 81c0 24.667 -8.83301 45 -26.5 61s-39.5 24 -65.5 24
c-21.333 0 -40.666 -3.83301 -57.999 -11.5s-38 -19.834 -62 -36.501c-54.667 -38.667 -98.667 -80 -132 -124c-4 -5.33301 -10 -12.666 -18 -21.999z" />
    <glyph glyph-name="uniFB68" unicode="&#x679;" horiz-adv-x="774" arabic-form="initial" 
d="M-5 20c-21.333 0 -39.666 7.5 -54.999 22.5s-23 33.5 -23 55.5s7.66699 40.5 23 55.5s33.666 22.5 54.999 22.5h125c2.66699 0 6.66699 -0.166992 12 -0.5s9 -0.5 11 -0.5c76 0 137.333 9.83301 184 29.5s81.667 53.167 105 100.5c10.667 21.333 16 50.666 16 87.999
c0 36 -6.33301 82.833 -19 140.5s-27.667 107.167 -45 148.5l-60 144l142 71c64 -144 106 -268 126 -372c8.66699 -45.333 13 -88.666 13 -129.999c0 -115.333 -41 -208.333 -123 -279c-73.333 -64 -187 -96 -341 -96h-146zM520 1485
c46 0 85.3311 -12.1699 117.998 -36.5029s49 -57.5 49 -99.5c0 -49.333 -19.667 -95.666 -59 -138.999c-80 -70 -178.333 -105 -295 -105h-28c-92.667 0 -189 19 -289 57c13.333 30 22 50.333 26 61c24.667 -9.33301 60.667 -20.666 108 -33.999l32 44l13 18
c6.66699 9.33301 12 16.333 16 21c8.66699 49.333 13 95.333 13 138c0 96 -11.333 208.333 -34 337l69 9c0.666992 -6.66699 2.33398 -21 5.00098 -43l6 -50l6 -60c2.66699 -29.333 4.33398 -47 5.00098 -53l3 -45c2 -16.667 3 -30.667 3 -42c0 -2 0.333008 -5.66699 1 -11
s1 -9.66602 1 -12.999v-81c37.333 35.333 74.333 64 111 86c46.667 27.333 86.667 41 120 41zM221.998 1177c28 -3.33301 46.999 -5 56.999 -5c6 -0.666992 15.333 -1 28 -1h28c102.667 0 185 28 247 84c26 26 39 53 39 81c0 24.667 -8.83301 45 -26.5 61s-39.5 24 -65.5 24
c-21.333 0 -40.666 -3.83301 -57.999 -11.5s-38 -19.834 -62 -36.501c-54.667 -38.667 -98.667 -80 -132 -124c-4 -5.33301 -10 -12.666 -18 -21.999z" />
    <glyph glyph-name="uniFB69" unicode="&#x679;" horiz-adv-x="859" arabic-form="medial" 
d="M-3 20c-22 0 -40.499 7.49902 -55.499 22.499s-22.5 33.5 -22.5 55.5s7.5 40.5 22.5 55.5s33.5 22.5 55.5 22.5h76c40.667 0 76.667 1 108 3s64.833 5.66699 100.5 11s66.5 13.5 92.5 24.5s50 24.667 72 41s38.667 37.666 50 63.999s17 56.5 17 90.5v12
c-4.66699 80.667 -17 156.334 -37 227.001c21.333 5.33301 47.666 12.833 78.999 22.5s54.666 16.5 69.999 20.5c12 -44 23.667 -110.167 35 -198.5s19.333 -145.5 24 -171.5c18 -97.333 75 -146 171 -146c22 0 40.833 -7.5 56.5 -22.5s23.5 -33.5 23.5 -55.5
s-7.66699 -40.5 -23 -55.5s-33.666 -22.5 -54.999 -22.5c-112.667 0 -203.667 46 -273 138c-49.333 -47.333 -119.333 -82.166 -210 -104.499s-191 -33.5 -301 -33.5h-76zM581.001 1375c46 0 85.3311 -12.1699 117.998 -36.5029s49 -57.5 49 -99.5
c0 -49.333 -19.667 -95.666 -59 -138.999c-80 -70 -178.333 -105 -295 -105h-28c-92.667 0 -189 19 -289 57c13.333 30 22 50.333 26 61c24.667 -9.33301 60.667 -20.666 108 -33.999l32 44l13 18c6.66699 9.33301 12 16.333 16 21c8.66699 49.333 13 95.333 13 138
c0 96 -11.333 208.333 -34 337l69 9c0.666992 -6.66699 2.33398 -21 5.00098 -43l6 -50l6 -60c2.66699 -29.333 4.33398 -47 5.00098 -53l3 -45c2 -16.667 3 -30.667 3 -42c0 -2 0.333008 -5.66699 1 -11s1 -9.66602 1 -12.999v-81c37.333 35.333 74.333 64 111 86
c46.667 27.333 86.667 41 120 41zM282.999 1067c28 -3.33301 46.999 -5 56.999 -5c6 -0.666992 15.333 -1 28 -1h28c102.667 0 185 28 247 84c26 26 39 53 39 81c0 24.667 -8.83301 45 -26.5 61s-39.5 24 -65.5 24c-21.333 0 -40.666 -3.83301 -57.999 -11.5
s-38 -19.834 -62 -36.501c-54.667 -38.667 -98.667 -80 -132 -124c-4 -5.33301 -10 -12.666 -18 -21.999z" />
    <glyph glyph-name="uniFB6A" unicode="&#x6a4;" horiz-adv-x="1959" arabic-form="isolated" 
d="M326 769c-29.333 -72.667 -44 -142.671 -44 -210.004c0 -62.667 14.333 -117.667 43 -165c48 -77.333 128.833 -134 242.5 -170s247.167 -54 400.5 -54h41c264.667 0 463.667 42.333 597 127c44 28 76.333 60.333 97 97c-49.333 -10.667 -98.666 -16 -147.999 -16
c-144.667 0 -255.667 41.333 -333 124c-38.667 44.667 -58 104.334 -58 179.001c0 72.667 13.333 140.667 40 204s61.334 115 104.001 155c50.667 48 106 72 166 72c82 0 157 -37.333 225 -112v-1c74 -81.333 125 -192.666 153 -333.999c8.66699 -44 13 -91 13 -141
c0 -51.333 -5.5 -98.166 -16.5 -140.499s-25.667 -79.5 -44 -111.5s-42.333 -60.667 -72 -86s-60.334 -46.666 -92.001 -63.999s-69.667 -32.333 -114 -45s-86.666 -22.5 -126.999 -29.5s-87.5 -12.5 -141.5 -16.5s-103.333 -6.66699 -148 -8s-96.334 -2 -155.001 -2
c-396.667 0 -652.334 98 -767.001 294c-42.667 73.333 -64 154.333 -64 243c0 106 21 201.667 63 287l69.5 -38zM1709 571.996c-16 78.667 -33.165 144.498 -51.498 197.498s-44.5 97.167 -78.5 132.5c-27.333 28.667 -61 46.334 -101 53.001
c-14 2.66699 -31.333 -3.66602 -52 -18.999c-32.667 -24 -61 -57.833 -85 -101.5s-36 -89.167 -36 -136.5c0 -30.667 6.5 -57.5 19.5 -80.5s31.167 -40.833 54.5 -53.5s49.166 -22 77.499 -28s59.166 -9 92.499 -9l70 4c37.333 4 68.333 9.33301 93 16zM1499 1486.99
l146 146l148 -148l-146 -146zM1093 1487.99l146 147l148 -148l-146 -147zM1316 1777.99l132 132l133 -133l-132 -132z" />
    <glyph glyph-name="uniFB6B" unicode="&#x6a4;" horiz-adv-x="2106" arabic-form="final" 
d="M326 764c-36 -80 -53.999 -156.001 -53.999 -228.001c0 -104 41.667 -188.667 125 -254c109.333 -86.667 297 -130 563 -130h52c123.333 0 261.666 13.667 414.999 41c-79.333 64 -129 141.333 -149 232c-6.66699 30 -10 55.333 -10 76
c0 100.667 33.667 194.334 101 281.001c70.667 90.667 155.334 136 254.001 136c106 0 191 -45.667 255 -137c46 -64.667 69 -146.334 69 -245.001c0 -63.333 -9.33301 -118.333 -28 -165s-45 -93 -79 -139c-2 -2.66699 -10 -11 -24 -25c120 -20.667 217.333 -31 292 -31
c22 0 40.667 -7.5 56 -22.5s23 -33.5 23 -55.5c0 -21.333 -7.83301 -39.666 -23.5 -54.999s-34.167 -23 -55.5 -23c-170.667 0 -327.334 24.333 -470.001 73l-67 -22c-130 -48.667 -333.333 -73 -610 -73c-407.333 2 -668 100.333 -782 295c-42.667 72 -64 153.333 -64 244
c0 97.333 24 198.333 72 303l69.5 -38zM1629 262.999c67.333 38 115.333 79.001 144 123.001c29.333 44.667 44 92 44 142c0 64.667 -14.333 116.667 -43 156s-70 63.333 -124 72c-12 2 -21 3 -27 3c-43.333 0 -81 -14.333 -113 -43s-56.667 -63.334 -74 -104.001
c-13.333 -31.333 -20 -70 -20 -116c0 -39.333 18.667 -82 56 -128c42.667 -51.333 95 -86.333 157 -105zM1641 1274l146 146l148 -148l-146 -146zM1235 1275l146 147l148 -148l-146 -147zM1458 1565l132 132l133 -133l-132 -132z" />
    <glyph glyph-name="uniFB6C" unicode="&#x6a4;" horiz-adv-x="896" arabic-form="initial" 
d="M536 887c-34 40 -69.999 60 -107.999 60c-27.333 0 -59.333 -18.333 -96 -55c-24 -24 -44 -54.667 -60 -92s-24 -77.333 -24 -120c0 -34 9 -61 27 -81h-1c38 -48.667 118.667 -73 242 -73h94c11.333 0 31.666 1.33301 60.999 4c-12.667 156.667 -57.667 276 -135 358v-1z
M-2.99902 20c-20.667 0 -38.832 7.66895 -54.499 23.002s-23.5 33.666 -23.5 54.999c0 22 7.83301 40.5 23.5 55.5s34.5 22.5 56.5 22.5c66 0 123.167 1.16699 171.5 3.5s99.333 7.33301 153 15s99.834 18.334 138.501 32.001s75.5 32.334 110.5 56.001
s64.167 52.167 87.5 85.5h-154c-72 0 -136.5 11.167 -193.5 33.5s-102.5 53.5 -136.5 93.5c-18.667 15.333 -32.667 40.166 -42 74.499s-14 70.833 -14 109.5c0 70 14.667 138.333 44 205c40.667 93.333 92.667 157.666 156 192.999c33.333 18.667 69.333 28 108 28
c82 0 157 -37 225 -111c78 -86.667 129.667 -202 155 -346c8 -44.667 12 -90.334 12 -137.001c0 -56.667 -7.5 -108.167 -22.5 -154.5s-35.333 -86.333 -61 -120s-57.834 -63.167 -96.501 -88.5s-79.667 -46 -123 -62s-92 -29 -146 -39s-107.333 -17 -160 -21
s-109.334 -6 -170.001 -6h-44zM401.003 1388l146 146l148 -148l-146 -146zM-4.99707 1389l146 147l148 -148l-146 -147zM218.003 1679l132 132l133 -133l-132 -132z" />
    <glyph glyph-name="uniFB6D" unicode="&#x6a4;" horiz-adv-x="1009" arabic-form="medial" 
d="M508 761c-46 0 -91.333 -22.3311 -136 -66.998c-50.667 -50.667 -76 -117 -76 -199c0 -39.333 19.333 -81 58 -125c42.667 -48.667 97.667 -88.334 165 -119.001c82.667 36.667 137.667 97.667 165 183c7.33301 22.667 11 46.667 11 72
c0 49.333 -11.667 95.166 -35 137.499s-52 74.5 -86 96.5c-22 14 -44 21 -66 21zM0 20.002c-22.667 0 -41.3359 7.33398 -56.0029 22.001s-22 33.334 -22 56.001s7.33301 41.334 22 56.001s33.334 22 56.001 22c95.333 0 198.333 7 309 21
c-77.333 69.333 -125.666 143.666 -144.999 222.999c-6.66699 28 -10 52 -10 72c0 85.333 19.833 161.166 59.5 227.499s90.5 118.5 152.5 156.5c42.667 26 90.334 40 143.001 42c78 -4 143.333 -29 196 -75s90.667 -104 114 -174c14.667 -44 22 -90.333 22 -139
c0 -118 -45 -225.667 -135 -323c98 -20.667 202 -31 312 -31c22.667 0 41.5 -7.33301 56.5 -22s22.5 -33.334 22.5 -56.001c0 -22 -7.5 -40.5 -22.5 -55.5s-33.833 -22.5 -56.5 -22.5h-9c-181.333 0 -343.333 24 -486 72c-123.333 -48 -295 -72 -515 -72h-8zM502.998 1261
l146 146l148 -148l-146 -146zM96.998 1262l146 147l148 -148l-146 -147zM319.998 1552l132 132l133 -133l-132 -132z" />
    <glyph glyph-name="uniFB7B" unicode="&#x686;" horiz-adv-x="1587" arabic-form="final" 
d="M1003 83l137 -137l-139 -138l-136 136zM624 82l136 -138l-138 -138l-136 137zM818 -203l124 -124l-125 -124l-123 123zM1681 96c0 -21.333 -7.8291 -39.3389 -23.4961 -54.0059s-34.167 -22 -55.5 -22c-220.667 0 -376.667 53.667 -468 161
c-48 68 -73.667 142.667 -77 224c-1.33301 10.667 -1 23.334 1 38.001c-164.667 -16 -311.834 -56 -441.501 -120s-229.167 -147.667 -298.5 -251c-44 -66 -69 -136.333 -75 -211v-9c0 -194 104.333 -330.667 313 -410c87.333 -33.333 186.333 -50 297 -50
c103.333 0 196 14 278 42s161 68.667 237 122l90 -129c-198.667 -132.667 -413 -199 -643 -199c-159.333 0 -296.5 30.833 -411.5 92.5s-200.5 147.5 -256.5 257.5c-38 74.667 -57 160.334 -57 257.001v21c0 140.667 52.333 271.334 157 392.001
c96.667 110.667 223 195.834 379 255.501s335 89.5 537 89.5h35c-34 18.667 -72.167 43.334 -114.5 74.001l-111 83.5c-31.667 25 -69.5 50.667 -113.5 77s-87.333 46.5 -130 60.5c-34 11.333 -70 17 -108 17c-38.667 0 -76 -8.66699 -112 -26s-64.333 -35.666 -85 -54.999
s-43.334 -43.333 -68.001 -72s-44.667 -54 -60 -76l-65 42.5l-64 41.5c88 136.667 188.333 228.667 301 276c42.667 18 88.334 27 137.001 27c101.333 0 201.666 -26.333 300.999 -79c32.667 -17.333 67.5 -38.333 104.5 -63s67.333 -46 91 -64l98.5 -76.5l89 -69.5
c43.333 -32.667 86.666 -61.667 129.999 -87l-51 -159l-154 -10c-0.666992 -3.33301 -1 -8.33301 -1 -15v-14c0 -41.333 6.83301 -77.333 20.5 -108s31.5 -55 53.5 -73s50.5 -32.167 85.5 -42.5s70.167 -17.333 105.5 -21s76.666 -5.5 123.999 -5.5
c21.333 0 39.833 -8 55.5 -24s23.5 -34.667 23.5 -56z" />
    <glyph glyph-name="uniFB7C" unicode="&#x686;" horiz-adv-x="1559" arabic-form="initial" 
d="M-1 20c-21.333 0 -39.999 7.66895 -55.999 23.002s-24 33.666 -24 54.999c0 22 7.83301 40.5 23.5 55.5s34.5 22.5 56.5 22.5h198c166 0 348.333 33.333 547 100c152 50.667 325.667 125 521 223l-298 124l-34.5 17c-17.667 8.66699 -30.167 14.667 -37.5 18l-35 16.5
c-16 7.66699 -28.833 13.5 -38.5 17.5s-21.667 8.66699 -36 14s-27.833 9.83301 -40.5 13.5s-25.667 7.16699 -39 10.5c-26 6 -50 9 -72 9c-65.333 0 -128.666 -32.667 -189.999 -98c-36 -38 -69.667 -85.333 -101 -142l-134 80c24 52.667 59.667 104.667 107 156
s94.666 89.666 141.999 114.999c58 30.667 116.667 46 176 46c56 0 120.667 -13.333 194 -40c72.667 -26.667 174.834 -73.167 306.501 -139.5s233.5 -112.5 305.5 -138.5c3.33301 -20 8.66602 -46.5 15.999 -79.5s12.666 -58.833 15.999 -77.5
c-33.333 -12.667 -99 -43.667 -197 -93c-292 -142 -553.667 -235.333 -785 -280c-96 -18.667 -193.667 -28 -293 -28h-198zM954.001 -144.998l146 -146l-148 -148l-146 146zM548.001 -145.998l146 -147l-148 -148l-146 147zM756.001 -450.998l132 -132l-133 -133l-132 132z
" />
    <glyph glyph-name="uniFB7D" unicode="&#x686;" horiz-adv-x="1663" arabic-form="medial" 
d="M0 20c-22 0 -40.667 7.33496 -56 22.002s-23 33 -23 55c0 21.333 7.83301 39.833 23.5 55.5s34.167 23.5 55.5 23.5h183c162 0 330.333 30.333 505 91c108.667 37.333 258.334 103.666 449.001 198.999l60 30c-50 17.333 -133.833 55 -251.5 113
s-212.5 96.333 -284.5 115c-36 9.33301 -69.333 14 -100 14c-64.667 0 -127.667 -32 -189 -96c-39.333 -41.333 -73.333 -89 -102 -143l-130 88c77.333 141.333 171.333 235.666 282 282.999c42 18 88.333 27 139 27c75.333 0 167.666 -22.333 276.999 -67
c48.667 -20 118.5 -53.167 209.5 -99.5s159.167 -79.166 204.5 -98.499c48 -20 93 -34.333 135 -43l17 -78c7.33301 -34 12.666 -60 15.999 -78l-27 -12c-14 -7.33301 -31.833 -16 -53.5 -26s-38.5 -18 -50.5 -24c19.333 -66 61.5 -115 126.5 -147s144.167 -48 237.5 -48h14
c21.333 0 39.833 -7.83301 55.5 -23.5s23.5 -34.167 23.5 -55.5c0 -22 -7.66699 -40.333 -23 -55s-34 -22 -56 -22h-14c-127.333 0 -235.166 24.167 -323.499 72.5s-149.833 117.5 -184.5 207.5c-127.333 -63.333 -245.5 -116.333 -354.5 -159
s-223.5 -75.334 -343.5 -98.001c-84.667 -16 -172.667 -24 -264 -24zM953 -150.998l146 -146l-148 -148l-146 146zM547 -151.998l146 -147l-148 -148l-146 147zM755 -456.998l132 -132l-133 -133l-132 132z" />
    <glyph glyph-name="uniFB89" unicode="&#x688;" horiz-adv-x="1242" arabic-form="final" 
d="M1249 20c-138 0 -244.002 46.9971 -318.002 140.997c-10 -8 -20.667 -15.667 -32 -23s-25.166 -15 -41.499 -23s-28.666 -13.833 -36.999 -17.5l-45 -19.5c-21.667 -9.33301 -34.5 -14.666 -38.5 -15.999c-72 -28 -154.333 -42 -247 -42c-110 0 -212.667 32.667 -308 98
c-33.333 22.667 -62 46 -86 70l91 126c106 -89.333 215.333 -134 328 -134c100.667 0 203.667 34.667 309 104c12 8 21.667 15.667 29 23l-313 754c51.333 20.667 99.333 41 144 61l315 -759c22 -58 40.333 -96.333 55 -115c6 -8.66699 12.667 -16 20 -22
c38 -33.333 96.333 -50 175 -50c21.333 0 39.833 -7.66699 55.5 -23s23.5 -33.666 23.5 -54.999s-7.83301 -39.666 -23.5 -54.999s-34.167 -23 -55.5 -23zM704.998 1644c46 0 85.3311 -12.1699 117.998 -36.5029s49 -57.5 49 -99.5c0 -49.333 -19.667 -95.666 -59 -138.999
c-80 -70 -178.333 -105 -295 -105h-28c-92.667 0 -189 19 -289 57c13.333 30 22 50.333 26 61c24.667 -9.33301 60.667 -20.666 108 -33.999l32 44l13 18c6.66699 9.33301 12 16.333 16 21c8.66699 49.333 13 95.333 13 138c0 96 -11.333 208.333 -34 337l69 9
c0.666992 -6.66699 2.33398 -21 5.00098 -43l6 -50l6 -60c2.66699 -29.333 4.33398 -47 5.00098 -53l3 -45c2 -17.333 3 -31.333 3 -42c0 -2 0.333008 -5.66699 1 -11s1 -9.66602 1 -12.999v-81c37.333 35.333 74.333 64 111 86c46.667 27.333 86.667 41 120 41z
M406.996 1335.99c28.667 -3.33301 47.666 -5 56.999 -5c6 -0.666992 15.333 -1 28 -1h28c102.667 0 185 28 247 84c26 26 39 53 39 81c0 24.667 -8.83301 45 -26.5 61s-39.5 24 -65.5 24c-21.333 0 -40.666 -3.83301 -57.999 -11.5s-38 -19.834 -62 -36.501
c-54.667 -38.667 -98.667 -80 -132 -124c-4 -5.33301 -10 -12.666 -18 -21.999z" />
    <glyph glyph-name="uniFB8B" unicode="&#x698;" horiz-adv-x="871" arabic-form="final" 
d="M875 20c-47.333 0 -87.499 8.66602 -120.499 25.999s-66.167 42.666 -99.5 75.999v-53c0 -105.333 -31 -209.666 -93 -312.999c-112 -185.333 -291.333 -340.666 -538 -465.999c-6.66699 14 -17.667 35.833 -33 65.5s-27.666 54.5 -36.999 74.5
c216 112 370.667 241 464 387c53.333 82.667 80 167 80 253v20c0 4 -0.666992 10.667 -2 20c-3.33301 22 -6.83301 43.667 -10.5 65s-8.5 44.833 -14.5 70.5l-14 60.5c-3.33301 14.667 -9.5 37.5 -18.5 68.5s-14.5 50.333 -16.5 58s-8.5 29.5 -19.5 65.5
s-16.833 55 -17.5 57l150 46c50 -152 101 -260.333 153 -325c25.333 -32 52.166 -56.667 80.499 -74s62.166 -26 101.499 -26h5c21.333 0 39.833 -7.83301 55.5 -23.5s23.5 -34.167 23.5 -55.5c0 -22 -7.66699 -40.333 -23 -55s-34 -22 -56 -22zM497.001 966.999l146 146
l148 -148l-146 -146zM91.001 967.999l146 147l148 -148l-146 -147zM314.001 1258l132 132l133 -133l-132 -132z" />
    <glyph glyph-name="uniFB8D" unicode="&#x691;" horiz-adv-x="822" arabic-form="final" 
d="M825 20c-47.333 0 -87.499 8.66602 -120.499 25.999s-66.167 42.666 -99.5 75.999v-53c0 -105.333 -31 -209.666 -93 -312.999c-112 -185.333 -291.333 -340.666 -538 -465.999c-6.66699 14 -17.667 35.833 -33 65.5s-27.666 54.5 -36.999 74.5
c216 112 370.667 241 464 387c53.333 82.667 80 167 80 253v20c0 4 -0.666992 10.667 -2 20c-3.33301 22 -6.83301 43.667 -10.5 65s-8.5 44.833 -14.5 70.5l-14 60.5c-3.33301 14.667 -9.5 37.5 -18.5 68.5s-14.5 50.333 -16.5 58s-8.5 29.5 -19.5 65.5
s-16.833 55 -17.5 57l150 46c50 -152 101 -260.333 153 -325c25.333 -32 52.166 -56.667 80.499 -74s62.166 -26 101.499 -26h5c21.333 0 39.833 -7.83301 55.5 -23.5s23.5 -34.167 23.5 -55.5c0 -22 -7.66699 -40.333 -23 -55s-34 -22 -56 -22zM588.001 1267
c46 0 85.3311 -12.1699 117.998 -36.5029s49 -57.5 49 -99.5c0 -49.333 -19.667 -95.666 -59 -138.999c-80 -70 -178.333 -105 -295 -105h-28c-92.667 0 -189 19 -289 57c13.333 30 22 50.333 26 61c24.667 -9.33301 60.667 -20.666 108 -33.999l32 44l13 18
c6.66699 9.33301 12 16.333 16 21c8.66699 49.333 13 95.333 13 138c0 96 -11.333 208.333 -34 337l69 9c0.666992 -6.66699 2.33398 -21 5.00098 -43l6 -50l6 -60c2.66699 -29.333 4.33398 -47 5.00098 -53l3 -45c2 -17.333 3 -31.333 3 -42c0 -2 0.333008 -5.66699 1 -11
s1 -9.66602 1 -12.999v-81c37.333 35.333 74.333 64 111 86c46.667 27.333 86.667 41 120 41zM289.999 958.996c28.667 -3.33301 47.666 -5 56.999 -5c6 -0.666992 15.333 -1 28 -1h28c102.667 0 185 28 247 84c26 26 39 53 39 81c0 24.667 -8.83301 45 -26.5 61
s-39.5 24 -65.5 24c-21.333 0 -40.666 -3.83301 -57.999 -11.5s-38 -19.834 -62 -36.501c-54.667 -38.667 -98.667 -80 -132 -124c-4 -5.33301 -10 -12.666 -18 -21.999z" />
    <glyph glyph-name="uniFB8F" unicode="&#x6a9;" horiz-adv-x="2321" arabic-form="final" 
d="M320 733c-54.667 -92 -82.001 -172.667 -82.001 -242c0 -35.333 7.33301 -68 22 -98c20.667 -40 53.834 -74.5 99.501 -103.5s99.334 -51.167 161.001 -66.5s124.667 -26.333 189 -33s133.166 -10 206.499 -10c6.66699 0 15.5 -0.166992 26.5 -0.5s18.5 -0.5 22.5 -0.5
c10 -0.666992 25 -1 45 -1c4.66699 0 11.667 -0.166992 21 -0.5s16 -0.5 20 -0.5c167.333 0 317 23 449 69c70 27.333 119.333 59.333 148 96c29.333 37.333 44 78.666 44 123.999c0 66.667 -30.667 142.667 -92 228c-48.667 68 -106 132.667 -172 194s-143 126 -231 194
c2 22 5.33301 53 10 93s8 70.333 10 91l868 373l59 -145l-806 -341c186 -128.667 328 -271 426 -427c23.333 -36.667 50 -95 80 -175s56.667 -138.333 80 -175c84.667 -131.333 214 -198 388 -200h8c22.667 0 41.334 -7.33301 56 -22c14.667 -14.667 22 -33.334 22 -56.001
c0 -21.333 -7.5 -39.666 -22.5 -54.999s-33.5 -23 -55.5 -23c-115.333 0 -217.666 24 -307 72c-89.333 48 -163.333 112.667 -222 194c-44.667 -73.333 -111.667 -131.333 -201 -174c-136.667 -61.333 -317 -92 -541 -92h-92c-346.667 0 -592 58.667 -736 176
c-38 28.667 -72.333 71.334 -103 128.001l2 -2c-27.333 56 -41 116 -41 180c0 39.333 6 79.333 18 120s24.167 73.167 36.5 97.5s28.833 54.5 49.5 90.5c2 2.66699 3.33301 4.66699 4 6s1.66699 3 3 5s2.33301 4 3 6z" />
    <glyph glyph-name="uniFB90" unicode="&#x6a9;" horiz-adv-x="936" arabic-form="initial" 
d="M-12 20c-24 0 -44.6709 7.16699 -62.0039 21.5s-26 32.833 -26 55.5c0 24 8.33301 43.167 25 57.5s37.667 21.5 63 21.5h105c42 0 78 0.5 108 1.5s63.333 3.66699 100 8s67.834 10.166 93.501 17.499s51.5 17.666 77.5 30.999s46.833 29.333 62.5 48
s28.334 41.834 38.001 69.501s14.5 58.834 14.5 93.501c0 49.333 -8.66699 93 -26 131s-42 78.667 -74 122c-96 131.333 -222.333 260.333 -379 387c2 22 5.5 52.667 10.5 92s8.5 69.333 10.5 90l349 149.5l443 189.5c28 -62.667 49 -111 63 -145l-728 -306
c65.333 -55.333 120.833 -104.5 166.5 -147.5s93.834 -96.667 144.501 -161s90.334 -128.5 119.001 -192.5c34.667 -77.333 52 -152.333 52 -225c0 -73.333 -19 -145 -57 -215h1c-56.667 -100 -152.667 -162.667 -288 -188c-19.333 -4.66699 -47 -7 -83 -7z" />
    <glyph glyph-name="uniFB91" unicode="&#x6a9;" horiz-adv-x="1169" arabic-form="medial" 
d="M1 20c-22 0 -40.668 7.49902 -56.001 22.499s-23 33.5 -23 55.5c0 21.333 7.83301 39.666 23.5 54.999s34.167 23 55.5 23h339c56.667 0 111 22 163 66c53.333 45.333 83 93 89 143v14c0 68.667 -24.333 147 -73 235c-71.333 128 -166.666 246.667 -285.999 356
c-43.333 40 -76 68.333 -98 85c0 2.66699 4 36 12 100l12 99l854 368c28 -62.667 49 -111 63 -145l-807 -339c151.333 -122 274 -266.333 368 -433l84.5 -155.5c40.333 -75 72.5 -132.5 96.5 -172.5c27.333 -44 54 -80.333 80 -109s61.333 -54.167 106 -76.5
s95 -34.166 151 -35.499h43c21.333 0 39.666 -7.66699 54.999 -23s23 -33.666 23 -54.999c0 -22 -7.5 -40.5 -22.5 -55.5s-33.5 -22.5 -55.5 -22.5h-8c-80.667 0 -156 11.333 -226 34c-82 30.667 -164 98 -246 202c-32.667 -60 -65 -104.667 -97 -134h1
c-69.333 -60.667 -167.666 -94.667 -294.999 -102h-326z" />
    <glyph glyph-name="uniFB93" unicode="&#x6af;" horiz-adv-x="2309" arabic-form="final" 
d="M320 733c-54.667 -92 -82.001 -172.667 -82.001 -242c0 -35.333 7.33301 -68 22 -98c20.667 -40 53.834 -74.5 99.501 -103.5s99.334 -51.167 161.001 -66.5s124.667 -26.333 189 -33s133.166 -10 206.499 -10c6.66699 0 15.5 -0.166992 26.5 -0.5s18.5 -0.5 22.5 -0.5
c10 -0.666992 25 -1 45 -1c4.66699 0 11.667 -0.166992 21 -0.5s16 -0.5 20 -0.5c167.333 0 317 23 449 69c70 27.333 119.333 59.333 148 96c29.333 37.333 44 78.666 44 123.999c0 66.667 -30.667 142.667 -92 228c-48.667 68 -106 132.667 -172 194s-143 126 -231 194
c2 22 5.33301 53 10 93s8 70.333 10 91l868 373l59 -145l-806 -341c186 -128.667 328 -271 426 -427c23.333 -36.667 50 -95 80 -175s56.667 -138.333 80 -175c84.667 -131.333 214 -198 388 -200h8c22.667 0 41.334 -7.33301 56 -22c14.667 -14.667 22 -33.334 22 -56.001
c0 -21.333 -7.5 -39.666 -22.5 -54.999s-33.5 -23 -55.5 -23c-115.333 0 -217.666 24 -307 72c-89.333 48 -163.333 112.667 -222 194c-44.667 -73.333 -111.667 -131.333 -201 -174c-136.667 -61.333 -317 -92 -541 -92h-92c-346.667 0 -592 58.667 -736 176
c-38 28.667 -72.333 71.334 -103 128.001l2 -2c-27.333 56 -41 116 -41 180c0 39.333 6 79.333 18 120s24.167 73.167 36.5 97.5s28.833 54.5 49.5 90.5c2 2.66699 3.33301 4.66699 4 6s1.66699 3 3 5s2.33301 4 3 6zM2047 1794l-850.002 -370
c0.666992 14 1.83398 32 3.50098 54s2.83398 39.667 3.50098 53l402.5 173l401.5 173z" />
    <glyph glyph-name="uniFB94" unicode="&#x6af;" horiz-adv-x="941" arabic-form="initial" 
d="M4 20c-24 0 -44.6709 7.16699 -62.0039 21.5s-26 32.833 -26 55.5c0 24 8.33301 43.167 25 57.5s37.667 21.5 63 21.5h105c42 0 78 0.5 108 1.5s63.333 3.66699 100 8s67.834 10.166 93.501 17.499s51.5 17.666 77.5 30.999s46.833 29.333 62.5 48
s28.334 41.834 38.001 69.501s14.5 58.834 14.5 93.501c0 49.333 -8.66699 93 -26 131s-42 78.667 -74 122c-96 131.333 -222.333 260.333 -379 387c2 22 5.5 52.667 10.5 92s8.5 69.333 10.5 90l349 149.5l443 189.5c28 -62.667 49 -111 63 -145l-728 -306
c65.333 -55.333 120.833 -104.5 166.5 -147.5s93.834 -96.667 144.501 -161s90.334 -128.5 119.001 -192.5c34.667 -77.333 52 -152.333 52 -225c0 -73.333 -19 -145 -57 -215h1c-56.667 -100 -152.667 -162.667 -288 -188c-19.333 -4.66699 -47 -7 -83 -7zM887.996 1746
l-390.002 -165l-391 -165c0.666992 14 1.83398 32 3.50098 54s2.83398 39.333 3.50098 52l735 307z" />
    <glyph glyph-name="uniFB95" unicode="&#x6af;" horiz-adv-x="1187" arabic-form="medial" 
d="M1 20c-22 0 -40.668 7.49902 -56.001 22.499s-23 33.5 -23 55.5c0 21.333 7.83301 39.666 23.5 54.999s34.167 23 55.5 23h339c56.667 0 111 22 163 66c53.333 45.333 83 93 89 143v14c0 68.667 -24.333 147 -73 235c-71.333 128 -166.666 246.667 -285.999 356
c-43.333 40 -76 68.333 -98 85c0 2.66699 4 36 12 100l12 99l854 368c28 -62.667 49 -111 63 -145l-807 -339c151.333 -122 274 -266.333 368 -433l84.5 -155.5c40.333 -75 72.5 -132.5 96.5 -172.5c27.333 -44 54 -80.333 80 -109s61.333 -54.167 106 -76.5
s95 -34.166 151 -35.499h43c21.333 0 39.666 -7.66699 54.999 -23s23 -33.666 23 -54.999c0 -22 -7.5 -40.5 -22.5 -55.5s-33.5 -22.5 -55.5 -22.5h-8c-80.667 0 -156 11.333 -226 34c-82 30.667 -164 98 -246 202c-32.667 -60 -65 -104.667 -97 -134h1
c-69.333 -60.667 -167.666 -94.667 -294.999 -102h-326zM939.999 1787l-391.002 -165l-390 -165c0.666992 14 1.83398 32 3.50098 54s2.83398 39.333 3.50098 52l735 307z" />
    <glyph glyph-name="uniFB9F" unicode="&#x6ba;" horiz-adv-x="1709" arabic-form="final" 
d="M1786 98c0 -21.333 -7.83398 -39.665 -23.501 -54.998s-34.167 -23 -55.5 -23c-86 0 -173 26 -261 78v-18c0 -2.66699 0.333008 -6.66699 1 -12s1 -9.33301 1 -12v-25c0 -3.33301 0.166992 -7 0.5 -11s0.5 -6.33301 0.5 -7c0 -88 -12.667 -174.333 -38 -259
c-38 -102 -97.167 -187 -177.5 -255s-176.833 -115 -289.5 -141c-72 -16.667 -142 -25 -210 -25c-366.667 0 -581.667 166 -645 498c-6.66699 36 -10 75.333 -10 118c0 195.333 55 386 165 572c14.667 -10 35.167 -25.167 61.5 -45.5s48.166 -36.5 65.499 -48.5
c-32.667 -52 -65 -136 -97 -252c-22 -82 -34 -155.333 -36 -220v-17c0 -31.333 2.33301 -59 7 -83c0 -2 -0.166992 -4.33301 -0.5 -7s-0.5 -5 -0.5 -7c0 -44.667 16.667 -91.667 50 -141c62.667 -93.333 158 -157.333 286 -192c45.333 -12 94.333 -18 147 -18
c103.333 0 194.333 16 273 48s142 77.333 190 136c66.667 81.333 100 192.333 100 333c0 61.333 -7.16699 123.666 -21.5 186.999s-29 114 -44 152s-36.167 86.333 -63.5 145c-6 13.333 -11.667 24.666 -17 33.999l133 84c8.66699 -12.667 28.334 -51.667 59.001 -117
c38 -72 74 -129 108 -171c39.333 -49.333 77.833 -85.833 115.5 -109.5s86.834 -35.5 147.501 -35.5c22 0 40.667 -7.5 56 -22.5s23 -33.5 23 -55.5z" />
    <glyph glyph-name="uniFBA5" unicode="&#x6c0;" horiz-adv-x="1090" arabic-form="final" 
d="M1090 20c-79.333 0 -143.498 12.6641 -192.498 37.9971s-90.5 66.333 -124.5 123c-90 -14 -166.333 -21 -229 -21c-166.667 0 -281.334 39.333 -344.001 118c-32 39.333 -48 88.333 -48 147c0 42.667 7 78.834 21 108.501s34 60.5 60 92.5
c91.333 110 227 198.333 407 265l-15 145l157 34c7.33301 -36 13.666 -93.833 18.999 -173.5s11.333 -136.834 18 -171.501c17.333 -150.667 34.666 -266 51.999 -346c6.66699 -31.333 12.834 -56.166 18.501 -74.499s14 -37.166 25 -56.499s25.333 -34.333 43 -45
s39.167 -18 64.5 -22c22 -3.33301 44.667 -5 68 -5c22 0 40.667 -7.5 56 -22.5s23 -33.5 23 -55.5c0 -21.333 -7.83301 -39.666 -23.5 -54.999s-34.167 -23 -55.5 -23zM634.002 719.997c-36.667 -15.333 -67.332 -28.667 -91.999 -40s-52.667 -26 -84 -44
s-58.5 -37.833 -81.5 -59.5s-41.833 -45.167 -56.5 -70.5c-11.333 -20 -17 -42.333 -17 -67c0 -83.333 78.333 -125 235 -125c62 0 122.333 6 181 18c-16.667 86 -36.334 218.667 -59.001 398zM486.004 1253c-38.667 16 -70.832 40.834 -96.499 74.501
s-38.5 73.5 -38.5 119.5c0 63.333 22.167 114.5 66.5 153.5s99.166 58.5 164.499 58.5c28 0 68 -6.33301 120 -19l-28 -92c-32 8.66699 -62.667 13 -92 13c-23.333 0 -44 -4 -62 -12v2c-19.333 -8 -36 -21.667 -50 -41s-21 -40.333 -21 -63c0 -10 2.66699 -22 8 -36l-1 1
c8.66699 -22.667 25 -42 49 -58s50.333 -24 79 -24c17.333 0 35.833 3.5 55.5 10.5s33.167 12.667 40.5 17l42 25.5c16 9.33301 30.333 19 43 29l59 -78l-41.5 -28.5c-13.667 -9 -30.5 -19.333 -50.5 -31l-42.5 -24.5l-56 -30.5c-29 -15.667 -46.167 -24.834 -51.5 -27.501
l-227 -126l-48 87z" />
    <glyph glyph-name="uniFBA6" unicode="&#x6c1;" horiz-adv-x="983" arabic-form="isolated" 
d="M389 842l-74.999 68.002l107 114c80 -71.333 151.333 -141 214 -209c77.333 -88.667 136.333 -173.334 177 -254.001c40.667 -81.333 61 -154 61 -218c0 -172 -97 -278.333 -291 -319c-26.667 -5.33301 -59 -8 -97 -8c-74 0 -141.333 14.667 -202 44
s-106.334 67.666 -137.001 114.999c-31.333 47.333 -47 103.333 -47 168c0 58 13.333 117 40 177c40 90 101.667 176.667 185 260zM241.001 344.002c0 -51.333 24.666 -92.332 73.999 -122.999s106 -46 170 -46c2 0 6 0.166992 12 0.5s11 0.5 15 0.5
c40.667 0 77.834 7.33301 111.501 22s60.5 34 80.5 58c17.333 20.667 26 48 26 82c0 46 -20.667 102 -62 168c-43.333 69.333 -97 138.666 -161 207.999l-18 20l-16 -15c-92 -78 -161 -167 -207 -267c-16.667 -36 -25 -72 -25 -108z" />
    <glyph glyph-name="uniFBA8" unicode="&#x6c1;" horiz-adv-x="728" arabic-form="initial" 
d="M0 20c-21.333 0 -39.665 7.5 -54.998 22.5s-23 33.5 -23 55.5s7.66699 40.5 23 55.5s33.666 22.5 54.999 22.5h80c2.66699 0 6.66699 -0.166992 12 -0.5s9 -0.5 11 -0.5c76 0 137.333 9.83301 184 29.5s81.667 53.167 105 100.5c10.667 21.333 16 50.666 16 87.999
c0 36 -6.33301 82.833 -19 140.5s-27.667 107.167 -45 148.5l-60 144l141 74c65.333 -148 107.666 -273 126.999 -375c8.66699 -45.333 13 -88.666 13 -129.999c0 -115.333 -41 -208.333 -123 -279c-73.333 -64 -187 -96 -341 -96h-101zM496.001 -453
c-30.667 3.33301 -58.5029 14.502 -83.5029 33.502s-44.167 41.5 -57.5 67.5c-8.66699 18 -13.667 38 -15 60c2 48.667 11.167 91.667 27.5 129s39.5 78.333 69.5 123c29.333 43.333 53 76.666 71 99.999l79 -52c-2.66699 -4.66699 -10.167 -16.334 -22.5 -35.001
s-21.166 -32.334 -26.499 -41.001l-22 -36c-9.33301 -15.333 -17.166 -29.666 -23.499 -42.999s-12.166 -26.333 -17.499 -39c-8 -20 -12 -37.333 -12 -52c0 -22 8.66699 -40.667 26 -56c16.667 -14.667 46.667 -29.667 90 -45z" />
    <glyph glyph-name="uniFBA9" unicode="&#x6c1;" horiz-adv-x="1000" arabic-form="medial" 
d="M633 -451l-56 -31.002l-72 -41c-106 67.333 -187.667 152.333 -245 255h1c-48.667 86 -79 192 -91 318c-46.667 -14 -106 -24 -178 -30v155c18.667 1.33301 33 2.5 43 3.5s22.333 2.83301 37 5.5s26.334 6 35.001 10s17.334 9.66699 26.001 17s15.667 16 21 26
c16 30 25.333 53.667 28 71c0.666992 2.66699 3 8.33398 7 17.001l148 -53c-9.33301 -54.667 -14 -110 -14 -166c0 -155.333 54.667 -295.666 164 -420.999c19.333 108 46.166 199 80.499 273s83.833 129 148.5 165c64.667 35.333 143.334 53 236.001 53h27
c4 0 8.66699 -0.166992 14 -0.5s8.66602 -0.5 9.99902 -0.5h5v-155h-2h-1l-1 1c-2.66699 0.666992 -10.334 1 -23.001 1h-28c-106.667 0 -177.667 -25.667 -213 -77c-71.333 -102.667 -107 -234.667 -107 -396zM880 -701.002
c-30.667 3.33301 -58.5029 14.502 -83.5029 33.502s-44.167 41.5 -57.5 67.5c-8.66699 18 -13.667 38 -15 60c2 48.667 11.167 91.667 27.5 129s39.5 78.333 69.5 123c29.333 43.333 53 76.666 71 99.999l79 -52c-2.66699 -4.66699 -10.167 -16.334 -22.5 -35.001
s-21.166 -32.334 -26.499 -41.001l-22 -36c-9.33301 -15.333 -17.166 -29.666 -23.499 -42.999s-12.166 -26.333 -17.499 -39c-8 -20 -12 -37.333 -12 -52c0 -22 8.66699 -40.667 26 -56c16.667 -14.667 46.667 -29.667 90 -45z" />
    <glyph glyph-name="uniFBAB" unicode="&#x6be;" horiz-adv-x="1169" arabic-form="final" 
d="M734 721c-82.667 -67.333 -144.668 -162.333 -186.001 -285c-18.667 -54.667 -28 -112.667 -28 -174v-32c0 -5.33301 1.33301 -20 4 -44l46 7c84.667 14 151.834 48 201.501 102s74.5 125.667 74.5 215c0 88 -29 158 -87 210zM130.999 -64
c-20.667 1.33301 -38.332 9.49902 -52.999 24.499s-22 32.833 -22 53.5c0 8.66699 1.5 16.5 4.5 23.5s5.66699 12.667 8 17s7.66602 9 15.999 14s13.666 8 15.999 9l21.5 9c12 5 18.333 7.5 19 7.5l225 90c-2.66699 36 -4 62.333 -4 79c0 171.333 54 326.333 162 465
c20 25.333 36.333 45.333 49 60s30 31.167 52 49.5s44.333 32.5 67 42.5c20.667 9.33301 40.334 14 59.001 14c46.667 0 93.667 -27.667 141 -83c74.667 -88 112 -188 112 -300c0 -130 -35.667 -235.167 -107 -315.5s-166.333 -131.833 -285 -154.5l-21 -4l-32 -6
c38.667 -94.667 97.667 -195.667 177 -303c15.333 89.333 39.666 162.833 72.999 220.5s80.333 108.167 141 151.5c68.667 50.667 142.667 76 222 76c21.333 0 39.833 -7.66699 55.5 -23s23.5 -33.666 23.5 -54.999c0 -22 -7.66699 -40.5 -23 -55.5s-34 -22.5 -56 -22.5h-9
c-58 -2 -112 -28 -162 -78c-40 -40 -71.667 -96.667 -95 -170c-7.33301 -22.667 -11 -50 -11 -82c0 -81.333 27.667 -147.333 83 -198l-49.5 -58c-22.333 -26 -39.833 -47 -52.5 -63c-118.667 98 -217.667 198.333 -297 301c-77.333 100 -133.666 203 -168.999 309l-16 44z
" />
    <glyph glyph-name="uniFBAC" unicode="&#x6be;" horiz-adv-x="1444" arabic-form="initial" 
d="M0 20c-22.667 0 -41.999 7.66797 -57.999 23.001s-24 34 -24 56s8 40.333 24 55s35.333 22 58 22h9c136 0 255 7.33301 357 22c-60 58.667 -103.333 114.334 -130 167.001c-28 55.333 -42 108 -42 158c0 66.667 13.5 127.167 40.5 181.5s62.167 99.5 105.5 135.5
c36.667 30 76.667 52 120 66l-107 41l77 144c295.333 -110.667 518.666 -208.334 669.999 -293.001c107.333 -60 180 -116 218 -168c58.667 -80.667 88 -163.334 88 -248.001c0 -133.333 -66.333 -236 -199 -308l1 1c-63.333 -38.667 -165.333 -58 -306 -58
c-122.667 0 -234.667 20.333 -336 61c-120 -38.667 -305.667 -58 -557 -58h-9zM938.001 599.001v-28.001c0 -56 -17.333 -122.667 -52 -200c-34 -74 -79.667 -136.667 -137 -188c44.667 -9.33301 89.334 -14 134.001 -14h48c74 0 137.667 11.667 191 35s92 58 116 104
c14 26.667 21 55.334 21 86.001c0 58 -30.333 118.667 -91 182c-68.667 70.667 -154.334 127 -257.001 169c18 -44 27 -92.667 27 -146zM642.001 801c-9.33301 2 -18 2.99805 -26 2.99805c-32.667 0 -71.667 -11.333 -117 -34
c-44.667 -23.333 -81.167 -54.166 -109.5 -92.499s-42.5 -84.166 -42.5 -137.499c0 -60.667 24 -120.334 72 -179.001c34 -41.333 78.667 -78.666 134 -111.999c106.667 46.667 175.667 125.667 207 237c8.66699 30.667 13 61.667 13 93c0 90 -25.667 156 -77 198
c-16 12.667 -33.667 20.667 -53 24h-1z" />
    <glyph glyph-name="uniFBAD" unicode="&#x6be;" horiz-adv-x="1003" arabic-form="medial" 
d="M510 725c-35.333 -4 -71.666 -33.334 -108.999 -88.001c-50.667 -74 -86.334 -169.667 -107.001 -287c-6 -34 -9 -66 -9 -96c0 -9.33301 1.66699 -30.666 5 -63.999c2.66699 0 9.83398 -0.666992 21.501 -2s20.167 -2 25.5 -2c65.333 0 120.166 20.333 164.499 61
s76.5 91 96.5 151c12.667 38 19 76.667 19 116c0 93.333 -31 162.333 -93 207zM-1 19.999c-22 0 -40.4961 7.5 -55.4961 22.5s-22.5 33.5 -22.5 55.5c0 21.333 7.66699 39.666 23 54.999s33.666 23 54.999 23h133c0 3.33301 -0.166992 8.33301 -0.5 15s-0.5 11.667 -0.5 15
c0 75.333 12.667 159.666 38 252.999c51.333 187.333 126.333 317 225 389c37.333 26.667 76.666 42 117.999 46c72.667 0 134.667 -47 186 -141c19.333 -36.667 35.166 -80.167 47.499 -130.5s18.5 -100.166 18.5 -149.499c0 -62 -9.33301 -112 -28 -150
c-28.667 -80.667 -78.834 -145.167 -150.501 -193.5s-158.5 -81.166 -260.5 -98.499c42.667 -106 96.334 -196.333 161.001 -271c26 -30 53.333 -53.333 82 -70c-0.666992 7.33301 -1 17.666 -1 30.999c0 118 43 221.333 129 310c59.333 60.667 125.666 103 198.999 127
c36.667 12 73.334 18 110.001 18c21.333 0 39.833 -7.66699 55.5 -23s23.5 -33.666 23.5 -54.999c0 -22 -7.66699 -40.5 -23 -55.5s-34 -22.5 -56 -22.5h-9c-80.667 -4 -151.334 -40.333 -212.001 -109c-60 -67.333 -90 -143 -90 -227c0 -74 25 -137.667 75 -191l-104 -125
c-244 152.667 -407 357 -489 613l-14 39h-163z" />
    <glyph glyph-name="uniFBAF" unicode="&#x6d2;" horiz-adv-x="1499" arabic-form="final" 
d="M1578 98c0 -21.333 -7.66602 -39.6709 -22.999 -55.0039s-33.666 -23 -54.999 -23h-704c-166 0 -302 -17 -408 -51c-79.333 -25.333 -134.333 -58 -165 -98c-10 -15.333 -13.333 -26.666 -10 -33.999c31.333 -46 105 -80.333 221 -103
c96.667 -18.667 221.667 -28 375 -28h107c13.333 0 32.666 0.333008 57.999 1s44.666 1 57.999 1h60c129.333 0 228.333 3 297 9l43 -150c-14.667 -3.33301 -58.334 -5.66602 -131.001 -6.99902c-32.667 -0.666992 -83.167 -2.16699 -151.5 -4.5
s-130.166 -4.16602 -185.499 -5.49902s-107 -2 -155 -2c-246.667 0 -434.667 27 -564 81c-25.333 10.667 -47.5 21.834 -66.5 33.501s-38.167 26.167 -57.5 43.5s-34.166 37.666 -44.499 60.999s-15.5 49 -15.5 77c0 36 11.667 73 35 111c68 112 226 181.667 474 209
c72.667 8 148 12 226 12h704c21.333 0 39.666 -7.66699 54.999 -23s23 -33.666 23 -54.999z" />
    <glyph glyph-name="uniFBB1" unicode="&#x6d3;" horiz-adv-x="1461" arabic-form="final" 
d="M1539 98c0 -21.333 -7.83398 -39.6709 -23.501 -55.0039s-33.834 -23 -54.501 -23h-704c-166 0 -302 -17 -408 -51c-79.333 -25.333 -134.333 -58 -165 -98c-10 -15.333 -13.333 -26.666 -10 -33.999c31.333 -46 105 -80.333 221 -103
c96.667 -18.667 221.667 -28 375 -28h107c12.667 0 32 0.333008 58 1s45.333 1 58 1h60c128.667 0 227.667 3 297 9l43 -150c-14.667 -3.33301 -58.334 -5.66602 -131.001 -6.99902c-32.667 -0.666992 -83.167 -2.16699 -151.5 -4.5s-130.166 -4.16602 -185.499 -5.49902
s-107 -2 -155 -2c-246.667 0 -434.667 27 -564 81c-25.333 10.667 -47.5 21.834 -66.5 33.501s-38.167 26.167 -57.5 43.5s-34.166 37.666 -44.499 60.999s-15.5 49 -15.5 77c0 36 11.667 73 35 111c68 112 226 181.667 474 209c72.667 8 148 12 226 12h704
c20.667 0 38.834 -7.66699 54.501 -23s23.5 -33.666 23.5 -54.999zM340.999 420.995c-38.667 16 -70.832 40.834 -96.499 74.501s-38.5 73.5 -38.5 119.5c0 63.333 22.167 114.5 66.5 153.5s99.166 58.5 164.499 58.5c28 0 68 -6.33301 120 -19l-28 -92
c-32 8.66699 -62.667 13 -92 13c-23.333 0 -44 -4 -62 -12v2c-19.333 -8 -36 -21.667 -50 -41s-21 -40.333 -21 -63c0 -10 2.66699 -22 8 -36l-1 1c8.66699 -22.667 25 -42 49 -58s50.333 -24 79 -24c17.333 0 35.833 3.5 55.5 10.5s33.167 12.667 40.5 17l42 25.5
c16 9.33301 30.333 19 43 29l59 -78l-41.5 -28.5c-13.667 -9 -30.5 -19.333 -50.5 -31l-42.5 -24.5l-56 -30.5c-29 -15.667 -46.167 -24.834 -51.5 -27.501l-227 -126l-48 87z" />
    <glyph glyph-name="uniFBE8" unicode="&#x649;" horiz-adv-x="708" arabic-form="initial" 
d="M-7 20c-21.333 0 -39.666 7.5 -54.999 22.5s-23 33.5 -23 55.5s7.66699 40.5 23 55.5s33.666 22.5 54.999 22.5h125c2.66699 0 6.66699 -0.166992 12 -0.5s9 -0.5 11 -0.5c76 0 137.333 9.83301 184 29.5s81.667 53.167 105 100.5c10.667 21.333 16 50.666 16 87.999
c0 36 -6.33301 82.833 -19 140.5s-27.667 107.167 -45 148.5l-60 144l142 71c64 -144 106 -268 126 -372c8.66699 -45.333 13 -88.666 13 -129.999c0 -115.333 -41 -208.333 -123 -279c-73.333 -64 -187 -96 -341 -96h-146z" />
    <glyph glyph-name="uniFBE9" unicode="&#x649;" horiz-adv-x="705" arabic-form="medial" 
d="M4 20c-22.667 0 -41.332 7.33008 -55.999 21.9971s-22 33.334 -22 56.001c0 21.333 7.5 39.666 22.5 54.999s33.5 23 55.5 23h17c111.333 0 196.833 19.667 256.5 59s89.5 105 89.5 197c0 64 -13 141.333 -39 232c20 4.66699 45.5 11.834 76.5 21.501
s55.167 16.834 72.5 21.501c32 -120.667 48.667 -217.667 50 -291c1.33301 -40.667 4.16602 -74 8.49902 -100s12.666 -50.5 24.999 -73.5s30.166 -39.833 53.499 -50.5s53.333 -16 90 -16c21.333 0 39.833 -7.66699 55.5 -23s23.5 -33.666 23.5 -54.999
c0 -22 -7.66699 -40.5 -23 -55.5s-33.666 -22.5 -54.999 -22.5c-113.333 0 -204 44.667 -272 134c-91.333 -89.333 -228.666 -134 -411.999 -134h-17z" />
    <glyph glyph-name="uniFBFD" unicode="&#x6cc;" horiz-adv-x="1686" arabic-form="final" 
d="M1795 98c0 -22 -7.66699 -40.498 -23 -55.498s-34 -22.5 -56 -22.5h-295c52 -44 91 -88.333 117 -133c18.667 -32.667 28 -65 28 -97c-2 -100.667 -47 -185.334 -135 -254.001c-69.333 -54 -156.5 -95.5 -261.5 -124.5s-218.167 -43.5 -339.5 -43.5
c-322.667 0 -529 77.333 -619 232c-62 90 -93 207 -93 351v23c0 82.667 15.667 186.667 47 312c26.667 106.667 65 220 115 340l145 -59c-48 -120.667 -85 -234.334 -111 -341.001c-25.333 -103.333 -38 -196.333 -38 -279c0 -146.667 40.667 -253.5 122 -320.5
s200 -100.5 356 -100.5c10 0 23.333 -0.166992 40 -0.5s28.667 -0.5 36 -0.5c102.667 0 214.667 18 336 54c94.667 27.333 164 66.666 208 117.999c23.333 27.333 35 58.333 35 93c0 22.667 -16.333 47.334 -49 74.001c-83.333 69.333 -218 121 -404 155h-3l11 158l752 -1
c22 0 40.667 -7.5 56 -22.5s23 -33.5 23 -55.5z" />
    <glyph glyph-name="uniFBFE" unicode="&#x6cc;" horiz-adv-x="799" arabic-form="initial" 
d="M341 -345l-146 -146l-148 147l146 147zM696 -347l-145 -146l-148 148l146 146zM-51 20c-21.333 0 -39.666 7.49902 -54.999 22.499s-23 33.5 -23 55.5s7.66699 40.5 23 55.5s33.666 22.5 54.999 22.5h111c42.667 0 79.167 0.5 109.5 1.5s65.166 4 104.499 9
s72.166 11.833 98.499 20.5s51.333 21.334 75 38.001s40.834 36.667 51.501 60c10.667 21.333 16 50.666 16 87.999c0 26 -3 54.5 -9 85.5s-11.333 54.333 -16 70s-13 42.167 -25 79.5c-12 40 -38.667 106 -80 198l142 71c64 -144 106 -268 126 -372
c8.66699 -45.333 13 -88.666 13 -129.999c0 -115.333 -41 -208.333 -123 -279c-41.333 -36 -92.666 -61 -153.999 -75s-136.333 -21 -225 -21h-215z" />
    <glyph glyph-name="uniFBFF" unicode="&#x6cc;" horiz-adv-x="860" arabic-form="medial" 
d="M-3 20c-22 0 -40.499 7.49902 -55.499 22.499s-22.5 33.5 -22.5 55.5s7.5 40.5 22.5 55.5s33.5 22.5 55.5 22.5h76c40.667 0 76.667 1 108 3s64.833 5.66699 100.5 11s66.5 13.5 92.5 24.5s50 24.667 72 41s38.667 37.666 50 63.999s17 56.5 17 90.5v12
c-4.66699 80.667 -17 156.334 -37 227.001c21.333 5.33301 47.666 12.833 78.999 22.5s54.666 16.5 69.999 20.5c12 -44 23.667 -110.167 35 -198.5s19.333 -145.5 24 -171.5c18 -97.333 75 -146 171 -146c22 0 40.833 -7.5 56.5 -22.5s23.5 -33.5 23.5 -55.5
s-7.66699 -40.5 -23 -55.5s-33.666 -22.5 -54.999 -22.5c-112.667 0 -203.667 46 -273 138c-49.333 -47.333 -119.333 -82.166 -210 -104.499s-191 -33.5 -301 -33.5h-76zM319.001 -380.001l-146 -146l-148 147l146 147zM674.001 -382.001l-145 -146l-148 148l146 146z" />
    <glyph glyph-name="uniFC5E" unicode="&#xfc5e;" arabic-form="isolated" 
d="M261 1237c-36.667 -49.333 -78.333 -74.001 -125 -74.001h-6c-96.667 5.33301 -145 51.333 -145 138c0 38 9.33301 78 28 120l29 -13l31 -14c-14 -37.333 -21 -68.666 -21 -93.999c0 -47.333 26.667 -71 80 -71c60.667 0 91 53.333 91 160c0 2 -0.166992 4.33301 -0.5 7
s-0.5 4.66699 -0.5 6v12c32 4 51 9 57 15c9.33301 -73.333 24.333 -125 45 -155c15.333 -21.333 32 -32 50 -32c49.333 4 74 32.667 74 86c0 56.667 -19.667 110 -59 160l27 18l27 18c15.333 -24 26.833 -42.667 34.5 -56s16 -33.333 25 -60s13.5 -52 13.5 -76
c0 -56.667 -22.667 -100.667 -68 -132c-22.667 -14.667 -48.667 -22 -78 -22c-42.667 0 -79 19.667 -109 59zM-43.999 1843c36 0 64.333 -12.002 85 -36.002s31 -55.667 31 -95c0 -20.667 -3.33301 -47.667 -10 -81c96.667 28.667 173.667 62.667 231 102l-14 13
c-3.33301 0.666992 -8.83301 3.16699 -16.5 7.5s-12.834 6.83301 -15.501 7.5l-25 12c-62.667 30 -94 74.333 -94 133c0 47.333 25 88 75 122c28.667 19.333 58 29 88 29c40.667 0 72.834 -16.333 96.501 -49s35.5 -71.667 35.5 -117c0 -30.667 -7 -71 -21 -121
c2 -0.666992 6.16699 -2.16699 12.5 -4.5s11.5 -4.16602 15.5 -5.49902l-19 -61c-2 0.666992 -3 0.666992 -3 0l-4 1l-36 10c-70.667 -67.333 -186 -119.666 -346 -156.999l-38 54c14.667 34 22 68 22 102c0 22 -3 37.667 -9 47v-1c-9.33301 14.667 -22.333 22 -39 22
c-24 0 -48 -10.667 -72 -32l-47 47c34 34 73 51 117 51zM357.001 1892c0 47.333 -15.333 79.333 -46 96h-2h-1l-2 1c-5.33301 1.33301 -10.333 2 -15 2c-24 0 -46 -8.83301 -66 -26.5s-30 -37.5 -30 -59.5c0 -29.333 19 -53.333 57 -72l54 -27l35 -15
c10.667 46 16 79.667 16 101z" />
    <glyph glyph-name="uniFC5F" unicode="&#xfc5f;" arabic-form="isolated" 
d="M269 1231c-36.667 -49.333 -78.333 -74.001 -125 -74.001h-6c-96.667 5.33301 -145 51.333 -145 138c0 38 9.33301 78 28 120l29 -13l31 -14c-14 -37.333 -21 -68.666 -21 -93.999c0 -47.333 26.667 -71 80 -71c60.667 0 91 53.333 91 160c0 2 -0.166992 4.33301 -0.5 7
s-0.5 4.66699 -0.5 6v12c32 4 51 9 57 15c9.33301 -73.333 24.333 -125 45 -155c15.333 -21.333 32 -32 50 -32c49.333 4 74 32.667 74 86c0 56.667 -19.667 110 -59 160l27 18l27 18c15.333 -24 26.833 -42.667 34.5 -56s16 -33.333 25 -60s13.5 -52 13.5 -76
c0 -56.667 -22.667 -100.667 -68 -132c-22.667 -14.667 -48.667 -22 -78 -22c-42.667 0 -79 19.667 -109 59zM465.001 773.999l-215 -89l-216 -88v89l212.5 85l218.5 87v-84zM465.001 1033l-215 -89l-216 -88v89l212.5 85l218.5 87v-84z" />
    <glyph glyph-name="uniFC60" unicode="&#xfc60;" arabic-form="isolated" 
d="M237 1366c-36.667 -49.333 -78.333 -74.001 -125 -74.001h-6c-96.667 5.33301 -145 51.333 -145 138c0 38 9.33301 78 28 120l29 -13l31 -14c-14 -37.333 -21 -68.666 -21 -93.999c0 -47.333 26.667 -71 80 -71c60.667 0 91 53.333 91 160c0 2 -0.166992 4.33301 -0.5 7
s-0.5 4.66699 -0.5 6v12c32 4 51 9 57 15c9.33301 -73.333 24.333 -125 45 -155c15.333 -21.333 32 -32 50 -32c49.333 4 74 32.667 74 86c0 56.667 -19.667 110 -59 160l27 18l27 18c15.333 -24 26.833 -42.667 34.5 -56s16 -33.333 25 -60s13.5 -52 13.5 -76
c0 -56.667 -22.667 -100.667 -68 -132c-22.667 -14.667 -48.667 -22 -78 -22c-42.667 0 -79 19.667 -109 59zM417.001 1873l-473 -189v90l473 181v-82z" />
    <glyph glyph-name="uniFC61" unicode="&#xfc61;" arabic-form="isolated" 
d="M257 1246c-36.667 -49.333 -78.333 -74.001 -125 -74.001h-6c-96.667 5.33301 -145 51.333 -145 138c0 38 9.33301 78 28 120l29 -13l31 -14c-14 -37.333 -21 -68.666 -21 -93.999c0 -47.333 26.667 -71 80 -71c60.667 0 91 53.333 91 160c0 2 -0.166992 4.33301 -0.5 7
s-0.5 4.66699 -0.5 6v12c32 4 51 9 57 15c9.33301 -73.333 24.333 -125 45 -155c15.333 -21.333 32 -32 50 -32c49.333 4 74 32.667 74 86c0 56.667 -19.667 110 -59 160c2.66699 2 5.5 4 8.5 6l10 6.5l8.5 5.5l27 18c15.333 -24 26.833 -42.667 34.5 -56s16 -33.333 25 -60
s13.5 -52 13.5 -76c0 -56.667 -22.667 -100.667 -68 -132c-22.667 -14.667 -48.667 -22 -78 -22c-42.667 0 -79 19.667 -109 59zM382.001 1874c0 -39.333 -7.33301 -77 -22 -113c4 -1.33301 7 -2 9 -2s8 -2 18 -6l-19 -57l-42 15c-72 -68.667 -176.333 -125.667 -313 -171
l-21 58c110 36.667 202 81 276 133c-80.667 32 -133.667 64 -159 96c-14.667 17.333 -22 38 -22 62c0 1.33301 0.166992 3.33301 0.5 6s0.5 5 0.5 7c9.33301 62 45 107 107 135c16.667 7.33301 35.667 11 57 11c44 0 76.667 -16.5 98 -49.5s32 -74.5 32 -124.5z
M251.001 1989c-18.667 0 -36.666 -5.83398 -53.999 -17.501s-31 -25.167 -41 -40.5c-8 -12 -12 -24.667 -12 -38c0 -9.33301 1.66699 -17.5 5 -24.5s9.5 -13.5 18.5 -19.5s15.5 -10.167 19.5 -12.5s12 -6.16602 24 -11.499l93 -44c12.667 26 19 56 19 90
c0 29.333 -6.33301 56.333 -19 81s-30.334 37 -53.001 37z" />
    <glyph glyph-name="uniFC62" unicode="&#xfc62;" arabic-form="isolated" 
d="M264 1254c-36.667 -49.333 -78.333 -74.001 -125 -74.001h-6c-96.667 5.33301 -145 51.333 -145 138c0 38 9.33301 78 28 120l29 -13l31 -14c-14 -37.333 -21 -68.666 -21 -93.999c0 -47.333 26.667 -71 80 -71c60.667 0 91 53.333 91 160c0 2 -0.166992 4.33301 -0.5 7
s-0.5 4.66699 -0.5 6v12c32 4 51 9 57 15c9.33301 -73.333 24.333 -125 45 -155c15.333 -21.333 32 -32 50 -32c49.333 4 74 32.667 74 86c0 56.667 -19.667 110 -59 160c2.66699 2 5.5 4 8.5 6l10 6.5l8.5 5.5l27 18c15.333 -24 26.833 -42.667 34.5 -56s16 -33.333 25 -60
s13.5 -52 13.5 -76c0 -56.667 -22.667 -100.667 -68 -132c-22.667 -14.667 -48.667 -22 -78 -22c-42.667 0 -79 19.667 -109 59zM508.001 1039l-473 -189v90l473 181v-82z" />
    <glyph glyph-name="uniFC63" unicode="&#xfc63;" arabic-form="isolated" 
d="M269 1221c-36.667 -49.333 -78.333 -74.001 -125 -74.001h-6c-96.667 5.33301 -145 51.333 -145 138c0 38 9.33301 78 28 120l29 -13l31 -14c-14 -37.333 -21 -68.666 -21 -93.999c0 -47.333 26.667 -71 80 -71c60.667 0 91 53.333 91 160c0 2 -0.166992 4.33301 -0.5 7
s-0.5 4.66699 -0.5 6v12c32 4 51 9 57 15c9.33301 -73.333 24.333 -125 45 -155c15.333 -21.333 32 -32 50 -32c49.333 4 74 32.667 74 86c0 56.667 -19.667 110 -59 160l27 18l27 18c15.333 -24 26.833 -42.667 34.5 -56s16 -33.333 25 -60s13.5 -52 13.5 -76
c0 -56.667 -22.667 -100.667 -68 -132c-22.667 -14.667 -48.667 -22 -78 -22c-42.667 0 -79 19.667 -109 59zM289.001 1882c12.667 -46 19.001 -106 19.001 -180c0 -56 -6.33301 -115 -19 -177l-79 17c11.333 50.667 17 99 17 145c0 70 -6.33301 129 -19 177
c1.33301 0.666992 13.166 3.16699 35.499 7.5s37.5 7.83301 45.5 10.5z" />
    <glyph glyph-name="uniFE70" unicode="&#xfe70;" arabic-form="isolated" 
d="M445 1306l-215.5 -88.5l-215.5 -88.5v89l212.5 85l218.5 87v-84zM438 1528l-216 -89l-215 -88v89l215.5 86l215.5 86v-84z" />
    <glyph glyph-name="uniFE72" unicode="&#xfe72;" arabic-form="isolated" 
d="M9 1409c36 0 64.333 -12.002 85 -36.002s31 -55.667 31 -95c0 -20.667 -3.33301 -47.667 -10 -81c96.667 28.667 173.667 62.667 231 102l-14 13c-3.33301 0.666992 -8.83301 3.16699 -16.5 7.5s-12.834 6.83301 -15.501 7.5l-25 12c-62.667 30 -94 74.333 -94 133
c0 47.333 25 88 75 122c28.667 19.333 58 29 88 29c40.667 0 72.834 -16.333 96.501 -49s35.5 -71.667 35.5 -117c0 -30.667 -7 -71 -21 -121c2 -0.666992 6.16699 -2.16699 12.5 -4.5s11.5 -4.16602 15.5 -5.49902l-19 -61c-2 0.666992 -3 0.666992 -3 0l-4 1l-36 10
c-70.667 -67.333 -186 -119.666 -346 -156.999l-38 54c14.667 34 22 68 22 102c0 22 -3 37.667 -9 47v-1c-9.33301 14.667 -22.333 22 -39 22c-24 0 -48 -10.667 -72 -32l-47 47c34 34 73 51 117 51zM410 1458c0 47.333 -15.332 79.333 -45.999 96h-2h-1
c-0.666992 0.666992 -1.33398 1 -2.00098 1c-5.33301 1.33301 -10.333 2 -15 2c-24 0 -46 -8.83301 -66 -26.5s-30 -37.5 -30 -59.5c0 -29.333 19 -53.333 57 -72l54 -27l35 -15c10.667 46 16 79.667 16 101z" />
    <glyph glyph-name="uniFE74" unicode="&#xfe74;" arabic-form="isolated" 
d="M441 -491l-216 -89l-215 -88v89l212.5 85l218.5 87v-84zM441 -232l-215.5 -88l-215.5 -89v89l212.5 85l218.5 87v-84z" />
    <glyph glyph-name="uniFE76" unicode="&#xfe76;" arabic-form="isolated" 
d="M468 1453l-473 -189v90l473 181v-82z" />
    <glyph glyph-name="uniFE78" unicode="&#xfe78;" arabic-form="isolated" 
d="M365 1429c0 -39.333 -7.33301 -77 -22 -113c4 -1.33301 7 -2 9 -2s8 -2 18 -6l-19 -57l-42 15c-72 -68.667 -176.333 -125.667 -313 -171l-21 58c110 36.667 202 81 276 133c-80.667 32 -133.667 64 -159 96c-14.667 17.333 -22 38 -22 62
c0 1.33301 0.166992 3.33301 0.5 6s0.5 5 0.5 7c9.33301 62 45 107 107 135c16.667 7.33301 35.667 11 57 11c44 0 76.667 -16.5 98 -49.5s32 -74.5 32 -124.5zM234 1544c-18.667 0 -36.666 -5.83398 -53.999 -17.501s-31 -25.167 -41 -40.5c-8 -12 -12 -24.667 -12 -38
c0 -9.33301 1.66699 -17.5 5 -24.5s9.5 -13.5 18.5 -19.5s15.5 -10.167 19.5 -12.5s12 -6.16602 24 -11.499l93 -44c12.667 26 19 56 19 90c0 29.333 -6.33301 56.333 -19 81s-30.334 37 -53.001 37z" />
    <glyph glyph-name="uniFE7A" unicode="&#xfe7a;" arabic-form="isolated" 
d="M463 -337l-473 -189v90l473 181v-82z" />
    <glyph glyph-name="uniFE7C" unicode="&#xfe7c;" arabic-form="isolated" 
d="M269 1221c-36.667 -49.333 -78.333 -74.001 -125 -74.001h-6c-96.667 5.33301 -145 51.333 -145 138c0 38 9.33301 78 28 120l29 -13l31 -14c-14 -37.333 -21 -68.666 -21 -93.999c0 -47.333 26.667 -71 80 -71c60.667 0 91 53.333 91 160c0 2 -0.166992 4.33301 -0.5 7
s-0.5 4.66699 -0.5 6v12c32 4 51 9 57 15c9.33301 -73.333 24.333 -125 45 -155c15.333 -21.333 32 -32 50 -32c49.333 4 74 32.667 74 86c0 56.667 -19.667 110 -59 160l27 18l27 18c15.333 -24 26.833 -42.667 34.5 -56s16 -33.333 25 -60s13.5 -52 13.5 -76
c0 -56.667 -22.667 -100.667 -68 -132c-22.667 -14.667 -48.667 -22 -78 -22c-42.667 0 -79 19.667 -109 59z" />
    <glyph glyph-name="uniFE7E" unicode="&#xfe7e;" arabic-form="isolated" 
d="M358 1330c0 34.667 -10.332 65.001 -30.999 91.001s-47.667 39 -81 39c-32.667 0 -59.834 -13 -81.501 -39s-32.5 -56.333 -32.5 -91c0 -25.333 6.83301 -48.833 20.5 -70.5s30.167 -37.834 49.5 -48.501c14 -8 28.667 -12 44 -12c33.333 0 60.333 13.167 81 39.5
s31 56.833 31 91.5zM246.001 1531c51.333 0 94.167 -20.1689 128.5 -60.502s52.5 -87.166 54.5 -140.499v-7c0 -40.667 -10.5 -76.667 -31.5 -108s-47.5 -54.666 -79.5 -69.999c-22.667 -11.333 -46.667 -17 -72 -17h-7c-40.667 0 -74.834 12.167 -102.501 36.5
s-48.167 54.833 -61.5 91.5c-8.66699 23.333 -13 48 -13 74c0 40.667 10.333 77.167 31 109.5s46.334 56.5 77.001 72.5c24 12.667 49.333 19 76 19z" />
    <glyph glyph-name="uniFE82" unicode="&#x622;" horiz-adv-x="617" arabic-form="final" 
d="M691 98c0 -22 -7.66602 -40.502 -22.999 -55.502s-34 -22.5 -56 -22.5c-138 0 -240.333 33.333 -307 100c-54 54 -81 140.667 -81 260c2.66699 54 4 149 4 285v129c0 186.667 -7 375.334 -21 566.001c-2.66699 38 -6.66699 72 -12 102l156 28
c22 -136 33 -358.667 33 -668v-40c0 -16.667 0.166992 -40.334 0.5 -71.001s0.5 -52.667 0.5 -66c0 -18 -0.166992 -42.667 -0.5 -74s-0.5 -53.666 -0.5 -66.999c0 -56 -0.333008 -98 -1 -126v-17c0 -34.667 2.16699 -61.5 6.5 -80.5s14.166 -35.5 29.499 -49.5
c34.667 -34.667 96 -53 184 -55h9c21.333 0 39.833 -7.66699 55.5 -23s23.5 -33.666 23.5 -54.999zM123.001 1849c36.667 0 80.833 -10.502 132.5 -31.502s95.167 -31.5 130.5 -31.5c49.333 0 95.666 30.667 138.999 92c13.333 -8 30 -18.833 50 -32.5s36 -24.167 48 -31.5
c-12.667 -25.333 -33.334 -49.666 -62.001 -72.999s-59 -42.333 -91 -57c-26.667 -12 -56 -18 -88 -18h-7c-25.333 0.666992 -50.166 4.33398 -74.499 11.001s-49.833 15.167 -76.5 25.5s-47.667 17.5 -63 21.5c-13.333 3.33301 -26.333 5 -39 5
c-25.333 0 -44.333 -6 -57 -18c-29.333 -26 -51 -62 -65 -108l-112 35c12 38.667 25.333 69.667 40 93h-1c40.667 66 92.334 104.333 155.001 115c1.33301 0 3.33301 0.333008 6 1s5.16699 1.16699 7.5 1.5s4.83301 0.5 7.5 0.5h20z" />
    <glyph glyph-name="uniFE84" unicode="&#x623;" horiz-adv-x="606" arabic-form="final" 
d="M691 98c0 -22 -7.66602 -40.502 -22.999 -55.502s-34 -22.5 -56 -22.5c-138 0 -240.333 33.333 -307 100c-54 54 -81 140.667 -81 260c2.66699 54 4 149 4 285v129c0 186.667 -7 375.334 -21 566.001c-2.66699 38 -6.66699 72 -12 102l156 28
c22 -136 33 -358.667 33 -668v-40c0 -16.667 0.166992 -40.334 0.5 -71.001s0.5 -52.667 0.5 -66c0 -18 -0.166992 -42.667 -0.5 -74s-0.5 -53.666 -0.5 -66.999c0 -56 -0.333008 -98 -1 -126v-17c0 -34.667 2.16699 -61.5 6.5 -80.5s14.166 -35.5 29.499 -49.5
c34.667 -34.667 96 -53 184 -55h9c21.333 0 39.833 -7.66699 55.5 -23s23.5 -33.666 23.5 -54.999zM65.001 1516c-4.66699 9.33301 -10.832 20.8311 -18.499 34.498l-19.5 34.5l188 105c-29.333 12.667 -56.333 29.834 -81 51.501s-42.667 45.5 -54 71.5
c-8.66699 20 -13 43.333 -13 70c0 44 12 81.833 36 113.5s54.333 55.167 91 70.501c30 12 61.333 18 94 18c40 0 76 -5.33301 108 -16l-23 -72c-6 0.666992 -14.5 2 -25.5 4s-21.333 3.5 -31 4.5s-19.167 1.5 -28.5 1.5c-40 0 -73.833 -11.333 -101.5 -34
s-41.5 -52.667 -41.5 -90c0 -30 9.83301 -55 29.5 -75s43.5 -35 71.5 -45c13.333 -4.66699 28 -7 44 -7c13.333 0 28.666 2.66699 45.999 8l-1 -1c25.333 8 70 31.667 134 71l47 -62c-36 -24 -113.667 -69 -233 -135z" />
    <glyph glyph-name="uniFE86" unicode="&#x624;" horiz-adv-x="1058" arabic-form="final" 
d="M1123 97c0 -22 -7.83203 -40.335 -23.499 -55.002s-34.5 -22 -56.5 -22h-107c-36 -185.333 -132 -342.666 -288 -471.999c-142.667 -118 -312.334 -193.667 -509.001 -227l-37 154c194 42.667 354.667 117.667 482 225c116.667 98.667 183.667 205.334 201 320.001h-77
c-64 0 -116.333 1.66699 -157 5c-138 8.66699 -240 53.667 -306 135v-1c-40.667 52 -61 118.667 -61 200c0 124.667 39 240.667 117 348c65.333 80 138 120 218 120c88.667 0 170.667 -40.667 246 -122v1c55.333 -64 99.333 -141.333 132 -232s50 -190 52 -298h94
c22.667 0 41.667 -7.5 57 -22.5s23 -33.833 23 -56.5zM519.001 669.998c-47.333 0 -93.002 -35.332 -137.002 -105.999c-43.333 -68 -65 -135.333 -65 -202c0 -40 11.667 -75.333 35 -106v1c13.333 -18 31.333 -32.667 54 -44s50.667 -19.333 84 -24
s62.833 -7.66699 88.5 -9s58.834 -2 99.501 -2c37.333 0 75 1.66699 113 5c-6 131.333 -37 245.666 -93 342.999c-31.333 55.333 -66.666 95.333 -105.999 120c-24.667 16 -49 24 -73 24zM373.999 1079c-38.667 16 -70.832 40.834 -96.499 74.501s-38.5 73.5 -38.5 119.5
c0 63.333 22.167 114.5 66.5 153.5s99.166 58.5 164.499 58.5c28 0 68 -6.33301 120 -19l-28 -92c-32 8.66699 -62.667 13 -92 13c-23.333 0 -44 -4 -62 -12v2c-19.333 -8 -36 -21.667 -50 -41s-21 -40.333 -21 -63c0 -10 2.66699 -22 8 -36l-1 1
c8.66699 -22.667 25 -42 49 -58s50.333 -24 79 -24c17.333 0 35.833 3.5 55.5 10.5s33.167 12.667 40.5 17l42 25.5c16 9.33301 30.333 19 43 29l59 -78l-41.5 -28.5c-13.667 -9 -30.5 -19.333 -50.5 -31l-42.5 -24.5l-56 -30.5c-29 -15.667 -46.167 -24.834 -51.5 -27.501
l-227 -126l-48 87z" />
    <glyph glyph-name="uniFE88" unicode="&#x625;" horiz-adv-x="611" arabic-form="final" 
d="M691 98c0 -22 -7.66602 -40.502 -22.999 -55.502s-34 -22.5 -56 -22.5c-138 0 -240.333 33.333 -307 100c-54 54 -81 140.667 -81 260c2.66699 54 4 149 4 285v129c0 186.667 -7 375.334 -21 566.001c-2.66699 38 -6.66699 72 -12 102l156 28
c22 -136 33 -358.667 33 -668v-40c0 -16.667 0.166992 -40.334 0.5 -71.001s0.5 -52.667 0.5 -66c0 -18 -0.166992 -42.667 -0.5 -74s-0.5 -53.666 -0.5 -66.999c0 -56 -0.333008 -98 -1 -126v-17c0 -34.667 2.16699 -61.5 6.5 -80.5s14.166 -35.5 29.499 -49.5
c34.667 -34.667 96 -53 184 -55h9c21.333 0 39.833 -7.66699 55.5 -23s23.5 -33.666 23.5 -54.999zM179.001 -669.002l-18.499 33.999l-19.5 35l188 105c-29.333 12.667 -56.333 29.834 -81 51.501s-42.667 45.5 -54 71.5c-8.66699 20 -13 43.333 -13 70
c0 44 12 81.833 36 113.5s54.333 55.167 91 70.5c30 12 61.333 18 94 18c40 0 76 -5.33301 108 -16l-23 -72c-6 0.666992 -14.5 2 -25.5 4s-21.333 3.5 -31 4.5s-19.167 1.5 -28.5 1.5c-40 0 -73.833 -11.333 -101.5 -34s-41.5 -52.667 -41.5 -90
c0 -30 9.83301 -55 29.5 -75s43.5 -35 71.5 -45c13.333 -4.66699 28 -7 44 -7c13.333 0 28.666 2.66699 45.999 8l-1 -1c25.333 8 70 31.667 134 71l47 -62c-36 -24 -113.667 -69 -233 -135z" />
    <glyph glyph-name="uniFE8A" unicode="&#x626;" horiz-adv-x="1683" arabic-form="final" 
d="M1795 98c0 -22 -7.66699 -40.498 -23 -55.498s-34 -22.5 -56 -22.5h-295c52 -44 91 -88.333 117 -133c18.667 -32.667 28 -65 28 -97c-2 -100.667 -47 -185.334 -135 -254.001c-69.333 -54 -156.5 -95.5 -261.5 -124.5s-218.167 -43.5 -339.5 -43.5
c-322.667 0 -529 77.333 -619 232c-62 90 -93 207 -93 351v23c0 82.667 15.667 186.667 47 312c26.667 106.667 65 220 115 340l145 -59c-48 -120.667 -85 -234.334 -111 -341.001c-25.333 -103.333 -38 -196.333 -38 -279c0 -146.667 40.667 -253.5 122 -320.5
s200 -100.5 356 -100.5c10 0 23.333 -0.166992 40 -0.5s28.667 -0.5 36 -0.5c102.667 0 214.667 18 336 54c94.667 27.333 164 66.666 208 117.999c23.333 27.333 35 58.333 35 93c0 22.667 -16.333 47.334 -49 74.001c-83.333 69.333 -218 121 -404 155h-3l11 158l752 -1
c22 0 40.667 -7.5 56 -22.5s23 -33.5 23 -55.5zM720 311.002c-38.667 16 -70.832 40.834 -96.499 74.501s-38.5 73.5 -38.5 119.5c0 63.333 22.167 114.5 66.5 153.5s99.166 58.5 164.499 58.5c28 0 68 -6.33301 120 -19l-28 -92c-32 8.66699 -62.667 13 -92 13
c-23.333 0 -44 -4 -62 -12v2c-19.333 -8 -36 -21.667 -50 -41s-21 -40.333 -21 -63c0 -10 2.66699 -22 8 -36l-1 1c8.66699 -22.667 25 -42 49 -58s50.333 -24 79 -24c17.333 0 35.833 3.5 55.5 10.5s33.167 12.667 40.5 17l42 25.5c16 9.33301 30.333 19 43 29l59 -78
l-41.5 -28.5c-13.667 -9 -30.5 -19.333 -50.5 -31l-42.5 -24.5l-56 -30.5c-29 -15.667 -46.167 -24.834 -51.5 -27.501l-227 -126l-48 87z" />
    <glyph glyph-name="uniFE8B" unicode="&#x626;" horiz-adv-x="711" arabic-form="initial" 
d="M-7 20c-21.333 0 -39.666 7.5 -54.999 22.5s-23 33.5 -23 55.5s7.66699 40.5 23 55.5s33.666 22.5 54.999 22.5h125c2.66699 0 6.66699 -0.166992 12 -0.5s9 -0.5 11 -0.5c76 0 137.333 9.83301 184 29.5s81.667 53.167 105 100.5c10.667 21.333 16 50.666 16 87.999
c0 36 -6.33301 82.833 -19 140.5s-27.667 107.167 -45 148.5l-60 144l142 71c64 -144 106 -268 126 -372c8.66699 -45.333 13 -88.666 13 -129.999c0 -115.333 -41 -208.333 -123 -279c-73.333 -64 -187 -96 -341 -96h-146zM299 1130
c-38.667 16 -70.832 40.834 -96.499 74.501s-38.5 73.5 -38.5 119.5c0 63.333 22.167 114.5 66.5 153.5s99.166 58.5 164.499 58.5c28 0 68 -6.33301 120 -19l-28 -92c-32 8.66699 -62.667 13 -92 13c-23.333 0 -44 -4 -62 -12v2c-19.333 -8 -36 -21.667 -50 -41
s-21 -40.333 -21 -63c0 -10 2.66699 -22 8 -36l-1 1c8.66699 -22.667 25 -42 49 -58s50.333 -24 79 -24c17.333 0 35.833 3.5 55.5 10.5s33.167 12.667 40.5 17l42 25.5c16 9.33301 30.333 19 43 29l59 -78l-41.5 -28.5c-13.667 -9 -30.5 -19.333 -50.5 -31l-42.5 -24.5
l-56 -30.5c-29 -15.667 -46.167 -24.834 -51.5 -27.501l-227 -126l-48 87z" />
    <glyph glyph-name="uniFE8C" unicode="&#x626;" horiz-adv-x="715" arabic-form="medial" 
d="M4 20c-22.667 0 -41.332 7.33008 -55.999 21.9971s-22 33.334 -22 56.001c0 21.333 7.5 39.666 22.5 54.999s33.5 23 55.5 23h17c111.333 0 196.833 19.667 256.5 59s89.5 105 89.5 197c0 64 -13 141.333 -39 232c20 4.66699 45.5 11.834 76.5 21.501
s55.167 16.834 72.5 21.501c32 -120.667 48.667 -217.667 50 -291c1.33301 -40.667 4.16602 -74 8.49902 -100s12.666 -50.5 24.999 -73.5s30.166 -39.833 53.499 -50.5s53.333 -16 90 -16c21.333 0 39.833 -7.66699 55.5 -23s23.5 -33.666 23.5 -54.999
c0 -22 -7.66699 -40.5 -23 -55.5s-33.666 -22.5 -54.999 -22.5c-113.333 0 -204 44.667 -272 134c-91.333 -89.333 -228.666 -134 -411.999 -134h-17zM287.002 1013c-38.667 16 -70.832 40.834 -96.499 74.501s-38.5 73.5 -38.5 119.5c0 63.333 22.167 114.5 66.5 153.5
s99.166 58.5 164.499 58.5c28 0 68 -6.33301 120 -19l-28 -92c-32 8.66699 -62.667 13 -92 13c-23.333 0 -44 -4 -62 -12v2c-19.333 -8 -36 -21.667 -50 -41s-21 -40.333 -21 -63c0 -10 2.66699 -22 8 -36l-1 1c8.66699 -22.667 25 -42 49 -58s50.333 -24 79 -24
c17.333 0 35.833 3.5 55.5 10.5s33.167 12.667 40.5 17l42 25.5c16 9.33301 30.333 19 43 29l59 -78l-41.5 -28.5c-13.667 -9 -30.5 -19.333 -50.5 -31l-42.5 -24.5l-56 -30.5c-29 -15.667 -46.167 -24.834 -51.5 -27.501l-227 -126l-48 87z" />
    <glyph glyph-name="uniFE8E" unicode="&#x627;" horiz-adv-x="594" arabic-form="final" 
d="M670 98c0 -21.333 -7.83301 -39.666 -23.5 -54.999s-34.167 -23 -55.5 -23c-138 0 -240.333 33.333 -307 100c-29.333 29.333 -50.166 64.666 -62.499 105.999s-18.5 92.666 -18.5 153.999v18c2.66699 28 4 78.667 4 152v115c0 8 -0.166992 21.333 -0.5 40
s-0.5 33.334 -0.5 44.001c0 40.667 -0.333008 70.334 -1 89.001c0 286 -10.333 494 -31 624l156 28c21.333 -126.667 32 -336 32 -628c1.33301 -52 2 -89.333 2 -112v-240c0 -32 -0.666992 -61.333 -2 -88v-61c0 -34.667 2.16699 -61.5 6.5 -80.5s14.166 -35.5 29.499 -49.5
c34.667 -34.667 96 -53 184 -55h9c21.333 0 39.833 -7.83301 55.5 -23.5s23.5 -33.834 23.5 -54.501z" />
    <glyph glyph-name="uniFE90" unicode="&#x628;" horiz-adv-x="2245" arabic-form="final" 
d="M2228 20c-225.333 2.66699 -371.67 99.333 -439.003 290c-187.333 -195.333 -467.666 -293 -840.999 -293c-194.667 1.33301 -357.5 23.666 -488.5 66.999s-226.833 116 -287.5 218c-42.667 72.667 -64 153.667 -64 243c0 103.333 28 214.666 84 333.999
c78.667 -44.667 125 -70.667 139 -78l-21.5 -50.5c-12.333 -29 -20.666 -49.833 -24.999 -62.5s-9.16602 -31.834 -14.499 -57.501s-8 -50.167 -8 -73.5c0 -50 8.83301 -94.667 26.5 -134s40.334 -71.666 68.001 -96.999s62.5 -47.5 104.5 -66.5s83.167 -33.5 123.5 -43.5
s85.833 -18.667 136.5 -26c64.667 -9.33301 140.334 -14 227.001 -14c224 0 403.333 32.333 538 97s229.667 172.334 285 323.001c8.66699 24.667 18.667 54.667 30 90c21.333 -5.33301 48.666 -12.833 81.999 -22.5s56.666 -16.167 69.999 -19.5
c-20 -87.333 -30 -145.666 -30 -174.999v-10c2.66699 -93.333 30.667 -163.833 84 -211.5s129.666 -71.5 229 -71.5c22 0 40.667 -7.5 56 -22.5s23 -33.5 23 -55.5s-7.66699 -40.5 -23 -55.5s-34 -22.5 -56 -22.5h-8zM1138 -362.001l-147 -147l-148 148l147 147z" />
    <glyph glyph-name="uniFE91" unicode="&#x628;" horiz-adv-x="664" arabic-form="initial" 
d="M-7 20c-21.333 0 -39.666 7.5 -54.999 22.5s-23 33.5 -23 55.5s7.66699 40.5 23 55.5s33.666 22.5 54.999 22.5h125c2.66699 0 6.66699 -0.166992 12 -0.5s9 -0.5 11 -0.5c76 0 137.333 9.83301 184 29.5s81.667 53.167 105 100.5c10.667 21.333 16 50.666 16 87.999
c0 36 -6.33301 82.833 -19 140.5s-27.667 107.167 -45 148.5l-60 144l142 71c64 -144 106 -268 126 -372c8.66699 -45.333 13 -88.666 13 -129.999c0 -115.333 -41 -208.333 -123 -279c-73.333 -64 -187 -96 -341 -96h-146zM441 -376l-147 -147l-148 148l147 147z" />
    <glyph glyph-name="uniFE92" unicode="&#x628;" horiz-adv-x="718" arabic-form="medial" 
d="M4 20c-22.667 0 -41.332 7.33008 -55.999 21.9971s-22 33.334 -22 56.001c0 21.333 7.5 39.666 22.5 54.999s33.5 23 55.5 23h17c111.333 0 196.833 19.667 256.5 59s89.5 105 89.5 197c0 64 -13 141.333 -39 232c20 4.66699 45.5 11.834 76.5 21.501
s55.167 16.834 72.5 21.501c32 -120.667 48.667 -217.667 50 -291c1.33301 -40.667 4.16602 -74 8.49902 -100s12.666 -50.5 24.999 -73.5s30.166 -39.833 53.499 -50.5s53.333 -16 90 -16c21.333 0 39.833 -7.66699 55.5 -23s23.5 -33.666 23.5 -54.999
c0 -22 -7.66699 -40.5 -23 -55.5s-33.666 -22.5 -54.999 -22.5c-113.333 0 -204 44.667 -272 134c-91.333 -89.333 -228.666 -134 -411.999 -134h-17zM536.002 -361.003l-147 -147l-148 148l147 147z" />
    <glyph glyph-name="uniFE94" unicode="&#x629;" horiz-adv-x="1126" arabic-form="final" 
d="M1127 20c-79.333 0 -143.498 12.6641 -192.498 37.9971s-90.5 66.333 -124.5 123c-90 -14 -166.333 -21 -229 -21c-166.667 0 -281.334 39.333 -344.001 118c-32 39.333 -48 88.333 -48 147c0 42.667 7 78.834 21 108.501s34 60.5 60 92.5
c91.333 110 227 198.333 407 265l-15 145l157 34c7.33301 -36 13.666 -93.833 18.999 -173.5s11.333 -136.834 18 -171.501c17.333 -150.667 34.666 -266 51.999 -346c6.66699 -31.333 12.834 -56.166 18.501 -74.499s14 -37.166 25 -56.499s25.333 -34.333 43 -45
s39.167 -18 64.5 -22c22 -3.33301 44.667 -5 68 -5c22 0 40.667 -7.5 56 -22.5s23 -33.5 23 -55.5c0 -21.333 -7.83301 -39.666 -23.5 -54.999s-34.167 -23 -55.5 -23zM671.002 719.997c-36.667 -15.333 -67.332 -28.667 -91.999 -40s-52.667 -26 -84 -44
s-58.5 -37.833 -81.5 -59.5s-41.833 -45.167 -56.5 -70.5c-11.333 -20 -17 -42.333 -17 -67c0 -83.333 78.333 -125 235 -125c62 0 122.333 6 181 18c-16.667 86 -36.334 218.667 -59.001 398zM594.004 1426l-146 -146l-148 147l146 147zM949.004 1424l-145 -146l-148 148
l146 146z" />
    <glyph glyph-name="uniFE96" unicode="&#x62a;" horiz-adv-x="2253" arabic-form="final" 
d="M2228 20c-225.333 2.66699 -371.67 99.333 -439.003 290c-187.333 -195.333 -467.666 -293 -840.999 -293c-194.667 1.33301 -357.5 23.666 -488.5 66.999s-226.833 116 -287.5 218c-42.667 72.667 -64 153.667 -64 243c0 103.333 28 214.666 84 333.999
c78.667 -44.667 125 -70.667 139 -78l-21.5 -50.5c-12.333 -29 -20.666 -49.833 -24.999 -62.5s-9.16602 -31.834 -14.499 -57.501s-8 -50.167 -8 -73.5c0 -50 8.83301 -94.667 26.5 -134s40.334 -71.666 68.001 -96.999s62.5 -47.5 104.5 -66.5s83.167 -33.5 123.5 -43.5
s85.833 -18.667 136.5 -26c64.667 -9.33301 140.334 -14 227.001 -14c224 0 403.333 32.333 538 97s229.667 172.334 285 323.001c8.66699 24.667 18.667 54.667 30 90c21.333 -5.33301 48.666 -12.833 81.999 -22.5s56.666 -16.167 69.999 -19.5
c-20 -87.333 -30 -145.666 -30 -174.999v-10c2.66699 -93.333 30.667 -163.833 84 -211.5s129.666 -71.5 229 -71.5c22 0 40.667 -7.5 56 -22.5s23 -33.5 23 -55.5s-7.66699 -40.5 -23 -55.5s-34 -22.5 -56 -22.5h-8zM992.996 983.999l-146 -146l-148 147l146 147z
M1348 981.999l-145 -146l-148 148l146 146z" />
    <glyph glyph-name="uniFE97" unicode="&#x62a;" horiz-adv-x="788" arabic-form="initial" 
d="M389 1246l-146 -146l-148 147l146 147zM744 1244l-145 -146l-148 148l146 146zM-37 20c-21.333 0 -39.666 7.49902 -54.999 22.499s-23 33.5 -23 55.5s7.66699 40.5 23 55.5s33.666 22.5 54.999 22.5h111c42.667 0 79.167 0.5 109.5 1.5s65.166 4 104.499 9
s72.166 11.833 98.499 20.5s51.333 21.334 75 38.001s40.834 36.667 51.501 60c10.667 21.333 16 50.666 16 87.999c0 26 -3 54.5 -9 85.5s-11.333 54.333 -16 70s-13 42.167 -25 79.5c-12 40 -38.667 106 -80 198l142 71c64 -144 106 -268 126 -372
c8.66699 -45.333 13 -88.666 13 -129.999c0 -115.333 -41 -208.333 -123 -279c-41.333 -36 -92.666 -61 -153.999 -75s-136.333 -21 -225 -21h-215z" />
    <glyph glyph-name="uniFE98" unicode="&#x62a;" horiz-adv-x="870" arabic-form="medial" 
d="M-3 20c-22 0 -40.499 7.49902 -55.499 22.499s-22.5 33.5 -22.5 55.5s7.5 40.5 22.5 55.5s33.5 22.5 55.5 22.5h76c40.667 0 76.667 1 108 3s64.833 5.66699 100.5 11s66.5 13.5 92.5 24.5s50 24.667 72 41s38.667 37.666 50 63.999s17 56.5 17 90.5v12
c-4.66699 80.667 -17 156.334 -37 227.001c21.333 5.33301 47.666 12.833 78.999 22.5s54.666 16.5 69.999 20.5c12 -44 23.667 -110.167 35 -198.5s19.333 -145.5 24 -171.5c18 -97.333 75 -146 171 -146c22 0 40.833 -7.5 56.5 -22.5s23.5 -33.5 23.5 -55.5
s-7.66699 -40.5 -23 -55.5s-33.666 -22.5 -54.999 -22.5c-112.667 0 -203.667 46 -273 138c-49.333 -47.333 -119.333 -82.166 -210 -104.499s-191 -33.5 -301 -33.5h-76zM410.001 1022l-146 -146l-148 147l146 147zM765.001 1020l-145 -146l-148 148l146 146z" />
    <glyph glyph-name="uniFE9A" unicode="&#x62b;" horiz-adv-x="2233" arabic-form="final" 
d="M2228 20c-225.333 2.66699 -371.67 99.333 -439.003 290c-187.333 -195.333 -467.666 -293 -840.999 -293c-194.667 1.33301 -357.5 23.666 -488.5 66.999s-226.833 116 -287.5 218c-42.667 72.667 -64 153.667 -64 243c0 103.333 28 214.666 84 333.999
c78.667 -44.667 125 -70.667 139 -78l-21.5 -50.5c-12.333 -29 -20.666 -49.833 -24.999 -62.5s-9.16602 -31.834 -14.499 -57.501s-8 -50.167 -8 -73.5c0 -50 8.83301 -94.667 26.5 -134s40.334 -71.666 68.001 -96.999s62.5 -47.5 104.5 -66.5s83.167 -33.5 123.5 -43.5
s85.833 -18.667 136.5 -26c64.667 -9.33301 140.334 -14 227.001 -14c224 0 403.333 32.333 538 97s229.667 172.334 285 323.001c8.66699 24.667 18.667 54.667 30 90c21.333 -5.33301 48.666 -12.833 81.999 -22.5s56.666 -16.167 69.999 -19.5
c-20 -87.333 -30 -145.666 -30 -174.999v-10c2.66699 -93.333 30.667 -163.833 84 -211.5s129.666 -71.5 229 -71.5c22 0 40.667 -7.5 56 -22.5s23 -33.5 23 -55.5s-7.66699 -40.5 -23 -55.5s-34 -22.5 -56 -22.5h-8zM1106 967.999l146 146l148 -148l-146 -146z
M699.996 968.999l146 147l148 -148l-146 -147zM922.996 1259l132 132l133 -133l-132 -132z" />
    <glyph glyph-name="uniFE9B" unicode="&#x62b;" horiz-adv-x="799" arabic-form="initial" 
d="M510 1252l146 146l148 -148l-146 -146zM104 1253l146 147l148 -148l-146 -147zM327 1543l132 132l133 -133l-132 -132zM0 20c-21.333 0 -39.666 7.49902 -54.999 22.499s-23 33.5 -23 55.5s7.66699 40.5 23 55.5s33.666 22.5 54.999 22.5h111
c42.667 0 79.167 0.5 109.5 1.5s65.166 4 104.499 9s72.166 11.833 98.499 20.5s51.333 21.334 75 38.001s40.834 36.667 51.501 60c10.667 21.333 16 50.666 16 87.999c0 26 -3 54.5 -9 85.5s-11.333 54.333 -16 70s-13 42.167 -25 79.5c-12 40 -38.667 106 -80 198l142 71
c64 -144 106 -268 126 -372c8.66699 -45.333 13 -88.666 13 -129.999c0 -115.333 -41 -208.333 -123 -279c-41.333 -36 -92.666 -61 -153.999 -75s-136.333 -21 -225 -21h-215z" />
    <glyph glyph-name="uniFE9C" unicode="&#x62b;" horiz-adv-x="864" arabic-form="medial" 
d="M-3 20c-22 0 -40.499 7.49902 -55.499 22.499s-22.5 33.5 -22.5 55.5s7.5 40.5 22.5 55.5s33.5 22.5 55.5 22.5h76c40.667 0 76.667 1 108 3s64.833 5.66699 100.5 11s66.5 13.5 92.5 24.5s50 24.667 72 41s38.667 37.666 50 63.999s17 56.5 17 90.5v12
c-4.66699 80.667 -17 156.334 -37 227.001c21.333 5.33301 47.666 12.833 78.999 22.5s54.666 16.5 69.999 20.5c12 -44 23.667 -110.167 35 -198.5s19.333 -145.5 24 -171.5c18 -97.333 75 -146 171 -146c22 0 40.833 -7.5 56.5 -22.5s23.5 -33.5 23.5 -55.5
s-7.66699 -40.5 -23 -55.5s-33.666 -22.5 -54.999 -22.5c-112.667 0 -203.667 46 -273 138c-49.333 -47.333 -119.333 -82.166 -210 -104.499s-191 -33.5 -301 -33.5h-76zM466.001 1087l146 146l148 -148l-146 -146zM60.001 1088l146 147l148 -148l-146 -147zM283.001 1378
l132 132l133 -133l-132 -132z" />
    <glyph glyph-name="uniFE9E" unicode="&#x62c;" horiz-adv-x="1609" arabic-form="final" 
d="M1681 96c0 -21.333 -7.8291 -39.3389 -23.4961 -54.0059s-34.167 -22 -55.5 -22c-220.667 0 -376.667 53.667 -468 161c-48 68 -73.667 142.667 -77 224c-1.33301 10.667 -1 23.334 1 38.001c-164.667 -16 -311.834 -56 -441.501 -120s-229.167 -147.667 -298.5 -251
c-44 -66 -69 -136.333 -75 -211v-9c0 -194 104.333 -330.667 313 -410c87.333 -33.333 186.333 -50 297 -50c103.333 0 196 14 278 42s161 68.667 237 122l90 -129c-198.667 -132.667 -413 -199 -643 -199c-159.333 0 -296.5 30.833 -411.5 92.5s-200.5 147.5 -256.5 257.5
c-38 74.667 -57 160.334 -57 257.001v21c0 140.667 52.333 271.334 157 392.001c96.667 110.667 223 195.834 379 255.501s335 89.5 537 89.5h35c-34 18.667 -72.167 43.334 -114.5 74.001l-111 83.5c-31.667 25 -69.5 50.667 -113.5 77s-87.333 46.5 -130 60.5
c-34 11.333 -70 17 -108 17c-38.667 0 -76 -8.66699 -112 -26s-64.333 -35.666 -85 -54.999s-43.334 -43.333 -68.001 -72s-44.667 -54 -60 -76l-65 42.5l-64 41.5c88 136.667 188.333 228.667 301 276c42.667 18 88.334 27 137.001 27
c101.333 0 201.666 -26.333 300.999 -79c32.667 -17.333 67.5 -38.333 104.5 -63s67.333 -46 91 -64l98.5 -76.5l89 -69.5c43.333 -32.667 86.666 -61.667 129.999 -87l-51 -159l-154 -10c-0.666992 -3.33301 -1 -8.33301 -1 -15v-14c0 -41.333 6.83301 -77.333 20.5 -108
s31.5 -55 53.5 -73s50.5 -32.167 85.5 -42.5s70.167 -17.333 105.5 -21s76.666 -5.5 123.999 -5.5c21.333 0 39.833 -8 55.5 -24s23.5 -34.667 23.5 -56zM970.004 -122.006l-147 -147l-148 148l147 147z" />
    <glyph glyph-name="uniFE9F" unicode="&#x62c;" horiz-adv-x="1548" arabic-form="initial" 
d="M-1 20c-21.333 0 -39.999 7.66895 -55.999 23.002s-24 33.666 -24 54.999c0 22 7.83301 40.5 23.5 55.5s34.5 22.5 56.5 22.5h198c166 0 348.333 33.333 547 100c152 50.667 325.667 125 521 223l-298 124l-34.5 17c-17.667 8.66699 -30.167 14.667 -37.5 18l-35 16.5
c-16 7.66699 -28.833 13.5 -38.5 17.5s-21.667 8.66699 -36 14s-27.833 9.83301 -40.5 13.5s-25.667 7.16699 -39 10.5c-26 6 -50 9 -72 9c-65.333 0 -128.666 -32.667 -189.999 -98c-36 -38 -69.667 -85.333 -101 -142l-134 80c24 52.667 59.667 104.667 107 156
s94.666 89.666 141.999 114.999c58 30.667 116.667 46 176 46c56 0 120.667 -13.333 194 -40c72.667 -26.667 174.834 -73.167 306.501 -139.5s233.5 -112.5 305.5 -138.5c3.33301 -20 8.66602 -46.5 15.999 -79.5s12.666 -58.833 15.999 -77.5
c-33.333 -12.667 -99 -43.667 -197 -93c-292 -142 -553.667 -235.333 -785 -280c-96 -18.667 -193.667 -28 -293 -28h-198zM912.001 -364.998l-147 -147l-148 148l147 147z" />
    <glyph glyph-name="uniFEA0" unicode="&#x62c;" horiz-adv-x="1663" arabic-form="medial" 
d="M0 20c-22 0 -40.667 7.33496 -56 22.002s-23 33 -23 55c0 21.333 7.83301 39.833 23.5 55.5s34.167 23.5 55.5 23.5h183c162 0 330.333 30.333 505 91c108.667 37.333 258.334 103.666 449.001 198.999l60 30c-50 17.333 -133.833 55 -251.5 113
s-212.5 96.333 -284.5 115c-36 9.33301 -69.333 14 -100 14c-64.667 0 -127.667 -32 -189 -96c-39.333 -41.333 -73.333 -89 -102 -143l-130 88c77.333 141.333 171.333 235.666 282 282.999c42 18 88.333 27 139 27c75.333 0 167.666 -22.333 276.999 -67
c48.667 -20 118.5 -53.167 209.5 -99.5s159.167 -79.166 204.5 -98.499c48 -20 93 -34.333 135 -43l17 -78c7.33301 -34 12.666 -60 15.999 -78l-27 -12c-14 -7.33301 -31.833 -16 -53.5 -26s-38.5 -18 -50.5 -24c19.333 -66 61.5 -115 126.5 -147s144.167 -48 237.5 -48h14
c21.333 0 39.833 -7.83301 55.5 -23.5s23.5 -34.167 23.5 -55.5c0 -22 -7.66699 -40.333 -23 -55s-34 -22 -56 -22h-14c-127.333 0 -235.166 24.167 -323.499 72.5s-149.833 117.5 -184.5 207.5c-127.333 -63.333 -245.5 -116.333 -354.5 -159
s-223.5 -75.334 -343.5 -98.001c-84.667 -16 -172.667 -24 -264 -24zM936 -362.998l-147 -147l-148 148l147 147z" />
    <glyph glyph-name="uniFEA2" unicode="&#x62d;" horiz-adv-x="1600" arabic-form="final" 
d="M1681 96c0 -21.333 -7.8291 -39.3389 -23.4961 -54.0059s-34.167 -22 -55.5 -22c-220.667 0 -376.667 53.667 -468 161c-48 68 -73.667 142.667 -77 224c-1.33301 10.667 -1 23.334 1 38.001c-164.667 -16 -311.834 -56 -441.501 -120s-229.167 -147.667 -298.5 -251
c-44 -66 -69 -136.333 -75 -211v-9c0 -194 104.333 -330.667 313 -410c87.333 -33.333 186.333 -50 297 -50c103.333 0 196 14 278 42s161 68.667 237 122l90 -129c-198.667 -132.667 -413 -199 -643 -199c-159.333 0 -296.5 30.833 -411.5 92.5s-200.5 147.5 -256.5 257.5
c-38 74.667 -57 160.334 -57 257.001v21c0 140.667 52.333 271.334 157 392.001c96.667 110.667 223 195.834 379 255.501s335 89.5 537 89.5h35c-34 18.667 -72.167 43.334 -114.5 74.001l-111 83.5c-31.667 25 -69.5 50.667 -113.5 77s-87.333 46.5 -130 60.5
c-34 11.333 -70 17 -108 17c-38.667 0 -76 -8.66699 -112 -26s-64.333 -35.666 -85 -54.999s-43.334 -43.333 -68.001 -72s-44.667 -54 -60 -76l-65 42.5l-64 41.5c88 136.667 188.333 228.667 301 276c42.667 18 88.334 27 137.001 27
c101.333 0 201.666 -26.333 300.999 -79c32.667 -17.333 67.5 -38.333 104.5 -63s67.333 -46 91 -64l98.5 -76.5l89 -69.5c43.333 -32.667 86.666 -61.667 129.999 -87l-51 -159l-154 -10c-0.666992 -3.33301 -1 -8.33301 -1 -15v-14c0 -41.333 6.83301 -77.333 20.5 -108
s31.5 -55 53.5 -73s50.5 -32.167 85.5 -42.5s70.167 -17.333 105.5 -21s76.666 -5.5 123.999 -5.5c21.333 0 39.833 -8 55.5 -24s23.5 -34.667 23.5 -56z" />
    <glyph glyph-name="uniFEA3" unicode="&#x62d;" horiz-adv-x="1548" arabic-form="initial" 
d="M-1 20c-21.333 0 -39.999 7.66895 -55.999 23.002s-24 33.666 -24 54.999c0 22 7.83301 40.5 23.5 55.5s34.5 22.5 56.5 22.5h198c166 0 348.333 33.333 547 100c152 50.667 325.667 125 521 223l-298 124l-34.5 17c-17.667 8.66699 -30.167 14.667 -37.5 18l-35 16.5
c-16 7.66699 -28.833 13.5 -38.5 17.5s-21.667 8.66699 -36 14s-27.833 9.83301 -40.5 13.5s-25.667 7.16699 -39 10.5c-26 6 -50 9 -72 9c-65.333 0 -128.666 -32.667 -189.999 -98c-36 -38 -69.667 -85.333 -101 -142l-134 80c24 52.667 59.667 104.667 107 156
s94.666 89.666 141.999 114.999c58 30.667 116.667 46 176 46c56 0 120.667 -13.333 194 -40c72.667 -26.667 174.834 -73.167 306.501 -139.5s233.5 -112.5 305.5 -138.5c3.33301 -20 8.66602 -46.5 15.999 -79.5s12.666 -58.833 15.999 -77.5
c-33.333 -12.667 -99 -43.667 -197 -93c-292 -142 -553.667 -235.333 -785 -280c-96 -18.667 -193.667 -28 -293 -28h-198z" />
    <glyph glyph-name="uniFEA4" unicode="&#x62d;" horiz-adv-x="1667" arabic-form="medial" 
d="M0 20c-22 0 -40.667 7.33496 -56 22.002s-23 33 -23 55c0 21.333 7.83301 39.833 23.5 55.5s34.167 23.5 55.5 23.5h183c162 0 330.333 30.333 505 91c108.667 37.333 258.334 103.666 449.001 198.999l60 30c-50 17.333 -133.833 55 -251.5 113
s-212.5 96.333 -284.5 115c-36 9.33301 -69.333 14 -100 14c-64.667 0 -127.667 -32 -189 -96c-39.333 -41.333 -73.333 -89 -102 -143l-130 88c77.333 141.333 171.333 235.666 282 282.999c42 18 88.333 27 139 27c75.333 0 167.666 -22.333 276.999 -67
c48.667 -20 118.5 -53.167 209.5 -99.5s159.167 -79.166 204.5 -98.499c48 -20 93 -34.333 135 -43l17 -78c7.33301 -34 12.666 -60 15.999 -78l-27 -12c-14 -7.33301 -31.833 -16 -53.5 -26s-38.5 -18 -50.5 -24c19.333 -66 61.5 -115 126.5 -147s144.167 -48 237.5 -48h14
c21.333 0 39.833 -7.83301 55.5 -23.5s23.5 -34.167 23.5 -55.5c0 -22 -7.66699 -40.333 -23 -55s-34 -22 -56 -22h-14c-127.333 0 -235.166 24.167 -323.499 72.5s-149.833 117.5 -184.5 207.5c-127.333 -63.333 -245.5 -116.333 -354.5 -159
s-223.5 -75.334 -343.5 -98.001c-84.667 -16 -172.667 -24 -264 -24z" />
    <glyph glyph-name="uniFEA6" unicode="&#x62e;" horiz-adv-x="1603" arabic-form="final" 
d="M1681 96c0 -21.333 -7.8291 -39.3389 -23.4961 -54.0059s-34.167 -22 -55.5 -22c-220.667 0 -376.667 53.667 -468 161c-48 68 -73.667 142.667 -77 224c-1.33301 10.667 -1 23.334 1 38.001c-164.667 -16 -311.834 -56 -441.501 -120s-229.167 -147.667 -298.5 -251
c-44 -66 -69 -136.333 -75 -211v-9c0 -194 104.333 -330.667 313 -410c87.333 -33.333 186.333 -50 297 -50c103.333 0 196 14 278 42s161 68.667 237 122l90 -129c-198.667 -132.667 -413 -199 -643 -199c-159.333 0 -296.5 30.833 -411.5 92.5s-200.5 147.5 -256.5 257.5
c-38 74.667 -57 160.334 -57 257.001v21c0 140.667 52.333 271.334 157 392.001c96.667 110.667 223 195.834 379 255.501s335 89.5 537 89.5h35c-34 18.667 -72.167 43.334 -114.5 74.001l-111 83.5c-31.667 25 -69.5 50.667 -113.5 77s-87.333 46.5 -130 60.5
c-34 11.333 -70 17 -108 17c-38.667 0 -76 -8.66699 -112 -26s-64.333 -35.666 -85 -54.999s-43.334 -43.333 -68.001 -72s-44.667 -54 -60 -76l-65 42.5l-64 41.5c88 136.667 188.333 228.667 301 276c42.667 18 88.334 27 137.001 27
c101.333 0 201.666 -26.333 300.999 -79c32.667 -17.333 67.5 -38.333 104.5 -63s67.333 -46 91 -64l98.5 -76.5l89 -69.5c43.333 -32.667 86.666 -61.667 129.999 -87l-51 -159l-154 -10c-0.666992 -3.33301 -1 -8.33301 -1 -15v-14c0 -41.333 6.83301 -77.333 20.5 -108
s31.5 -55 53.5 -73s50.5 -32.167 85.5 -42.5s70.167 -17.333 105.5 -21s76.666 -5.5 123.999 -5.5c21.333 0 39.833 -8 55.5 -24s23.5 -34.667 23.5 -56zM759.004 1383.99l-147 -147l-148 148l147 147z" />
    <glyph glyph-name="uniFEA7" unicode="&#x62e;" horiz-adv-x="1548" arabic-form="initial" 
d="M-1 20c-21.333 0 -39.999 7.66895 -55.999 23.002s-24 33.666 -24 54.999c0 22 7.83301 40.5 23.5 55.5s34.5 22.5 56.5 22.5h198c166 0 348.333 33.333 547 100c152 50.667 325.667 125 521 223l-298 124l-34.5 17c-17.667 8.66699 -30.167 14.667 -37.5 18l-35 16.5
c-16 7.66699 -28.833 13.5 -38.5 17.5s-21.667 8.66699 -36 14s-27.833 9.83301 -40.5 13.5s-25.667 7.16699 -39 10.5c-26 6 -50 9 -72 9c-65.333 0 -128.666 -32.667 -189.999 -98c-36 -38 -69.667 -85.333 -101 -142l-134 80c24 52.667 59.667 104.667 107 156
s94.666 89.666 141.999 114.999c58 30.667 116.667 46 176 46c56 0 120.667 -13.333 194 -40c72.667 -26.667 174.834 -73.167 306.501 -139.5s233.5 -112.5 305.5 -138.5c3.33301 -20 8.66602 -46.5 15.999 -79.5s12.666 -58.833 15.999 -77.5
c-33.333 -12.667 -99 -43.667 -197 -93c-292 -142 -553.667 -235.333 -785 -280c-96 -18.667 -193.667 -28 -293 -28h-198zM739.001 1285l-147 -147l-148 148l147 147z" />
    <glyph glyph-name="uniFEA8" unicode="&#x62e;" horiz-adv-x="1669" arabic-form="medial" 
d="M0 20c-22 0 -40.667 7.33496 -56 22.002s-23 33 -23 55c0 21.333 7.83301 39.833 23.5 55.5s34.167 23.5 55.5 23.5h183c162 0 330.333 30.333 505 91c108.667 37.333 258.334 103.666 449.001 198.999l60 30c-50 17.333 -133.833 55 -251.5 113
s-212.5 96.333 -284.5 115c-36 9.33301 -69.333 14 -100 14c-64.667 0 -127.667 -32 -189 -96c-39.333 -41.333 -73.333 -89 -102 -143l-130 88c77.333 141.333 171.333 235.666 282 282.999c42 18 88.333 27 139 27c75.333 0 167.666 -22.333 276.999 -67
c48.667 -20 118.5 -53.167 209.5 -99.5s159.167 -79.166 204.5 -98.499c48 -20 93 -34.333 135 -43l17 -78c7.33301 -34 12.666 -60 15.999 -78l-27 -12c-14 -7.33301 -31.833 -16 -53.5 -26s-38.5 -18 -50.5 -24c19.333 -66 61.5 -115 126.5 -147s144.167 -48 237.5 -48h14
c21.333 0 39.833 -7.83301 55.5 -23.5s23.5 -34.167 23.5 -55.5c0 -22 -7.66699 -40.333 -23 -55s-34 -22 -56 -22h-14c-127.333 0 -235.166 24.167 -323.499 72.5s-149.833 117.5 -184.5 207.5c-127.333 -63.333 -245.5 -116.333 -354.5 -159
s-223.5 -75.334 -343.5 -98.001c-84.667 -16 -172.667 -24 -264 -24zM687 1224l-147 -147l-148 148l147 147z" />
    <glyph glyph-name="uniFEAA" unicode="&#x62f;" horiz-adv-x="1253" arabic-form="final" 
d="M1249 20c-138 0 -244.002 46.9971 -318.002 140.997c-10 -8 -20.667 -15.667 -32 -23s-25.166 -15 -41.499 -23s-28.666 -13.833 -36.999 -17.5l-45 -19.5c-21.667 -9.33301 -34.5 -14.666 -38.5 -15.999c-72 -28 -154.333 -42 -247 -42c-110 0 -212.667 32.667 -308 98
c-33.333 22.667 -62 46 -86 70l91 126c106 -89.333 215.333 -134 328 -134c100.667 0 203.667 34.667 309 104c12 8 21.667 15.667 29 23l-313 754c51.333 20.667 99.333 41 144 61l315 -759c22 -58 40.333 -96.333 55 -115c6 -8.66699 12.667 -16 20 -22
c38 -33.333 96.333 -50 175 -50c21.333 0 39.833 -7.66699 55.5 -23s23.5 -33.666 23.5 -54.999s-7.83301 -39.666 -23.5 -54.999s-34.167 -23 -55.5 -23z" />
    <glyph glyph-name="uniFEAC" unicode="&#x630;" horiz-adv-x="1247" arabic-form="final" 
d="M1249 20c-138 0 -244.002 46.9971 -318.002 140.997c-10 -8 -20.667 -15.667 -32 -23s-25.166 -15 -41.499 -23s-28.666 -13.833 -36.999 -17.5l-45 -19.5c-21.667 -9.33301 -34.5 -14.666 -38.5 -15.999c-72 -28 -154.333 -42 -247 -42c-110 0 -212.667 32.667 -308 98
c-33.333 22.667 -62 46 -86 70l91 126c106 -89.333 215.333 -134 328 -134c100.667 0 203.667 34.667 309 104c12 8 21.667 15.667 29 23l-313 754c51.333 20.667 99.333 41 144 61l315 -759c22 -58 40.333 -96.333 55 -115c6 -8.66699 12.667 -16 20 -22
c38 -33.333 96.333 -50 175 -50c21.333 0 39.833 -7.66699 55.5 -23s23.5 -33.666 23.5 -54.999s-7.83301 -39.666 -23.5 -54.999s-34.167 -23 -55.5 -23zM773.998 1468l-147 -147l-148 148l147 147z" />
    <glyph glyph-name="uniFEAE" unicode="&#x631;" horiz-adv-x="816" arabic-form="final" 
d="M825 20c-47.333 0 -87.499 8.66602 -120.499 25.999s-66.167 42.666 -99.5 75.999v-53c0 -105.333 -31 -209.666 -93 -312.999c-112 -185.333 -291.333 -340.666 -538 -465.999c-6.66699 14 -17.667 35.833 -33 65.5s-27.666 54.5 -36.999 74.5
c216 112 370.667 241 464 387c53.333 82.667 80 167 80 253v20c0 4 -0.666992 10.667 -2 20c-3.33301 22 -6.83301 43.667 -10.5 65s-8.5 44.833 -14.5 70.5l-14 60.5c-3.33301 14.667 -9.5 37.5 -18.5 68.5s-14.5 50.333 -16.5 58s-8.5 29.5 -19.5 65.5
s-16.833 55 -17.5 57l150 46c50 -152 101 -260.333 153 -325c25.333 -32 52.166 -56.667 80.499 -74s62.166 -26 101.499 -26h5c21.333 0 39.833 -7.83301 55.5 -23.5s23.5 -34.167 23.5 -55.5c0 -22 -7.66699 -40.333 -23 -55s-34 -22 -56 -22z" />
    <glyph glyph-name="uniFEB0" unicode="&#x632;" horiz-adv-x="819" arabic-form="final" 
d="M825 20c-47.333 0 -87.499 8.66602 -120.499 25.999s-66.167 42.666 -99.5 75.999v-53c0 -105.333 -31 -209.666 -93 -312.999c-112 -185.333 -291.333 -340.666 -538 -465.999c-6.66699 14 -17.667 35.833 -33 65.5s-27.666 54.5 -36.999 74.5
c216 112 370.667 241 464 387c53.333 82.667 80 167 80 253v20c0 4 -0.666992 10.667 -2 20c-3.33301 22 -6.83301 43.667 -10.5 65s-8.5 44.833 -14.5 70.5l-14 60.5c-3.33301 14.667 -9.5 37.5 -18.5 68.5s-14.5 50.333 -16.5 58s-8.5 29.5 -19.5 65.5
s-16.833 55 -17.5 57l150 46c50 -152 101 -260.333 153 -325c25.333 -32 52.166 -56.667 80.499 -74s62.166 -26 101.499 -26h5c21.333 0 39.833 -7.83301 55.5 -23.5s23.5 -34.167 23.5 -55.5c0 -22 -7.66699 -40.333 -23 -55s-34 -22 -56 -22zM538.001 993.999l-147 -147
l-148 148l147 147z" />
    <glyph glyph-name="uniFEB2" unicode="&#x633;" horiz-adv-x="2889" arabic-form="final" 
d="M2432 548c0 22.667 -3.66895 74.335 -11.002 155.002l164 11c4.66699 -86 18 -177.333 40 -274c28.667 -86 63.667 -151.333 105 -196c42 -45.333 89 -68 141 -68h20c21.333 0 39.833 -7.83301 55.5 -23.5s23.5 -34.167 23.5 -55.5c0 -20.667 -7.83301 -38.667 -23.5 -54
s-34.167 -23 -55.5 -23h-20c-60 0 -115.833 15 -167.5 45s-94.5 70.333 -128.5 121c-2.66699 4 -16 26 -40 66c-24.667 -54.667 -49.5 -98 -74.5 -130s-58.167 -57.667 -99.5 -77c-36.667 -17.333 -76.667 -26 -120 -26c-59.333 0 -118.333 28 -177 84
c-19.333 18 -37 38.667 -53 62c-77.333 -90.667 -177 -139.334 -299 -146.001h-15c-72 0 -140 20.333 -204 61l2 -52c1.33301 -21.333 2 -37.333 2 -48c0 -183.333 -71 -334 -213 -452c-138.667 -114.667 -306.334 -172 -503.001 -172c-17.333 0 -30.333 0.333008 -39 1
c-149.333 0 -273.5 35.833 -372.5 107.5s-168.833 168.834 -209.5 291.501c-21.333 62.667 -32 135.334 -32 218.001c0 105.333 16.667 209.333 50 312c31.333 108.667 69.333 195.667 114 261l63 -47l64 -48c-54 -86 -93.333 -198 -118 -336
c-9.33301 -52 -14 -101.667 -14 -149c0 -116.667 27.667 -211 83 -283s133.333 -121.667 234 -149c46.667 -12.667 103 -19 169 -19c292 14 470.333 118 535 312c24.667 77.333 37 162.333 37 255c0 86 -9 164.333 -27 235s-44.667 147 -80 229c18.667 12.667 41 25 67 37
l32 16c7.33301 3.33301 18.333 9.66602 33 18.999c3.33301 -3.33301 11.333 -22.333 24 -57l24.5 -65.5l26 -70.5c6.33301 -17.333 15.5 -39 27.5 -65s23.5 -47.333 34.5 -64s24.5 -33.667 40.5 -51s33 -31.333 51 -42c28.667 -17.333 64.667 -26 108 -26
c20.667 0 40 2 58 6s33.833 10.5 47.5 19.5s26 18.5 37 28.5s20.5 23.167 28.5 39.5s15 31.5 21 45.5s11 31.833 15 53.5l10 56c2.66699 15.667 4.83398 36 6.50098 61s2.83398 45.5 3.50098 61.5s1.33398 37 2.00098 63v15l164 -11l-7 -152c0 -129.333 24.333 -217 73 -263
c19.333 -18.667 46 -28 80 -28c22 0 39.5 4 52.5 12s26.833 20.333 41.5 37v-1c26.667 29.333 48 70.166 64 122.499s25.333 109.166 28 170.499c0 4 0.166992 9.66699 0.5 17s0.5 13 0.5 17z" />
    <glyph glyph-name="uniFEB3" unicode="&#x633;" horiz-adv-x="1609" arabic-form="initial" 
d="M1 19c-19.333 1.33301 -36.332 9.49902 -50.999 24.499s-22 32.833 -22 53.5c0 20 7.16699 37.667 21.5 53s31.166 24 50.499 26c72.667 2 137.334 30.667 194.001 86c80.667 78.667 141.334 212.667 182.001 402l157 -31c-2.66699 -10 -9.16699 -32.333 -19.5 -67
s-17.833 -61 -22.5 -79s-9.5 -42.167 -14.5 -72.5s-7.5 -58.833 -7.5 -85.5c0 -108 42.667 -162 128 -162c65.333 0 122.333 32.333 171 97c37.333 50 67.166 110.333 89.499 181s41.833 153.667 58.5 249c19.333 -3.33301 45.5 -8.16602 78.5 -14.499
s57.5 -11.166 73.5 -14.499v-1c-11.333 -56 -22 -126.667 -32 -212c-3.33301 -30 -5 -54.667 -5 -74c0 -142.667 55.667 -214 167 -214c56 0 98.167 17.5 126.5 52.5s42.5 82.833 42.5 143.5c0 60 -15.667 140.667 -47 242c-22.667 73.333 -50.334 142 -83.001 206l139 74
c61.333 -122.667 105.333 -243.334 132 -362.001c12 -54 18 -106.333 18 -157c0 -114 -30.667 -201.667 -92 -263s-149.333 -92 -264 -92h-10c-69.333 0 -139.333 33.333 -210 100c-20.667 19.333 -38.667 41 -54 65c-95.333 -110 -195 -165 -299 -165
c-79.333 0 -149 31.333 -209 94c-20 21.333 -36 45.333 -48 72c-46 -48 -95 -85.333 -147 -112s-116 -41 -192 -43z" />
    <glyph glyph-name="uniFEB4" unicode="&#x633;" horiz-adv-x="1851" arabic-form="medial" 
d="M533 217c16.667 -28.667 45.334 -43 86.001 -43c26 0 53.333 10 82 30c102.667 74 177.667 241.333 225 502l155 -29c-14.667 -72 -22 -140.333 -22 -205v-23c0 -136 29.667 -221.667 89 -257c14.667 -8.66699 36.667 -13 66 -13c41.333 0 74.333 14.333 99 43v-1
c29.333 31.333 51.166 76.833 65.499 136.5s21.5 124.834 21.5 195.501c0 4.66699 0.166992 11.167 0.5 19.5s0.5 14.166 0.5 17.499c0 12 -0.333008 24.167 -1 36.5s-1.5 25.833 -2.5 40.5s-1.83301 26.334 -2.5 35.001l159 14c7.33301 -95.333 24 -187.166 50 -275.499
s60 -154.833 102 -199.5c40 -43.333 86.333 -65 139 -65h8c22 0 40.5 -7.5 55.5 -22.5s22.5 -33.5 22.5 -55.5c0 -21.333 -7.66699 -39.666 -23 -54.999s-33.666 -23 -54.999 -23h-8c-138 0 -250 76.333 -336 229c-14.667 -34 -29.834 -63.333 -45.501 -88
s-35.167 -48.334 -58.5 -71.001s-51 -40 -83 -52s-68 -18 -108 -18c-74.667 0 -133.5 18.667 -176.5 56s-78.5 90 -106.5 158c-49.333 -74.667 -95.333 -127.334 -138 -158.001c-56 -39.333 -115 -59 -177 -59c-38 0 -71.5 5.66699 -100.5 17s-53.5 28.5 -73.5 51.5
s-36.333 45.667 -49 68s-26 50.166 -40 83.499c-34 -46 -63 -80 -87 -102c-78.667 -76.667 -165 -115 -259 -115h-9c-21.333 0 -39.833 7.66699 -55.5 23s-23.5 33.666 -23.5 54.999c0 20.667 8.16699 38.5 24.5 53.5s34.833 23.167 55.5 24.5h8c52.667 0 107 28 163 84
c52.667 52.667 104 136 154 250c27.333 62 49.333 123.333 66 184v2l152 -42l-2 -6l1 1c-28 -94 -42 -185 -42 -273c0 -2.66699 0.166992 -7.16699 0.5 -13.5s0.5 -11.166 0.5 -14.499c2 -54 13 -98 33 -132v1z" />
    <glyph glyph-name="uniFEB6" unicode="&#x634;" horiz-adv-x="2889" arabic-form="final" 
d="M2432 548c0 22.667 -3.66895 74.335 -11.002 155.002l164 11c4.66699 -86 18 -177.333 40 -274c28.667 -86 63.667 -151.333 105 -196c42 -45.333 89 -68 141 -68h20c21.333 0 39.833 -7.83301 55.5 -23.5s23.5 -34.167 23.5 -55.5c0 -20.667 -7.83301 -38.667 -23.5 -54
s-34.167 -23 -55.5 -23h-20c-60 0 -115.833 15 -167.5 45s-94.5 70.333 -128.5 121c-2.66699 4 -16 26 -40 66c-24.667 -54.667 -49.5 -98 -74.5 -130s-58.167 -57.667 -99.5 -77c-36.667 -17.333 -76.667 -26 -120 -26c-59.333 0 -118.333 28 -177 84
c-19.333 18 -37 38.667 -53 62c-77.333 -90.667 -177 -139.334 -299 -146.001h-15c-72 0 -140 20.333 -204 61l2 -52c1.33301 -21.333 2 -37.333 2 -48c0 -183.333 -71 -334 -213 -452c-138.667 -114.667 -306.334 -172 -503.001 -172c-17.333 0 -30.333 0.333008 -39 1
c-149.333 0 -273.5 35.833 -372.5 107.5s-168.833 168.834 -209.5 291.501c-21.333 62.667 -32 135.334 -32 218.001c0 105.333 16.667 209.333 50 312c31.333 108.667 69.333 195.667 114 261l63 -47l64 -48c-54 -86 -93.333 -198 -118 -336
c-9.33301 -52 -14 -101.667 -14 -149c0 -116.667 27.667 -211 83 -283s133.333 -121.667 234 -149c46.667 -12.667 103 -19 169 -19c292 14 470.333 118 535 312c24.667 77.333 37 162.333 37 255c0 86 -9 164.333 -27 235s-44.667 147 -80 229c18.667 12.667 41 25 67 37
l32 16c7.33301 3.33301 18.333 9.66602 33 18.999c3.33301 -3.33301 11.333 -22.333 24 -57l24.5 -65.5l26 -70.5c6.33301 -17.333 15.5 -39 27.5 -65s23.5 -47.333 34.5 -64s24.5 -33.667 40.5 -51s33 -31.333 51 -42c28.667 -17.333 64.667 -26 108 -26
c20.667 0 40 2 58 6s33.833 10.5 47.5 19.5s26 18.5 37 28.5s20.5 23.167 28.5 39.5s15 31.5 21 45.5s11 31.833 15 53.5l10 56c2.66699 15.667 4.83398 36 6.50098 61s2.83398 45.5 3.50098 61.5s1.33398 37 2.00098 63v15l164 -11l-7 -152c0 -129.333 24.333 -217 73 -263
c19.333 -18.667 46 -28 80 -28c22 0 39.5 4 52.5 12s26.833 20.333 41.5 37v-1c26.667 29.333 48 70.166 64 122.499s25.333 109.166 28 170.499c0 4 0.166992 9.66699 0.5 17s0.5 13 0.5 17zM2050 1050l146 146l148 -148l-146 -146zM1644 1051l146 147l148 -148l-146 -147z
M1867 1341l132 132l133 -133l-132 -132z" />
    <glyph glyph-name="uniFEB7" unicode="&#x634;" horiz-adv-x="1609" arabic-form="initial" 
d="M1 19c-19.333 1.33301 -36.332 9.49902 -50.999 24.499s-22 32.833 -22 53.5c0 20 7.16699 37.667 21.5 53s31.166 24 50.499 26c72.667 2 137.334 30.667 194.001 86c80.667 78.667 141.334 212.667 182.001 402l157 -31c-2.66699 -10 -9.16699 -32.333 -19.5 -67
s-17.833 -61 -22.5 -79s-9.5 -42.167 -14.5 -72.5s-7.5 -58.833 -7.5 -85.5c0 -108 42.667 -162 128 -162c65.333 0 122.333 32.333 171 97c37.333 50 67.166 110.333 89.499 181s41.833 153.667 58.5 249c19.333 -3.33301 45.5 -8.16602 78.5 -14.499
s57.5 -11.166 73.5 -14.499v-1c-11.333 -56 -22 -126.667 -32 -212c-3.33301 -30 -5 -54.667 -5 -74c0 -142.667 55.667 -214 167 -214c56 0 98.167 17.5 126.5 52.5s42.5 82.833 42.5 143.5c0 60 -15.667 140.667 -47 242c-22.667 73.333 -50.334 142 -83.001 206l139 74
c61.333 -122.667 105.333 -243.334 132 -362.001c12 -54 18 -106.333 18 -157c0 -114 -30.667 -201.667 -92 -263s-149.333 -92 -264 -92h-10c-69.333 0 -139.333 33.333 -210 100c-20.667 19.333 -38.667 41 -54 65c-95.333 -110 -195 -165 -299 -165
c-79.333 0 -149 31.333 -209 94c-20 21.333 -36 45.333 -48 72c-46 -48 -95 -85.333 -147 -112s-116 -41 -192 -43zM987.001 1156l146 146l148 -148l-146 -146zM581.001 1157l146 147l148 -148l-146 -147zM804.001 1447l132 132l133 -133l-132 -132z" />
    <glyph glyph-name="uniFEB8" unicode="&#x634;" horiz-adv-x="1876" arabic-form="medial" 
d="M540 217c16.667 -28.667 45.334 -43 86.001 -43c26 0 53.333 10 82 30c102.667 74 177.667 241.333 225 502l155 -29c-14.667 -72 -22 -140.333 -22 -205v-23c0 -136 29.667 -221.667 89 -257c14.667 -8.66699 36.667 -13 66 -13c41.333 0 74.333 14.333 99 43v-1
c29.333 31.333 51.166 76.833 65.499 136.5s21.5 124.834 21.5 195.501c0 4.66699 0.166992 11.167 0.5 19.5s0.5 14.166 0.5 17.499c0 12 -0.333008 24.167 -1 36.5s-1.5 25.833 -2.5 40.5s-1.83301 26.334 -2.5 35.001l159 14c7.33301 -95.333 24 -187.166 50 -275.499
s60 -154.833 102 -199.5c40 -43.333 86.333 -65 139 -65h8c22 0 40.5 -7.5 55.5 -22.5s22.5 -33.5 22.5 -55.5c0 -21.333 -7.66699 -39.666 -23 -54.999s-33.666 -23 -54.999 -23h-8c-138 0 -250 76.333 -336 229c-14.667 -34 -29.834 -63.333 -45.501 -88
s-35.167 -48.334 -58.5 -71.001s-51 -40 -83 -52s-68 -18 -108 -18c-74.667 0 -133.5 18.667 -176.5 56s-78.5 90 -106.5 158c-49.333 -74.667 -95.333 -127.334 -138 -158.001c-56 -39.333 -115 -59 -177 -59c-38 0 -71.5 5.66699 -100.5 17s-53.5 28.5 -73.5 51.5
s-36.333 45.667 -49 68s-26 50.166 -40 83.499c-34 -46 -63 -80 -87 -102c-78.667 -76.667 -165 -115 -259 -115h-9c-21.333 0 -39.833 7.66699 -55.5 23s-23.5 33.666 -23.5 54.999c0 20.667 8.16699 38.5 24.5 53.5s34.833 23.167 55.5 24.5h8c52.667 0 107 28 163 84
c52.667 52.667 104 136 154 250c27.333 62 49.333 123.333 66 184v2l152 -42l-2 -6l1 1c-28 -94 -42 -185 -42 -273c0 -2.66699 0.166992 -7.16699 0.5 -13.5s0.5 -11.166 0.5 -14.499c2 -54 13 -98 33 -132v1zM1055 1125l146 146l148 -148l-146 -146zM649 1126l146 147
l148 -148l-146 -147zM872 1416l132 132l133 -133l-132 -132z" />
    <glyph glyph-name="uniFEBA" unicode="&#x635;" horiz-adv-x="2868" arabic-form="final" 
d="M1730 200c105.333 -38.667 219.667 -58 343 -58c157.333 0 287.666 31.667 391 95c36 19.333 65.667 48.833 89 88.5s35 84.5 35 134.5c0 82.667 -36.333 144.667 -109 186c-36.667 21.333 -81.667 32 -135 32c-62 0 -116.667 -11 -164 -33s-95.333 -52.333 -144 -91
c-131.333 -106 -233.333 -224 -306 -354zM2947 97c0 -21.333 -7.66406 -39.499 -22.9971 -54.499s-34 -22.5 -56 -22.5c-60 0 -115.667 9 -167 27s-92.333 42.333 -123 73c-139.333 -90 -304 -135 -494 -135h-23c-225.333 0 -421 60.333 -587 181
c4.66699 -30.667 7 -74.334 7 -131.001v-27c0 -141.333 -43.667 -271.666 -131 -390.999c-56.667 -78 -131.167 -138.667 -223.5 -182s-200.833 -65 -325.5 -65c-147.333 0 -272 24.5 -374 73.5s-176.667 121.5 -224 217.5c-36.667 74 -55 161.667 -55 263v8
c1.33301 98 16.666 197.833 45.999 299.5s65.333 191.834 108 270.501c29.333 -20 74.333 -49 135 -87c-47.333 -90 -86 -203 -116 -339c-10.667 -49.333 -16 -100 -16 -152c0 -139.333 42.667 -240.166 128 -302.499s206.333 -93.5 363 -93.5
c158 0 282.167 40.167 372.5 120.5s141.166 195.166 152.499 344.499c0.666992 6 1 14.667 1 26c0 2.66699 0.166992 7.16699 0.5 13.5s0.5 10.833 0.5 13.5c0 63.333 -7 130.333 -21 201s-28.167 128.667 -42.5 174s-33.5 99.666 -57.5 162.999l147 58
c37.333 -87.333 87 -177.666 149 -270.999c20 -31.333 52.333 -64 97 -98c65.333 120.667 152.666 232 261.999 334c124 121.333 253 195 387 221c36.667 6.66699 70 10 100 10h12c88.667 -2.66699 164 -25.334 226 -68.001s107.333 -99.334 136 -170.001
c19.333 -46.667 29 -97 29 -151c0 -74.667 -20.333 -146 -61 -214c15.333 -21.333 56 -39 122 -53c18 -4 35.333 -6 52 -6h8c22 0 40.667 -7.66699 56 -23s23 -34 23 -56z" />
    <glyph glyph-name="uniFEBB" unicode="&#x635;" horiz-adv-x="1871" arabic-form="initial" 
d="M739 169c59.333 -12 124.664 -18 195.997 -18c212.667 0 385 30.333 517 91c119.333 55.333 179 135.666 179 240.999c0 51.333 -18.667 98 -56 140c-58 51.333 -122.333 77 -193 77c-37.333 0 -74.666 -6.5 -111.999 -19.5s-67.166 -26.5 -89.499 -40.5
s-49.166 -32.667 -80.499 -56c-32 -23.333 -61 -46.666 -87 -69.999v1c-86.667 -82 -164.667 -175 -234 -279c-14.667 -22 -28 -44.333 -40 -67zM-0.00195312 20c-22 0 -40.668 7.5 -56.001 22.5s-23 33.5 -23 55.5s7.66699 40.5 23 55.5s34 22.5 56 22.5
c92.667 0 164.167 18 214.5 54s85.833 91.333 106.5 166c7.33301 26.667 18 73.167 32 139.5s25.333 115.166 34 146.499l151 -45c-10 -29.333 -18.667 -76.333 -26 -141c-2 -17.333 -2.33301 -31 -1 -41c0 -91.333 27.333 -170.666 82 -237.999
c20.667 47.333 58 108.333 112 183c140 192 289 324.667 447 398c82 38.667 162 58 240 58c117.333 0 216.333 -41.333 297 -124c62.667 -78 94 -165.333 94 -262c0 -2.66699 -0.166992 -6.5 -0.5 -11.5s-0.5 -8.83301 -0.5 -11.5
c-9.33301 -159.333 -106.666 -280.333 -291.999 -363c-144.667 -64 -314 -96 -508 -96c-115.333 0 -207 5.83301 -275 17.5s-128.333 37.167 -181 76.5c-39.333 29.333 -80 70 -122 122c-86 -120.667 -217.667 -182 -395 -184h-9z" />
    <glyph glyph-name="uniFEBC" unicode="&#x635;" horiz-adv-x="1933" arabic-form="medial" 
d="M-1 20c-21.333 0 -39.6641 7.50195 -54.9971 22.502s-23 33.167 -23 54.5s7.66699 39.833 23 55.5s33.666 23.5 54.999 23.5h9c74.667 2 128.834 9.83301 162.501 23.5s65.5 39.834 95.5 78.501c24.667 32.667 44 70.167 58 112.5s28 96.166 42 161.499l15 66
c6 26 11.333 47.333 16 64l149 -46c-1.33301 -4.66699 -3.83301 -14 -7.5 -28l-8 -30.5c-1.66699 -6.33301 -3.83398 -15.833 -6.50098 -28.5s-4.66699 -23.5 -6 -32.5s-2.5 -19.833 -3.5 -32.5s-1.5 -25 -1.5 -37c0 -113.333 29.667 -191 89 -233
c65.333 136.667 167 274 305 412c124 115.333 258 188 402 218c35.333 6.66699 72.666 10 111.999 10c120 0 217.667 -40.667 293 -122c58.667 -58.667 88 -139.334 88 -242.001v-20c-8.66699 -106 -58 -204 -148 -294h279c22 0 40.833 -7.66699 56.5 -23s23.5 -34 23.5 -56
s-7.83301 -40.333 -23.5 -55s-34.5 -22 -56.5 -22l-252 -1c-64.667 0 -122.667 2.33301 -174 7c-45.333 4 -81 12.333 -107 25c-155.333 -41.333 -293.333 -62 -414 -62c-106 0 -203.5 11.167 -292.5 33.5s-160.833 56.166 -215.5 101.499c-28.667 24 -49.667 53.333 -63 88
c-52.667 -70.667 -110.334 -119.667 -173.001 -147c-62 -30 -143 -45 -243 -45zM1408 696.002c-138.667 -6 -269.332 -67.666 -391.999 -184.999v1c-104 -98 -190.667 -212 -260 -342c109.333 -11.333 183 -17 221 -17c175.333 0 327 25.667 455 77c46 18 85 40.333 117 67
h-1c61.333 49.333 94 110.666 98 183.999c0 2 0.166992 4.83301 0.5 8.5s0.5 6.16699 0.5 7.5c0 78 -35.667 135.667 -107 173c-32.667 17.333 -71.334 26 -116.001 26h-16z" />
    <glyph glyph-name="uniFEBE" unicode="&#x636;" horiz-adv-x="2867" arabic-form="final" 
d="M1730 200c105.333 -38.667 219.667 -58 343 -58c157.333 0 287.666 31.667 391 95c36 19.333 65.667 48.833 89 88.5s35 84.5 35 134.5c0 82.667 -36.333 144.667 -109 186c-36.667 21.333 -81.667 32 -135 32c-62 0 -116.667 -11 -164 -33s-95.333 -52.333 -144 -91
c-131.333 -106 -233.333 -224 -306 -354zM2947 97c0 -21.333 -7.66406 -39.499 -22.9971 -54.499s-34 -22.5 -56 -22.5c-60 0 -115.667 9 -167 27s-92.333 42.333 -123 73c-139.333 -90 -304 -135 -494 -135h-23c-225.333 0 -421 60.333 -587 181
c4.66699 -30.667 7 -74.334 7 -131.001v-27c0 -141.333 -43.667 -271.666 -131 -390.999c-56.667 -78 -131.167 -138.667 -223.5 -182s-200.833 -65 -325.5 -65c-147.333 0 -272 24.5 -374 73.5s-176.667 121.5 -224 217.5c-36.667 74 -55 161.667 -55 263v8
c1.33301 98 16.666 197.833 45.999 299.5s65.333 191.834 108 270.501c29.333 -20 74.333 -49 135 -87c-47.333 -90 -86 -203 -116 -339c-10.667 -49.333 -16 -100 -16 -152c0 -139.333 42.667 -240.166 128 -302.499s206.333 -93.5 363 -93.5
c158 0 282.167 40.167 372.5 120.5s141.166 195.166 152.499 344.499c0.666992 6 1 14.667 1 26c0 2.66699 0.166992 7.16699 0.5 13.5s0.5 10.833 0.5 13.5c0 63.333 -7 130.333 -21 201s-28.167 128.667 -42.5 174s-33.5 99.666 -57.5 162.999l147 58
c37.333 -87.333 87 -177.666 149 -270.999c20 -31.333 52.333 -64 97 -98c65.333 120.667 152.666 232 261.999 334c124 121.333 253 195 387 221c36.667 6.66699 70 10 100 10h12c88.667 -2.66699 164 -25.334 226 -68.001s107.333 -99.334 136 -170.001
c19.333 -46.667 29 -97 29 -151c0 -74.667 -20.333 -146 -61 -214c15.333 -21.333 56 -39 122 -53c18 -4 35.333 -6 52 -6h8c22 0 40.667 -7.66699 56 -23s23 -34 23 -56zM2443 1201l-147 -147l-148 148l147 147z" />
    <glyph glyph-name="uniFEBF" unicode="&#x636;" horiz-adv-x="1894" arabic-form="initial" 
d="M739 169c59.333 -12 124.664 -18 195.997 -18c212.667 0 385 30.333 517 91c119.333 55.333 179 135.666 179 240.999c0 51.333 -18.667 98 -56 140c-58 51.333 -122.333 77 -193 77c-37.333 0 -74.666 -6.5 -111.999 -19.5s-67.166 -26.5 -89.499 -40.5
s-49.166 -32.667 -80.499 -56c-32 -23.333 -61 -46.666 -87 -69.999v1c-86.667 -82 -164.667 -175 -234 -279c-14.667 -22 -28 -44.333 -40 -67zM-0.00195312 20c-22 0 -40.668 7.5 -56.001 22.5s-23 33.5 -23 55.5s7.66699 40.5 23 55.5s34 22.5 56 22.5
c92.667 0 164.167 18 214.5 54s85.833 91.333 106.5 166c7.33301 26.667 18 73.167 32 139.5s25.333 115.166 34 146.499l151 -45c-10 -29.333 -18.667 -76.333 -26 -141c-2 -17.333 -2.33301 -31 -1 -41c0 -91.333 27.333 -170.666 82 -237.999
c20.667 47.333 58 108.333 112 183c140 192 289 324.667 447 398c82 38.667 162 58 240 58c117.333 0 216.333 -41.333 297 -124c62.667 -78 94 -165.333 94 -262c0 -2.66699 -0.166992 -6.5 -0.5 -11.5s-0.5 -8.83301 -0.5 -11.5
c-9.33301 -159.333 -106.666 -280.333 -291.999 -363c-144.667 -64 -314 -96 -508 -96c-115.333 0 -207 5.83301 -275 17.5s-128.333 37.167 -181 76.5c-39.333 29.333 -80 70 -122 122c-86 -120.667 -217.667 -182 -395 -184h-9zM1446 1250l-147 -147l-148 148l147 147z
" />
    </font>
</defs>
</svg>
